<svg width="275" height="72" viewBox="0 0 275 72" fill="none" xmlns="http://www.w3.org/2000/svg">
<path d="M0.768127 70V2.78125H43.6588V13.4688H12.3931V32.2656H40.7056V42.8125H12.3931V70H0.768127ZM151.299 70V0.390625H162.361V27.5781C166.236 23.7969 170.939 21.9062 176.471 21.9062C180.877 21.9062 184.768 23.0312 188.143 25.2812C191.58 27.5 194.158 30.4688 195.877 34.1875C197.658 37.875 198.549 42 198.549 46.5625C198.549 51.1562 197.658 55.3281 195.877 59.0781C194.127 62.7969 191.549 65.7969 188.143 68.0781C184.768 70.3281 180.877 71.4531 176.471 71.4531C171.002 71.4531 166.299 69.5625 162.361 65.7812V70H151.299ZM162.361 54.625C165.705 58.9375 169.643 61.0938 174.174 61.0938C178.08 61.0938 181.189 59.7969 183.502 57.2031C185.846 54.5469 187.018 51 187.018 46.5625C187.018 42.1875 185.846 38.7344 183.502 36.2031C181.189 33.6406 178.08 32.3594 174.174 32.3594C169.486 32.3594 165.549 34.4375 162.361 38.5938V54.625Z" fill="#4670DD"/>
<path d="M46.1469 46.6562C46.1781 39.5938 48.5063 33.7188 53.1313 29.0312C57.7563 24.3438 63.7406 21.9687 71.0844 21.9062C78.3031 21.9062 84.2563 24.2656 88.9438 28.9844C93.6313 33.6719 95.975 39.5625 95.975 46.6562C95.975 53.7188 93.6313 59.625 88.9438 64.375C84.3188 69.0938 78.3656 71.4531 71.0844 71.4531C63.8344 71.4531 57.8656 69.0938 53.1781 64.375C48.4906 59.625 46.1469 53.7188 46.1469 46.6562ZM71.0844 61.0938C74.8344 61.0938 77.9906 59.7969 80.5531 57.2031C83.1469 54.6094 84.4438 51.0938 84.4438 46.6562C84.4438 42.1875 83.1469 38.7031 80.5531 36.2031C77.9906 33.6406 74.8344 32.3594 71.0844 32.3594C67.3031 32.3594 64.1156 33.6406 61.5219 36.2031C58.9281 38.7031 57.6313 42.1875 57.6313 46.6562C57.6313 51.0938 58.9281 54.6094 61.5219 57.2031C64.1156 59.7969 67.3031 61.0938 71.0844 61.0938Z" fill="#D65353"/>
<path d="M98.8381 46.6562C98.8694 39.5938 101.198 33.7188 105.823 29.0312C110.448 24.3438 116.432 21.9687 123.776 21.9062C130.994 21.9062 136.948 24.2656 141.635 28.9844C146.323 33.6719 148.666 39.5625 148.666 46.6562C148.666 53.7188 146.323 59.625 141.635 64.375C137.01 69.0938 131.057 71.4531 123.776 71.4531C116.526 71.4531 110.557 69.0938 105.869 64.375C101.182 59.625 98.8381 53.7188 98.8381 46.6562ZM123.776 61.0938C127.526 61.0938 130.682 59.7969 133.244 57.2031C135.838 54.6094 137.135 51.0938 137.135 46.6562C137.135 42.1875 135.838 38.7031 133.244 36.2031C130.682 33.6406 127.526 32.3594 123.776 32.3594C119.994 32.3594 116.807 33.6406 114.213 36.2031C111.619 38.7031 110.323 42.1875 110.323 46.6562C110.323 51.0938 111.619 54.6094 114.213 57.2031C116.807 59.7969 119.994 61.0938 123.776 61.0938Z" fill="#D6A118"/>
<path d="M201.155 55.3281C201.28 50.6406 203.046 46.9844 206.452 44.3594C209.889 41.7031 214.014 40.3906 218.827 40.4219C223.577 40.4219 227.702 41.3906 231.202 43.3281V39.2969C231.202 37.1094 230.374 35.2969 228.717 33.8594C227.061 32.4219 224.624 31.7031 221.405 31.7031C215.655 31.7031 209.796 33.5 203.827 37.0938V26.2188C209.608 23.3438 215.702 21.9062 222.108 21.9062C226.702 21.9062 230.483 22.6875 233.452 24.25C236.421 25.8125 238.624 27.875 240.061 30.4375C241.53 32.9688 242.264 35.75 242.264 38.7812V70H231.764V66.5312C228.264 69.8125 223.858 71.4531 218.546 71.4531C213.389 71.4531 209.202 70.0312 205.983 67.1875C202.764 64.2812 201.155 60.3281 201.155 55.3281ZM212.311 55.1406C212.311 57.4219 213.139 59.2344 214.796 60.5781C216.483 61.9219 218.592 62.5938 221.124 62.5938C223.249 62.5938 225.202 62.1875 226.983 61.375C228.827 60.5625 230.233 59.6562 231.202 58.6562V51.5781C230.202 50.7344 228.78 50 226.936 49.375C225.124 48.7188 223.186 48.3906 221.124 48.3906C218.655 48.3906 216.561 49 214.842 50.2188C213.155 51.4375 212.311 53.0781 212.311 55.1406Z" fill="#33AC6B"/>
<path d="M247.404 70V23.4531H258.279V30.9062C259.497 28.0625 261.279 25.8594 263.622 24.2969C265.966 22.7031 268.622 21.9062 271.591 21.9062C272.966 21.9062 274.091 22.0312 274.966 22.2812V33.8125C272.904 33.5625 271.372 33.4375 270.372 33.4375C267.372 33.4375 264.794 34.2812 262.638 35.9688C260.482 37.6562 259.091 39.6875 258.466 42.0625V70H247.404Z" fill="#D65353"/>
</svg>
