<svg width="213" height="69" viewBox="0 0 213 69" fill="none" xmlns="http://www.w3.org/2000/svg">
<path d="M0.992188 53V2.58594H34.707V12.3945H11.6445V24.0664H32.457V33.7695H11.6445V53H0.992188ZM120.141 34.0508C120.141 28.8711 121.641 24.6758 124.641 21.4648C127.664 18.2539 131.543 16.6484 136.278 16.6484C140.473 16.6484 143.743 17.8672 146.086 20.3047V17.8086H156.141V51.9102C156.141 57.0664 154.641 61.1211 151.641 64.0742C148.664 67.0508 144.094 68.5391 137.93 68.5391C135.164 68.5391 132.41 68.1172 129.668 67.2734C126.973 66.4531 124.758 65.4922 123.024 64.3906V54.4414C125.321 56.0352 127.746 57.2422 130.301 58.0625C132.879 58.9062 135.258 59.3281 137.438 59.3281C143.321 59.3281 146.203 56.8555 146.086 51.9102V48.043C144.891 49.1445 143.45 50.0469 141.762 50.75C140.075 51.4297 138.246 51.7695 136.278 51.7695C131.543 51.7695 127.664 50.1289 124.641 46.8477C121.641 43.543 120.141 39.2773 120.141 34.0508ZM130.582 34.0508C130.582 36.7227 131.285 38.8438 132.692 40.4141C134.121 41.9844 135.996 42.7695 138.317 42.7695C139.793 42.7695 141.211 42.4297 142.571 41.75C143.93 41.0469 145.102 40.1211 146.086 38.9727V29.375C143.86 26.8906 141.27 25.6484 138.317 25.6484C136.043 25.6484 134.18 26.4219 132.727 27.9688C131.297 29.5156 130.582 31.543 130.582 34.0508Z" fill="#4285F4"/>
<path d="M37.5209 35.2812C37.5209 29.9609 39.3022 25.5312 42.8647 21.9922C46.4506 18.4297 51.0561 16.6484 56.6811 16.6484C62.3061 16.6484 66.9116 18.4297 70.4975 21.9922C74.1069 25.5312 75.9116 29.9609 75.9116 35.2812C75.9116 40.6484 74.1303 45.1133 70.5678 48.6758C67.0053 52.2148 62.3764 54.0195 56.6811 54.0898C52.9311 54.0898 49.603 53.2578 46.6967 51.5938C43.8139 49.9297 41.5522 47.6797 39.9116 44.8438C38.2709 41.9844 37.4741 38.7969 37.5209 35.2812ZM47.9623 35.2812C47.9623 38.1172 48.7944 40.3789 50.4584 42.0664C52.1225 43.7305 54.1967 44.5625 56.6811 44.5625C59.2123 44.5625 61.31 43.7305 62.9741 42.0664C64.6381 40.3789 65.4702 38.1172 65.4702 35.2812C65.4702 32.4922 64.6264 30.2656 62.9389 28.6016C61.2748 26.9141 59.1889 26.0703 56.6811 26.0703C54.1967 26.0703 52.1225 26.9141 50.4584 28.6016C48.7944 30.2656 47.9623 32.4922 47.9623 35.2812ZM177.027 35.1406C177.027 31.5078 177.823 28.2852 179.417 25.4727C181.034 22.6133 183.214 20.4336 185.956 18.9336C188.722 17.4102 191.769 16.6484 195.097 16.6484C200.558 16.6484 204.835 18.3711 207.929 21.8164C211.046 25.2383 212.605 29.7266 212.605 35.2812C212.605 36.5 212.558 37.4844 212.464 38.2344H187.538C187.655 40.5078 188.605 42.3359 190.386 43.7188C192.191 45.0547 194.265 45.7227 196.609 45.7227C201.155 45.7227 205.62 44.2812 210.003 41.3984V50.1172C208.081 51.3359 205.995 52.2969 203.745 53C201.495 53.7266 198.765 54.0898 195.554 54.0898C192.109 54.0898 189.003 53.375 186.238 51.9453C183.495 50.4922 181.269 48.3125 179.558 45.4062C177.87 42.5 177.027 39.0781 177.027 35.1406ZM187.784 31.4844H202.445C202.327 29.6797 201.636 28.1445 200.37 26.8789C199.152 25.6133 197.394 24.9805 195.097 24.9805C193.034 24.9805 191.323 25.6367 189.964 26.9492C188.628 28.2383 187.902 29.75 187.784 31.4844Z" fill="#EA4335"/>
<path d="M78.7606 35.2812C78.7606 29.9609 80.5419 25.5312 84.1044 21.9922C87.6903 18.4297 92.2958 16.6484 97.9208 16.6484C103.546 16.6484 108.151 18.4297 111.737 21.9922C115.347 25.5312 117.151 29.9609 117.151 35.2812C117.151 40.6484 115.37 45.1133 111.808 48.6758C108.245 52.2148 103.616 54.0195 97.9208 54.0898C94.1708 54.0898 90.8427 53.2578 87.9364 51.5938C85.0536 49.9297 82.7919 47.6797 81.1513 44.8438C79.5106 41.9844 78.7138 38.7969 78.7606 35.2812ZM89.202 35.2812C89.202 38.1172 90.0341 40.3789 91.6981 42.0664C93.3622 43.7305 95.4364 44.5625 97.9208 44.5625C100.452 44.5625 102.55 43.7305 104.214 42.0664C105.878 40.3789 106.71 38.1172 106.71 35.2812C106.71 32.4922 105.866 30.2656 104.179 28.6016C102.515 26.9141 100.429 26.0703 97.9208 26.0703C95.4364 26.0703 93.3622 26.9141 91.6981 28.6016C90.0341 30.2656 89.202 32.4922 89.202 35.2812Z" fill="#FBBC05"/>
<path d="M162.224 53V0.792969H172.279V53H162.224Z" fill="#34A853"/>
</svg>
