<svg width="54" height="51" viewBox="0 0 54 51" fill="none" xmlns="http://www.w3.org/2000/svg">
<path d="M25.0979 1.8541C25.6966 0.0114738 28.3034 0.0114797 28.9021 1.8541L33.7354 16.7295C34.0032 17.5535 34.7711 18.1115 35.6375 18.1115H51.2784C53.2159 18.1115 54.0214 20.5907 52.454 21.7295L39.8002 30.923C39.0993 31.4323 38.806 32.335 39.0737 33.1591L43.907 48.0344C44.5057 49.8771 42.3968 51.4093 40.8293 50.2705L28.1756 41.077C27.4746 40.5677 26.5254 40.5677 25.8244 41.077L13.1707 50.2705C11.6032 51.4093 9.49428 49.8771 10.093 48.0344L14.9263 33.1591C15.194 32.335 14.9007 31.4323 14.1997 30.923L1.54598 21.7295C-0.0214455 20.5907 0.784111 18.1115 2.72156 18.1115H18.3625C19.2289 18.1115 19.9968 17.5535 20.2646 16.7295L25.0979 1.8541Z" fill="#FFD702"/>
</svg>
