<svg width="171" height="327" viewBox="0 0 171 327" fill="none" xmlns="http://www.w3.org/2000/svg">
<path d="M110.519 308.927C112.612 300.125 111.836 291.936 110.754 283.621C110.231 279.526 109.654 275.378 109.077 271.301C109.004 270.814 108.932 269.966 108.86 269.119C108.553 265.457 108.138 260.461 105.794 255.555C104.188 252.2 101.934 249.133 99.3363 246.392C103.088 241.107 103.719 234.83 104.044 231.511C104.134 230.519 104.243 229.491 104.351 228.931C105.92 221.139 107.868 213.077 110.123 204.978C117.825 177.344 129.549 147.799 147.009 111.977C153.304 99.0621 160.05 86.0031 166.58 73.3769L166.634 73.2687C168.979 68.7232 175.201 56.6742 165.714 44.7154C160.916 38.6909 155.378 33.3339 150.472 28.7524C147.37 25.2892 143.438 22.7097 139.001 21.2307C117.951 14.2322 96.5406 7.4682 75.3106 1.11903C63.8568 -2.30807 51.3929 2.32756 45.0076 12.4105C35.0149 28.1391 26.5012 45.0761 19.7011 62.7167C6.20912 97.6912 -0.59103 135.877 0.0402796 173.178C0.0763544 175.216 0.058317 177.723 0.0402796 180.375V180.501C-0.0859822 195.995 -0.23022 215.277 7.09297 228.462C8.93278 231.781 11.4941 234.595 14.7228 236.85C11.3858 239.393 8.87868 242.802 7.32746 246.969C5.2712 252.542 5.54175 257.972 5.74016 261.94C5.79427 262.968 5.84851 264.032 5.86655 265.096C5.92066 273.412 6.58798 281.799 7.83256 290.006C7.90471 290.439 7.99496 291.034 8.12122 291.72C7.99496 293.127 8.03094 294.533 8.24739 295.94C9.1673 302.38 13.0995 306.186 14.3982 307.43C18.4566 311.362 22.9478 315.457 28.2508 318.884C31.714 321.103 35.1952 322.816 38.6404 323.971C41.2919 324.854 43.9795 325.432 46.631 325.702C61.3315 327.145 76.2303 327.181 90.9308 325.828C92.8608 325.648 97.9835 325.179 102.745 321.536C106.623 318.559 109.239 314.321 110.519 308.927Z" fill="white"/>
<path d="M152.367 55.0685C148.11 48.7915 141.31 44.3904 135.069 40.0433C130.974 37.1934 129.495 36.959 125.383 35.498C123.182 34.7224 120.765 36.0932 118.474 36.5802C117.302 36.8327 114.001 38.3659 112.937 38.0412C104.099 35.2815 95.2602 32.5399 86.3857 29.8884C82.0207 28.5897 77.2951 30.3213 74.86 34.1632C65.3724 49.1163 57.3997 65.0252 51.0325 81.5474C42.7713 102.976 37.1798 125.433 34.4381 148.232C33.7347 153.986 33.2297 159.776 32.905 165.566C32.6705 169.66 33.5724 174.584 32.6705 178.517C31.444 183.892 27.6741 189.429 25.6359 194.606C23.6157 199.765 21.812 204.995 20.2427 210.317C19.3228 213.419 18.475 216.792 19.5392 219.858C20.2066 221.752 21.5233 223.321 22.9122 224.764C28.2513 230.248 34.889 233.675 41.5989 237.03C47.7136 240.096 55.1991 239.555 61.8549 240.024C68.5288 240.493 79.2249 242.856 85.5019 240.06C90.4081 237.878 89.5063 231.15 90.5344 226.117C92.23 217.73 94.2501 209.415 96.5408 201.172C105.74 168.145 119.34 136.543 134.329 105.772C138.009 98.214 141.797 90.7105 145.639 83.207C147.605 79.347 149.571 75.5049 151.573 71.663C152.98 68.9754 155.667 65.4401 155.884 62.3557C155.992 60.7143 155.09 59.1991 154.207 57.8103C153.593 56.9084 152.998 55.9884 152.367 55.0685Z" fill="#67C8C7" stroke="#243645" stroke-width="2.4594" stroke-miterlimit="10" stroke-linecap="round" stroke-linejoin="round"/>
<path d="M69.4841 311.417C62.3954 311.417 55.2166 311.074 48.1459 310.388C44.4302 310.01 40.6423 308.567 36.5658 305.933C32.3992 303.246 28.5752 299.746 25.076 296.373C24.3906 295.706 23.633 294.894 23.4706 293.74C23.3263 292.784 23.6873 291.9 23.9037 291.305C26.3929 285.01 29.2968 278.805 32.5435 272.907L33.7882 270.544C36.2052 265.854 38.6942 261.02 44.7187 260.082C47.2801 259.685 49.9315 259.595 52.6011 259.505C55.5953 259.415 58.6076 259.324 61.4214 258.747C64.5058 258.116 67.3377 254.328 69.8269 250.991C70.6747 249.855 71.4863 248.773 72.2438 247.889C72.4783 247.618 73.6148 246.915 73.9575 246.897C74.5347 246.897 74.9675 247.131 75.184 247.257C80.0901 249.999 88.7662 255.591 91.9227 262.192C93.041 264.555 93.3116 267.676 93.5461 270.436C93.6363 271.5 93.7083 272.528 93.8526 273.484C94.4298 277.506 94.971 281.565 95.4941 285.605C96.414 292.694 97.0454 299.079 95.5483 305.374C95.2416 306.673 94.7184 308.314 93.3836 309.342C92.2473 310.208 90.8946 310.388 89.5058 310.515C82.9041 311.11 76.1579 311.417 69.4841 311.417Z" fill="#67C8C7"/>
<path d="M74.0295 248.123C74.2459 248.123 74.4264 248.231 74.6068 248.321C80.1623 251.424 87.9725 256.763 90.8224 262.697C92.2654 265.728 92.1753 270.291 92.6442 273.61C93.2214 277.65 93.7624 281.673 94.2855 285.713C95.1152 292.134 95.8729 298.736 94.3757 305.031C94.0871 306.258 93.6543 307.538 92.6623 308.314C91.7604 308.999 90.5699 309.144 89.4335 309.252C82.7957 309.865 76.1398 310.172 69.466 310.172C62.3953 310.172 55.3066 309.829 48.272 309.144C44.412 308.765 40.6963 307.124 37.2512 304.887C33.0485 302.181 29.2065 298.61 25.9598 295.471C25.4006 294.93 24.8235 294.317 24.6972 293.559C24.607 292.946 24.8414 292.333 25.0579 291.774C27.529 285.515 30.397 279.4 33.6437 273.502C36.4936 268.307 38.5499 262.282 44.9352 261.308C50.4005 260.461 56.3529 261.038 61.692 259.956C66.3637 259 70.0614 252.38 73.2179 248.682C73.4163 248.412 73.6868 248.141 74.0295 248.123ZM74.0295 245.67C74.0115 245.67 73.9755 245.67 73.9575 245.67C72.4784 245.706 71.6305 246.698 71.3058 247.077C70.5122 247.997 69.7005 249.097 68.8528 250.233C66.5981 253.246 63.8023 256.997 61.1688 257.521C58.4993 258.062 55.6313 258.152 52.583 258.26C49.9315 258.35 47.1899 258.441 44.5203 258.855C37.8645 259.884 35.123 265.241 32.6879 269.966C32.2911 270.742 31.8761 271.536 31.4613 272.293C28.1785 278.264 25.2384 284.505 22.7493 290.854C22.4968 291.521 22.0638 292.621 22.2442 293.884C22.4787 295.543 23.615 296.644 24.2282 297.239C27.7636 300.666 31.6235 304.201 35.9164 306.961C40.1733 309.703 44.1234 311.218 48.0375 311.597C55.1262 312.282 62.3412 312.643 69.484 312.643C76.212 312.643 82.9942 312.336 89.6861 311.723C90.8765 311.615 92.6803 311.452 94.1954 310.298C95.8188 309.054 96.45 307.159 96.8108 305.644C98.362 299.169 97.7126 292.657 96.7746 285.442C96.2516 281.384 95.7106 277.344 95.1153 273.303C94.9891 272.383 94.8988 271.373 94.8086 270.327C94.5741 267.477 94.3037 264.231 93.0771 261.669C89.7582 254.743 80.8657 249.007 75.8513 246.193C75.5447 246.031 74.8953 245.67 74.0295 245.67Z" fill="#243645"/>
<path d="M70.5665 16.9919C91.7425 23.3411 112.81 29.9969 133.769 36.9593C139.722 38.9434 142.481 45.7796 139.577 51.3351C124.679 79.9424 110.014 108.748 97.8571 138.654C91.8146 153.499 86.3852 168.614 81.9119 184C79.6212 191.847 77.5829 199.783 75.8333 207.774C74.6789 213.095 75.2923 225.36 69.8269 227.795C64.2173 230.302 52.1864 227.579 45.9996 227.146C37.8106 226.569 25.3287 227.092 21.5949 220.364C15.2638 208.946 16.8511 185.479 16.6346 172.853C16.0394 137.355 22.4065 101.768 35.195 68.6511C41.5622 52.1288 49.5349 36.2198 59.0226 21.2668C61.4937 17.4248 66.2195 15.6932 70.5665 16.9919Z" fill="#F7CE6D" stroke="#243645" stroke-width="2.4594" stroke-miterlimit="10" stroke-linecap="round" stroke-linejoin="round"/>
<path d="M24.265 287.517C24.6979 290.349 25.4013 293.487 27.8183 295.038C29.1711 295.904 30.8307 296.103 32.436 296.265C46.1083 297.6 59.9249 297.636 73.5973 296.391C74.7336 296.283 75.9242 296.157 76.826 295.453C77.8181 294.696 78.2509 293.397 78.5395 292.17C80.0366 285.875 79.2792 279.274 78.4494 272.852C77.4393 265.096 76.357 257.358 75.1484 249.638C60.1774 246.896 44.1603 246.067 29.063 248.412C20.2968 249.764 22.4071 256.979 22.4613 264.97C22.5514 272.51 23.1286 280.049 24.265 287.517Z" fill="#F7CE6D" stroke="#243645" stroke-width="2.4594" stroke-miterlimit="10" stroke-linecap="round" stroke-linejoin="round"/>
</svg>
