<svg width="466" height="647" viewBox="0 0 466 647" fill="none" xmlns="http://www.w3.org/2000/svg">
<path d="M456.789 165.705C457.329 163.905 457.679 162.025 457.809 160.095C458.099 155.925 457.399 151.825 455.809 148.035C458.019 146.065 459.939 143.775 461.459 141.215C464.529 136.015 465.759 129.985 465.029 123.745C464.679 120.635 463.849 117.545 462.559 114.545C462.469 114.345 462.359 114.145 462.259 113.945C462.419 113.245 462.559 112.525 462.689 111.715C462.719 111.515 462.749 111.325 462.779 111.125C463.219 107.835 463.099 104.585 462.389 101.425C461.379 96.9354 459.229 92.8354 456.179 89.5854C456.159 89.5654 456.149 89.5554 456.129 89.5354C456.179 89.0254 456.219 88.5054 456.239 87.9854C456.379 84.4354 455.859 80.9654 454.709 77.6954C453.469 74.1554 451.509 70.9354 448.959 68.2354C448.709 64.7454 447.849 61.4054 446.389 58.2654C444.569 54.3754 441.829 50.9954 438.469 48.4754C437.379 47.6554 436.209 46.9754 435.019 46.3554C434.899 45.4254 434.739 44.4854 434.519 43.5554C433.559 39.4554 431.619 35.6354 428.949 32.5154L428.769 32.3054C428.509 32.0054 428.239 31.7054 427.969 31.4154C425.189 28.4854 421.879 26.2954 418.159 24.8954C417.599 21.2054 416.339 17.6554 414.409 14.4354C411.419 9.45544 406.869 5.52544 401.239 3.05544C398.489 1.82544 395.509 0.96544 392.399 0.48544C389.929 0.11544 387.399 -0.0545612 384.829 0.0154388C382.469 0.0854388 380.129 0.32544 377.899 0.73544C375.569 1.16544 373.329 1.76544 371.219 2.51544C367.579 3.82544 364.129 5.56544 360.949 7.71544C358.209 9.56544 355.659 11.6454 353.409 13.8754C351.519 15.7354 349.749 17.7054 348.119 19.7354C346.729 21.4854 345.459 23.2154 344.339 24.9054C343.709 25.8254 343.039 26.8454 342.319 28.0154C341.659 29.0854 341.009 30.1354 340.399 31.1554C339.789 32.1654 339.249 33.0654 338.829 33.7854C338.209 34.8254 337.839 35.4754 337.679 35.7554C337.509 36.0554 337.299 36.4254 337.099 36.7554C336.259 38.1954 335.549 39.6754 334.979 41.1954C328.299 42.6854 321.929 45.2254 316.169 48.7754C292.909 63.1354 284.109 89.1054 279.379 103.065C268.549 135.025 259.939 167.975 253.689 201.335C244.949 199.585 235.969 198.255 227.009 197.375C229.429 163.705 229.479 129.805 227.169 96.3054C226.149 81.6054 224.259 54.2454 205.429 34.4354C195.689 24.1854 182.269 17.4954 167.659 15.6054C153.289 13.7454 138.819 16.6754 126.909 23.8654C104.549 37.3654 91.7689 63.3454 89.9489 99.0154C89.5589 106.735 89.5389 114.385 89.8289 121.975C86.4389 120.385 82.7689 119.285 78.8389 118.775C74.0989 118.165 69.3289 118.485 64.6489 119.725C55.5389 122.155 47.7589 127.825 42.4889 135.825C29.5289 134.855 17.2489 139.705 9.27892 149.035C0.41892 159.405 -2.25108 174.175 1.93892 189.545C7.46892 209.815 21.4889 223.805 33.0789 233.725L34.4289 234.885C43.6289 242.775 53.1289 250.905 69.0589 256.755C58.7489 272.565 51.1589 291.405 45.3289 315.575C36.1489 353.645 29.8989 398.315 53.0689 440.915C62.2389 457.775 73.8089 471.425 86.6689 482.505C82.1789 485.055 78.4689 488.885 75.8989 493.665C73.9889 497.205 72.7489 501.015 72.2189 504.995C71.3189 511.355 70.3789 517.835 69.3989 524.245L66.3989 544.045C66.3789 544.205 66.3689 544.265 66.3489 544.425C66.2989 544.755 66.1889 545.505 66.0089 546.655C65.7689 548.205 65.4889 550.115 65.1489 552.395C64.8289 554.545 64.4689 556.955 64.0589 559.605C63.6089 562.505 63.1789 565.455 62.8089 568.385L61.9289 575.195C61.6189 577.555 61.3689 579.665 61.1689 581.515C60.9489 583.585 60.7889 585.305 60.6989 586.735C60.5089 589.535 60.4689 593.205 61.7289 597.205C62.8989 600.975 64.9489 604.515 67.7789 607.685C69.7789 609.935 72.0689 611.945 74.5689 613.625C77.3789 615.515 80.4289 616.965 83.6289 617.935C87.3189 619.055 91.0989 619.395 94.7889 618.965C98.4389 623.435 104.669 628.585 114.769 630.465C115.369 630.585 115.979 630.685 116.579 630.765C126.019 631.985 135.229 628.075 141.059 620.205C141.149 620.085 141.239 619.955 141.329 619.825C143.449 622.975 145.929 625.165 148.119 626.645C151.369 628.835 155.129 630.515 159.309 631.655C160.609 632.005 161.929 632.275 163.239 632.445C165.169 632.695 167.089 632.725 168.979 632.585C170.979 634.545 173.279 636.255 175.919 637.675C178.689 639.155 181.659 640.255 184.759 640.955C185.789 641.185 186.819 641.365 187.849 641.505C190.399 641.835 192.959 641.865 195.499 641.585C199.799 641.115 203.839 639.635 207.329 637.345C209.379 639.405 211.769 641.195 214.519 642.665C217.289 644.145 220.259 645.245 223.359 645.945C224.389 646.175 225.419 646.355 226.449 646.495C228.999 646.825 231.559 646.855 234.099 646.575C240.599 645.865 246.539 642.885 250.829 638.195C251.609 637.335 252.329 636.425 252.969 635.465C253.489 634.685 253.909 633.925 254.289 633.165C257.689 636.635 261.959 639.255 266.969 640.945C269.129 641.675 271.019 642.135 272.919 642.375C284.019 643.815 294.519 638.435 299.669 628.665C301.569 625.055 302.909 620.965 303.649 616.505C303.689 616.245 303.729 615.985 303.759 615.725L303.839 615.085C304.109 613.015 304.319 610.685 304.499 607.935C304.639 605.675 304.779 603.315 304.919 600.825C305.039 598.545 305.189 596.195 305.369 593.765C305.519 591.655 305.729 589.605 305.979 587.665C306.209 585.885 306.489 584.275 306.819 582.885C308.099 580.765 309.219 578.665 310.159 576.615C310.729 575.355 311.449 573.865 312.289 572.175C313.839 569.065 315.489 565.895 317.179 562.765C319.139 559.145 320.909 555.695 322.439 552.525C322.589 552.225 322.729 551.915 322.859 551.605C323.109 551.035 323.319 550.515 323.499 550.095C324.429 547.855 325.069 545.495 325.379 543.065C325.919 538.865 325.589 534.735 324.369 530.735C323.809 528.925 323.109 527.115 322.279 525.335C322.099 524.955 321.919 524.585 321.719 524.215C318.189 517.625 312.549 512.895 305.829 510.765C311.829 507.625 317.729 504.025 323.469 499.855C346.449 483.175 364.069 459.235 375.839 428.705C385.059 404.755 390.499 377.375 391.999 347.315C393.169 323.885 388.689 302.165 378.689 282.765C374.009 273.685 368.109 265.135 361.039 257.195C372.179 238.415 383.879 217.615 393.599 195.175C396.289 196.025 399.039 196.525 401.839 196.665C403.769 196.755 405.719 196.725 407.659 196.555C409.189 199.755 411.469 202.635 414.439 204.955C417.779 207.555 421.689 209.135 425.769 209.665C430.489 210.275 435.449 209.485 440.069 207.235C444.439 205.095 448.179 201.795 451.489 197.125C451.539 197.045 451.599 196.975 451.649 196.895C453.069 194.845 454.269 192.735 455.249 190.605C456.909 186.975 457.939 183.235 458.319 179.485C458.719 175.575 458.439 171.725 457.509 168.065C457.299 167.275 457.049 166.485 456.789 165.705Z" fill="white"/>
<path d="M139.689 240.466C139.059 240.416 138.529 239.996 138.349 239.386C125.189 194.506 111.579 148.096 114.019 100.246C114.999 81.2055 120.179 56.0955 139.359 44.5155C145.149 41.0255 151.999 39.1755 159.179 39.1755C170.279 39.1755 180.769 43.5055 187.939 51.0555C199.809 63.5355 201.989 81.8155 203.099 97.9755C206.449 146.386 204.689 195.276 197.879 243.296C197.779 244.046 197.129 244.596 196.389 244.596C196.369 244.586 139.689 240.466 139.689 240.466Z" fill="#FBD0CF"/>
<path d="M159.179 40.6755C169.439 40.6755 179.759 44.6255 186.849 52.0855C198.179 63.9955 200.469 81.6755 201.599 98.0755C204.939 146.416 203.189 195.106 196.399 243.076L139.799 238.966C126.529 193.716 113.129 147.416 115.529 100.326C116.589 79.5755 122.349 56.5455 140.139 45.8055C145.869 42.3455 152.509 40.6755 159.179 40.6755ZM159.179 37.6655C151.729 37.6655 144.609 39.5855 138.579 43.2255C118.829 55.1455 113.499 80.7755 112.509 100.176C110.059 148.296 123.699 194.826 136.899 239.816C137.249 241.026 138.319 241.886 139.569 241.976L196.169 246.086C196.239 246.096 196.319 246.096 196.389 246.096C197.879 246.096 199.159 244.996 199.369 243.506C206.189 195.366 207.949 146.366 204.599 97.8655C203.459 81.4455 201.229 62.8455 189.019 50.0055C181.579 42.1655 170.699 37.6655 159.179 37.6655Z" fill="#243645"/>
<path d="M181.749 154.545C181.749 146.825 181.529 139.115 180.939 131.415C180.099 120.475 179.319 102.395 170.559 94.4555C155.279 80.6055 146.479 100.835 143.789 113.915C139.289 135.775 144.279 158.876 148.309 180.416C149.199 185.156 159.369 236.535 156.579 237.005C156.599 237.005 183.059 232.515 183.069 232.515C181.559 232.775 181.229 178.415 181.379 173.775C181.599 167.385 181.749 160.965 181.749 154.545Z" fill="#F8E9B5" stroke="#243645" stroke-width="3.0137" stroke-miterlimit="10" stroke-linecap="round" stroke-linejoin="round"/>
<path d="M327.239 264.755L271.459 254.315C270.679 254.175 270.149 253.445 270.239 252.655C275.889 204.475 286.649 156.755 302.219 110.805C307.419 95.4654 314.189 78.3454 328.839 69.2954C334.709 65.6754 341.689 63.7554 349.019 63.7554C359.969 63.7554 370.339 67.9854 377.489 75.3454C393.089 91.4354 391.709 117.045 387.799 135.695C377.969 182.595 352.989 224.005 328.819 264.055C328.539 264.515 328.049 264.785 327.529 264.785C327.419 264.785 327.329 264.775 327.239 264.755Z" fill="#FBD0CF"/>
<path d="M349.009 65.2654C359.139 65.2654 369.319 69.1054 376.399 76.3954C390.869 91.3154 390.579 115.045 386.309 135.385C376.629 181.535 351.879 222.895 327.519 263.265L271.739 252.825C277.389 204.705 288.099 157.175 303.649 111.275C308.919 95.7054 315.639 79.1954 329.629 70.5654C335.419 66.9954 342.209 65.2654 349.009 65.2654ZM349.009 62.2454C341.399 62.2454 334.149 64.2354 328.039 68.0054C312.959 77.3154 306.069 94.7254 300.789 110.315C285.189 156.355 274.409 204.185 268.739 252.475C268.559 254.045 269.619 255.495 271.179 255.785L326.959 266.225C327.149 266.255 327.329 266.275 327.519 266.275C328.559 266.275 329.549 265.735 330.099 264.815C354.329 224.665 379.369 183.145 389.259 135.995C393.239 116.985 394.619 90.8454 378.559 74.2854C371.129 66.6454 360.359 62.2454 349.009 62.2454Z" fill="#243645"/>
<g opacity="0.5">
<path d="M129.709 175.555C127.719 164.655 126.219 153.665 125.279 142.625C124.479 133.175 123.849 123.545 124.339 114.065C125.029 100.765 128.289 87.2853 134.339 75.3853C139.939 64.3753 148.339 54.1553 159.969 49.2653C166.519 46.5153 173.369 45.8453 180.129 46.6453C168.299 39.2053 152.189 38.5353 140.139 45.8053C122.349 56.5453 116.579 79.5753 115.529 100.325C113.129 147.415 126.529 193.725 139.799 238.965L146.849 239.475C139.519 218.645 133.669 197.275 129.709 175.555Z" fill="#BCBEC0"/>
</g>
<g opacity="0.5">
<path d="M283.139 195.505C287.029 176.225 292.429 157.215 299.319 138.795C302.529 130.225 306.069 121.765 310.049 113.525C313.519 106.345 317.819 99.7954 323.729 94.3754C333.809 85.1454 347.919 80.3654 361.469 83.2854C372.529 85.6654 381.429 92.4654 387.969 101.245C386.499 91.9054 382.989 83.2254 376.369 76.4054C364.549 64.2154 344.039 61.6654 329.599 70.5854C315.609 79.2254 308.889 95.7254 303.619 111.295C288.069 157.185 277.359 204.715 271.709 252.845L277.229 253.875C276.869 234.285 279.279 214.675 283.139 195.505Z" fill="#BCBEC0"/>
</g>
<path d="M308.449 170.956C310.419 163.496 312.599 156.086 315.129 148.796C318.729 138.436 324.089 121.146 334.579 115.706C352.889 106.206 356.239 128.006 355.509 141.346C354.299 163.636 343.579 184.696 334.199 204.496C332.129 208.856 309.209 255.946 311.779 257.116C311.769 257.106 287.319 246.026 287.309 246.026C288.699 246.656 302.869 194.186 303.899 189.656C305.329 183.406 306.819 177.166 308.449 170.956Z" fill="#F8E9B5" stroke="#243645" stroke-width="3.0137" stroke-miterlimit="10" stroke-linecap="round" stroke-linejoin="round"/>
<path d="M358.149 51.9554C357.159 51.9054 356.509 51.6854 356.219 51.2854C355.919 50.8854 355.819 50.4154 355.929 49.8754C356.029 49.3354 356.249 48.7754 356.589 48.1954C356.929 47.6154 357.219 47.1154 357.449 46.6954C357.539 46.5254 357.799 46.0754 358.239 45.3454C358.669 44.6154 359.179 43.7754 359.749 42.8254C360.319 41.8754 360.909 40.9154 361.509 39.9454C362.109 38.9754 362.639 38.1654 363.089 37.5254C363.849 36.3554 364.749 35.1254 365.789 33.8254C366.829 32.5254 367.989 31.2354 369.269 29.9754C370.549 28.7154 371.989 27.5354 373.599 26.4454C375.209 25.3654 376.959 24.4754 378.859 23.7954C379.809 23.4554 380.849 23.1754 381.979 22.9754C383.109 22.7654 384.269 22.6454 385.459 22.6154C386.649 22.5854 387.819 22.6554 388.969 22.8354C390.119 23.0154 391.159 23.3154 392.089 23.7354C393.469 24.3354 394.459 25.1254 395.039 26.0954C395.619 27.0654 395.909 28.1354 395.909 29.3054C395.909 30.4754 395.659 31.7054 395.179 32.9954C394.699 34.2954 394.089 35.5654 393.369 36.8054C392.629 38.1454 391.639 39.6054 390.429 41.1754C389.209 42.7554 387.949 44.3654 386.649 46.0254C385.779 47.1354 384.859 48.2754 383.879 49.4654C382.899 50.6554 381.949 51.8754 381.009 53.1254C380.079 54.3754 379.169 55.6154 378.289 56.8554C377.399 58.0854 376.599 59.2754 375.889 60.4154C375.659 60.8954 375.489 61.1754 375.349 61.2754C375.219 61.3654 374.839 61.4654 374.219 61.5554C373.369 61.7154 372.519 61.5554 371.649 61.0654C370.779 60.5754 370.089 60.0854 369.569 59.5654C369.229 59.2254 369.129 58.6554 369.299 57.8754C369.459 57.0854 369.769 56.1854 370.229 55.1554C370.689 54.1354 371.259 53.0554 371.939 51.9254C372.629 50.7954 373.329 49.7054 374.039 48.6454C374.749 47.5854 375.409 46.6254 376.019 45.7454C376.629 44.8654 377.099 44.1954 377.439 43.7254C375.759 43.0854 374.039 42.4854 372.289 41.9154C370.539 41.3454 368.859 40.7954 367.269 40.2654C366.989 40.6354 366.619 41.1754 366.169 41.8854C365.719 42.6054 365.219 43.3954 364.669 44.2554C364.119 45.1254 363.559 46.0054 363.009 46.8954C362.449 47.7954 361.939 48.6054 361.479 49.3354C361.149 49.8154 360.879 50.2254 360.669 50.5654C360.449 50.9054 360.239 51.1854 360.019 51.4054C359.799 51.6254 359.549 51.7854 359.269 51.8754C358.949 51.9854 358.589 52.0054 358.149 51.9554ZM379.359 41.1354C379.839 40.6954 380.529 39.8954 381.449 38.7454C382.369 37.5954 383.289 36.3154 384.209 34.9154C384.799 34.0154 385.359 33.0854 385.899 32.1254C386.439 31.1654 386.849 30.2754 387.149 29.4454C387.439 28.6154 387.559 27.8854 387.479 27.2554C387.409 26.6254 387.089 26.1854 386.519 25.9454C385.889 25.7054 385.079 25.7054 384.099 25.9454C383.119 26.1854 382.079 26.5954 380.969 27.1754C379.859 27.7654 378.729 28.4854 377.569 29.3354C376.409 30.1954 375.309 31.1154 374.259 32.0954C373.219 33.0754 372.239 34.0554 371.339 35.0354C370.429 36.0154 369.709 36.9254 369.169 37.7654C369.249 37.7954 369.769 37.9554 370.709 38.2754C371.649 38.5854 372.699 38.9254 373.849 39.3054C374.999 39.6854 376.109 40.0654 377.169 40.4254C378.229 40.7954 378.949 41.0354 379.359 41.1354Z" fill="#243645"/>
<path d="M393.339 73.7853C393.829 74.7153 394.079 75.5553 394.089 76.2953C394.099 77.0353 393.909 77.5053 393.519 77.7153C393.189 77.8953 392.749 77.8353 392.199 77.5453C391.649 77.2553 391.029 76.6653 390.339 75.7753C389.859 75.1653 389.339 74.4853 388.779 73.7353C388.219 72.9953 387.649 72.2753 387.069 71.5753C386.339 70.7053 385.619 69.9353 384.919 69.2653C384.659 69.0153 384.309 68.7153 383.859 68.3753C383.409 68.0353 382.989 67.6453 382.599 67.2053C382.549 67.1453 382.489 67.0853 382.439 67.0253C382.039 66.5853 381.719 66.0653 381.469 65.4553C381.219 64.8453 381.129 64.1153 381.179 63.2753C381.209 62.5853 381.479 61.9953 381.969 61.5053C382.459 61.0153 383.019 60.5653 383.629 60.1653C385.939 58.6653 388.279 57.2053 390.649 55.7753C390.739 55.6753 390.839 55.5653 390.929 55.4653C391.259 55.2653 391.709 54.9753 392.279 54.5853C392.849 54.1953 393.539 53.7553 394.339 53.2653C395.139 52.7753 396.009 52.2553 396.939 51.7053C397.869 51.1553 398.829 50.6053 399.819 50.0653C400.719 49.5753 401.609 49.1053 402.499 48.6553C403.379 48.2153 404.249 47.7953 405.119 47.3953C405.999 47.0153 406.879 46.6453 407.759 46.2753C408.749 45.8753 409.519 45.7853 410.079 45.9953C410.629 46.1953 411.129 46.5253 411.549 46.9753C411.609 47.0453 411.669 47.1153 411.729 47.1853C412.099 47.6153 412.349 48.1253 412.489 48.7353C412.629 49.3353 412.639 49.9653 412.529 50.6053C412.409 51.2453 412.139 51.8753 411.719 52.4953C411.289 53.1053 410.679 53.6253 409.899 54.0453C405.359 56.3453 401.749 58.3453 398.999 59.9353C396.239 61.5253 394.109 62.8253 392.569 63.7753C391.029 64.7253 389.959 65.4353 389.349 65.8953C388.739 66.3553 388.359 66.6653 388.229 66.8453C388.309 67.0253 388.429 67.2453 388.599 67.4853C388.769 67.7253 388.969 67.9853 389.199 68.2653C389.379 68.5253 389.569 68.7753 389.779 69.0253C389.989 69.2753 390.199 69.5353 390.429 69.8153C390.909 70.3953 391.389 70.9853 391.869 71.5753C392.119 71.9353 392.379 72.2953 392.649 72.6553C392.929 73.0253 393.149 73.4053 393.339 73.7853Z" fill="#243645"/>
<path d="M422.939 66.4854C423.079 66.4154 423.269 66.3454 423.529 66.2954C424.069 66.1854 424.539 66.2754 424.939 66.5754C425.339 66.8754 425.669 67.2954 425.919 67.8254C426.249 68.5254 426.419 69.3154 426.439 70.2054C426.459 71.0954 426.299 71.8054 425.959 72.3554C425.559 72.9954 425.009 73.5154 424.309 73.9054C423.609 74.2954 422.939 74.7254 422.289 75.1854C422.119 75.3454 421.769 75.5854 421.219 75.9054C420.679 76.2254 420.029 76.6054 419.269 77.0554C418.509 77.5054 417.679 77.9854 416.769 78.5054C415.859 79.0254 414.939 79.5554 414.019 80.0854C413.129 80.6054 412.179 81.1554 411.189 81.7254C410.199 82.2954 409.279 82.8054 408.449 83.2654C407.609 83.7154 406.919 84.1154 406.369 84.4454C405.819 84.7754 405.509 84.9854 405.449 85.0854C405.659 85.1154 406.029 85.1354 406.539 85.1654C407.049 85.1854 407.659 85.2054 408.359 85.2354C409.059 85.2654 409.829 85.2854 410.679 85.3154C411.529 85.3454 412.389 85.3654 413.269 85.4054C414.319 85.4454 415.359 85.4854 416.399 85.5254C417.429 85.5654 418.379 85.6154 419.219 85.6554C420.069 85.7054 420.779 85.7454 421.359 85.7854C421.939 85.8254 422.309 85.8254 422.459 85.8054C422.749 85.6954 423.049 85.5954 423.339 85.4854C423.779 85.3354 424.469 85.0754 425.419 84.7054C426.359 84.3354 427.709 83.8254 429.459 83.1654C429.599 83.1054 429.739 83.0554 429.859 83.0154C429.979 82.9754 430.099 82.9554 430.229 82.9354C430.989 82.8454 431.649 83.0154 432.189 83.4554C432.729 83.8954 433.129 84.4754 433.379 85.1854C433.589 85.7754 433.679 86.4154 433.649 87.1154C433.619 87.8154 433.449 88.4354 433.139 88.9754C432.859 89.4254 432.509 89.8354 432.089 90.1954C431.669 90.5554 431.209 90.8854 430.739 91.1854C430.259 91.4854 429.779 91.7454 429.289 91.9554C428.799 92.1754 428.369 92.3654 427.999 92.5254C427.939 92.5354 427.899 92.5454 427.889 92.5654C427.879 92.5854 427.839 92.6054 427.779 92.6054C424.939 93.8554 422.149 95.0054 419.399 96.0654C416.649 97.1254 413.809 98.1354 410.869 99.1454C410.769 99.2354 410.689 99.2854 410.629 99.2954C410.599 99.2954 410.919 99.3254 411.579 99.3754C412.239 99.4354 413.129 99.5154 414.239 99.6354C415.349 99.7554 416.619 99.8954 418.059 100.065C419.499 100.235 420.999 100.435 422.549 100.665C424.099 100.905 425.649 101.155 427.189 101.405C428.729 101.665 430.129 101.935 431.389 102.205C432.649 102.475 433.729 102.725 434.619 102.945C435.509 103.165 436.079 103.325 436.319 103.395C436.609 103.515 436.949 103.625 437.359 103.725C437.769 103.825 438.169 103.975 438.579 104.185C438.979 104.395 439.339 104.665 439.659 105.005C439.979 105.345 440.199 105.795 440.329 106.345C440.439 106.855 440.459 107.435 440.369 108.065C440.259 108.745 440.159 109.205 440.069 109.465C439.979 109.715 439.839 109.845 439.639 109.835C439.449 109.835 439.189 109.745 438.869 109.575C438.549 109.405 438.119 109.215 437.599 108.995C436.029 108.365 434.459 107.755 432.889 107.175C431.319 106.595 429.619 106.095 427.779 105.675C425.949 105.265 424.069 104.905 422.149 104.595C420.229 104.295 418.299 104.055 416.389 103.875C414.479 103.695 412.639 103.535 410.899 103.395C408.949 103.245 407.179 103.115 405.579 103.005C403.979 102.895 402.669 102.745 401.629 102.535C400.419 102.285 399.659 101.665 399.319 100.655C399.279 100.535 399.239 100.415 399.199 100.295C399.089 99.7654 399.079 99.2154 399.179 98.6554C399.279 98.0954 399.479 97.4954 399.779 96.8654C400.069 96.3854 400.669 95.8654 401.589 95.3054C402.499 94.7454 403.539 94.1654 404.709 93.5654C405.629 93.1054 406.569 92.6454 407.529 92.1954C408.489 91.7454 409.379 91.3254 410.189 90.9354C410.999 90.5454 411.699 90.1854 412.269 89.8554C412.839 89.5254 413.209 89.2454 413.349 89.0254C413.069 88.9954 412.309 88.9454 411.059 88.8854C409.809 88.8254 408.379 88.7754 406.769 88.7554C405.159 88.7254 403.509 88.7154 401.819 88.7154C400.129 88.7154 398.699 88.7154 397.509 88.6754C396.519 88.6354 395.809 88.4754 395.389 88.1854C394.969 87.8954 394.629 87.5454 394.369 87.1154C394.319 87.0154 394.279 86.9054 394.229 86.8054C394.029 86.3654 393.999 85.8654 394.129 85.3254C394.259 84.7854 394.669 84.1854 395.359 83.5454C396.749 82.3454 398.539 80.9954 400.749 79.5254C402.949 78.0554 405.299 76.5654 407.799 75.0754C409.239 74.1954 410.689 73.3354 412.149 72.4854C413.609 71.6354 414.989 70.8354 416.309 70.0754C417.619 69.3154 418.849 68.6254 419.979 67.9954C421.139 67.3854 422.119 66.8754 422.939 66.4854Z" fill="#243645"/>
<path d="M402.139 115.535C401.729 114.785 401.629 114.205 401.839 113.795C402.049 113.375 402.399 113.065 402.909 112.865C403.419 112.665 403.999 112.535 404.649 112.485C405.299 112.435 405.859 112.385 406.329 112.345C406.519 112.325 407.019 112.285 407.849 112.225C408.679 112.165 409.629 112.105 410.709 112.035C411.789 111.965 412.879 111.905 413.999 111.855C415.109 111.805 416.049 111.775 416.809 111.775C418.159 111.745 419.639 111.765 421.249 111.875C422.859 111.975 424.509 112.175 426.199 112.485C427.889 112.785 429.589 113.255 431.289 113.905C432.989 114.545 434.589 115.405 436.089 116.475C436.839 117.005 437.579 117.645 438.299 118.385C439.029 119.125 439.689 119.935 440.299 120.805C440.909 121.675 441.409 122.595 441.829 123.545C442.239 124.495 442.499 125.435 442.589 126.335C442.759 127.675 442.559 128.805 442.019 129.735C441.469 130.655 440.689 131.405 439.689 131.985C438.689 132.565 437.509 132.985 436.149 133.275C434.799 133.555 433.409 133.735 431.979 133.815C430.459 133.925 428.719 133.915 426.769 133.795C424.819 133.675 422.809 133.545 420.749 133.405C419.379 133.315 417.939 133.205 416.439 133.075C414.939 132.945 413.429 132.855 411.909 132.795C410.389 132.735 408.879 132.685 407.389 132.655C405.899 132.625 404.499 132.635 403.169 132.685C402.649 132.765 402.319 132.775 402.179 132.725C402.039 132.675 401.779 132.445 401.399 132.045C400.849 131.505 400.589 130.805 400.599 129.935C400.609 129.065 400.709 128.305 400.909 127.685C401.039 127.265 401.479 126.915 402.239 126.635C402.989 126.355 403.919 126.125 405.009 125.935C406.109 125.755 407.299 125.625 408.599 125.555C409.899 125.485 411.169 125.455 412.419 125.445C413.669 125.435 414.809 125.435 415.859 125.445C416.909 125.455 417.709 125.465 418.269 125.475C418.009 123.915 417.709 122.355 417.369 120.775C417.029 119.195 416.709 117.695 416.409 116.255C415.959 116.235 415.329 116.235 414.499 116.275C413.669 116.315 412.759 116.345 411.759 116.385C410.759 116.425 409.739 116.465 408.719 116.515C407.689 116.565 406.759 116.605 405.909 116.645C405.349 116.655 404.869 116.665 404.479 116.685C404.089 116.705 403.749 116.685 403.459 116.645C403.169 116.605 402.919 116.495 402.709 116.335C402.489 116.125 402.309 115.875 402.139 115.535ZM421.409 125.565C422.019 125.695 423.039 125.805 424.469 125.915C425.899 126.015 427.449 126.065 429.099 126.045C430.159 126.035 431.239 125.985 432.319 125.905C433.409 125.825 434.379 125.685 435.229 125.495C436.079 125.295 436.769 125.015 437.269 124.645C437.779 124.275 437.999 123.815 437.929 123.265C437.829 122.675 437.429 122.065 436.759 121.455C436.079 120.845 435.219 120.275 434.189 119.745C433.149 119.215 431.989 118.735 430.689 118.305C429.389 117.875 428.079 117.525 426.739 117.245C425.399 116.965 424.089 116.745 422.819 116.575C421.549 116.405 420.419 116.335 419.449 116.355C419.459 116.435 419.559 116.895 419.739 117.745C419.919 118.595 420.119 119.535 420.339 120.575C420.559 121.615 420.769 122.615 420.959 123.585C421.169 124.555 421.309 125.215 421.409 125.565Z" fill="#243645"/>
<path d="M420.249 146.055C421.179 146.545 422.259 147.135 423.499 147.825C424.729 148.515 425.979 149.285 427.239 150.125C428.499 150.965 429.729 151.835 430.939 152.735C432.149 153.635 433.199 154.515 434.089 155.365C434.939 156.335 435.329 157.395 435.259 158.525C435.199 159.405 434.819 160.065 434.129 160.505C433.769 160.705 433.409 160.855 433.059 160.965C432.709 161.075 432.319 161.075 431.889 160.955C431.709 160.905 431.529 160.825 431.369 160.715C431.209 160.605 431.019 160.485 430.809 160.345C429.569 159.425 428.229 158.405 426.759 157.285C425.289 156.165 423.819 155.125 422.339 154.145C421.469 153.575 420.709 153.105 420.069 152.725C419.429 152.355 418.749 151.885 418.029 151.335C417.389 150.835 416.579 150.445 415.599 150.155C414.619 149.865 413.539 149.635 412.369 149.465C411.349 149.315 410.299 149.215 409.199 149.145C408.099 149.075 407.039 149.025 406.009 148.995C404.979 148.965 403.989 148.935 403.049 148.905C402.109 148.875 401.299 148.825 400.629 148.765C400.539 148.755 400.449 148.745 400.349 148.735C399.459 148.615 398.689 148.395 398.029 148.065C397.369 147.735 397.049 147.155 397.049 146.295C397.049 146.125 397.079 145.865 397.139 145.535C397.289 144.685 397.539 144.035 397.899 143.565C398.259 143.105 398.699 142.755 399.209 142.545C399.359 142.485 399.819 142.445 400.569 142.435C401.319 142.425 402.229 142.425 403.299 142.445C404.369 142.465 405.519 142.515 406.749 142.595C407.989 142.675 409.179 142.775 410.329 142.865C411.469 142.955 412.499 143.045 413.399 143.125C414.299 143.205 414.939 143.275 415.309 143.315C415.619 143.085 415.929 142.845 416.249 142.605C416.569 142.355 416.939 142.165 417.369 142.025C417.769 141.915 418.319 141.785 419.009 141.615C419.699 141.445 420.459 141.265 421.299 141.055C422.129 140.845 422.989 140.635 423.889 140.425C424.779 140.205 425.649 139.995 426.479 139.795C427.309 139.585 428.069 139.405 428.769 139.245C429.459 139.085 430.029 138.945 430.459 138.855C430.919 138.765 431.299 138.645 431.589 138.505C431.879 138.365 432.149 138.315 432.399 138.345C432.739 138.395 433.119 138.705 433.509 139.275C433.719 139.805 433.829 140.285 433.839 140.705C433.859 141.255 433.739 141.725 433.499 142.115C433.259 142.505 432.949 142.835 432.579 143.075C432.209 143.315 431.809 143.515 431.369 143.665C430.939 143.815 430.529 143.935 430.159 144.035C429.599 144.185 429.019 144.325 428.419 144.465C427.809 144.605 427.239 144.715 426.699 144.805C426.159 144.895 425.669 144.975 425.239 145.045C424.809 145.115 424.489 145.175 424.309 145.225C423.879 145.315 423.429 145.395 422.959 145.455C422.499 145.525 422.059 145.585 421.659 145.645C421.259 145.695 420.929 145.755 420.679 145.815C420.429 145.915 420.289 145.985 420.249 146.055Z" fill="#243645"/>
<path d="M392.689 160.085C392.709 159.955 392.769 159.775 392.879 159.545C393.099 159.045 393.369 158.705 393.719 158.515C394.069 158.325 394.429 158.315 394.819 158.495C394.849 158.505 394.879 158.525 394.899 158.535C395.139 158.685 395.289 158.865 395.359 159.095C395.429 159.325 395.459 159.595 395.439 159.905C395.419 160.215 395.379 160.575 395.309 160.975C395.239 161.375 395.189 161.785 395.169 162.205C395.159 162.455 395.199 162.745 395.279 163.075C395.359 163.405 395.479 163.745 395.629 164.075C395.779 164.405 395.969 164.715 396.189 165.005C396.409 165.285 396.649 165.515 396.909 165.695C397.109 165.835 397.309 165.975 397.509 166.095C397.709 166.215 397.909 166.335 398.129 166.455C399.239 167.055 400.309 167.425 401.349 167.555C402.389 167.685 403.359 167.765 404.259 167.795C404.399 167.795 404.529 167.785 404.669 167.785C405.779 167.815 406.839 167.715 407.859 167.505C408.879 167.295 409.919 167.025 410.959 166.705C411.999 166.385 413.069 166.055 414.169 165.705C415.269 165.355 416.459 165.035 417.739 164.725C418.699 164.495 419.699 164.365 420.749 164.345C421.799 164.325 422.869 164.415 423.959 164.605C425.049 164.795 426.129 165.075 427.199 165.445C428.269 165.815 429.279 166.275 430.229 166.845C430.529 167.025 430.829 167.195 431.119 167.375C431.419 167.555 431.699 167.765 431.969 168.025C432.829 168.735 433.579 169.555 434.209 170.505C434.839 171.455 435.299 172.485 435.579 173.605C435.859 174.715 435.939 175.925 435.809 177.215C435.679 178.495 435.299 179.835 434.669 181.215C434.249 182.135 433.699 183.085 433.019 184.065C431.949 185.575 430.969 186.525 430.119 186.945C429.259 187.365 428.649 187.415 428.269 187.125C427.769 186.735 427.769 186.055 428.269 185.065C428.599 184.405 429.109 183.755 429.799 183.115C430.169 182.785 430.479 182.435 430.739 182.075C430.999 181.715 431.209 181.365 431.359 181.025C431.989 179.675 432.009 178.355 431.419 177.105C430.839 175.845 429.939 174.715 428.749 173.705C428.629 173.585 428.499 173.465 428.339 173.365C428.179 173.265 428.019 173.155 427.859 173.055C427.139 172.595 426.389 172.235 425.589 171.965C424.789 171.695 423.999 171.485 423.209 171.335C422.419 171.185 421.659 171.095 420.939 171.075C420.219 171.055 419.589 171.105 419.039 171.205C417.619 171.435 416.219 171.735 414.849 172.105C413.479 172.475 412.119 172.825 410.779 173.165C409.439 173.505 408.109 173.755 406.799 173.945C405.489 174.125 404.189 174.185 402.909 174.125C401.119 174.035 399.359 173.435 397.589 172.375C396.459 171.695 395.449 170.875 394.559 169.915C393.769 169.045 393.129 168.095 392.659 167.055C392.189 166.015 391.959 164.905 391.989 163.705C391.959 163.115 391.979 162.505 392.029 161.865C392.089 161.225 392.209 160.575 392.389 159.925C392.509 159.965 392.599 160.025 392.689 160.085Z" fill="#243645"/>
<path d="M124.379 598.946C124.389 602.796 123.889 605.406 122.879 606.766C121.869 608.126 120.599 608.635 119.049 608.285C115.879 607.725 113.519 606.406 111.989 604.316C110.459 602.226 109.889 599.685 110.269 596.675C110.569 594.385 110.899 591.925 111.279 589.285C111.659 586.645 112.049 584.006 112.469 581.376C112.879 578.736 113.289 576.195 113.679 573.735C114.069 571.275 114.429 569.056 114.759 567.066L116.199 555.915C115.509 555.605 114.669 555.406 113.659 555.316C112.649 555.226 111.509 555.186 110.239 555.196C108.969 555.216 107.599 555.236 106.139 555.266C104.679 555.296 103.199 555.245 101.689 555.125C101.519 555.905 101.289 557.216 101.019 559.076C100.739 560.936 100.439 563.016 100.099 565.336C99.7589 567.656 99.4289 570.095 99.0989 572.675C98.7689 575.245 98.4489 577.686 98.1589 579.966C97.8589 582.256 97.6189 584.255 97.4389 585.975C97.2489 587.695 97.1189 588.876 97.0389 589.526C96.7689 591.596 96.2789 593.175 95.5589 594.235C94.8389 595.305 94.0189 595.996 93.1089 596.316C92.1989 596.636 91.2189 596.636 90.1689 596.316C89.1189 595.996 88.1289 595.526 87.1889 594.896C86.2489 594.266 85.4189 593.536 84.6889 592.716C83.9589 591.896 83.4889 591.146 83.2889 590.466C83.1789 590.166 83.1689 589.436 83.2489 588.276C83.3289 587.126 83.4589 585.686 83.6389 583.966C83.8289 582.246 84.0589 580.295 84.3389 578.115C84.6189 575.935 84.9189 573.665 85.2189 571.305C85.5689 568.585 85.9589 565.855 86.3889 563.115C86.8189 560.375 87.1889 557.895 87.5189 555.685C87.8389 553.475 88.1189 551.615 88.3489 550.125C88.5789 548.625 88.7089 547.736 88.7489 547.456C89.7489 540.826 90.7489 534.235 91.7489 527.675C92.7389 521.115 93.6989 514.595 94.6089 508.095C94.7789 506.805 95.1689 505.585 95.7889 504.435C96.4089 503.285 97.1689 502.485 98.0589 502.055C98.9489 501.625 99.9189 501.716 100.969 502.326C102.019 502.936 103.089 504.365 104.179 506.615C104.809 507.935 105.299 509.305 105.659 510.735C106.019 512.165 106.209 513.355 106.229 514.295C106.229 519.385 105.809 524.395 104.989 529.345C104.169 534.295 103.579 539.246 103.229 544.216C103.199 545.016 103.829 545.585 105.129 545.935C106.419 546.285 107.919 546.515 109.599 546.625C111.289 546.735 112.929 546.786 114.519 546.776C116.109 546.766 117.189 546.835 117.749 546.975L123.849 512.435C124.279 511.325 125.059 510.626 126.179 510.336C127.299 510.046 128.489 510.106 129.739 510.526C130.989 510.946 132.179 511.655 133.319 512.675C134.449 513.695 135.249 514.965 135.709 516.475C135.739 516.775 135.629 518.246 135.359 520.896C135.089 523.556 134.689 526.895 134.169 530.935C133.649 534.975 133.049 539.456 132.369 544.386C131.689 549.316 131.009 554.166 130.319 558.946C129.379 565.656 128.389 572.326 127.349 578.946C126.319 585.566 125.319 592.236 124.379 598.946Z" fill="#243645"/>
<path d="M137.249 597.235C135.599 597.605 134.429 597.396 133.729 596.616C133.029 595.836 132.619 594.796 132.499 593.516C132.379 592.226 132.429 590.836 132.659 589.336C132.889 587.836 133.079 586.555 133.209 585.485C133.269 585.055 133.429 583.896 133.709 582.006C133.989 580.116 134.309 577.935 134.659 575.475C135.009 573.015 135.369 570.515 135.739 567.985C136.099 565.455 136.429 563.336 136.729 561.626C137.199 558.566 137.809 555.265 138.559 551.725C139.309 548.185 140.209 544.616 141.259 541.006C142.309 537.396 143.599 533.876 145.139 530.446C146.679 527.016 148.499 523.906 150.599 521.126C151.649 519.736 152.859 518.415 154.219 517.175C155.579 515.935 157.029 514.855 158.569 513.925C160.109 512.995 161.689 512.296 163.309 511.816C164.929 511.336 166.499 511.196 167.999 511.386C170.219 511.606 172.079 512.535 173.579 514.175C175.069 515.825 176.269 517.925 177.179 520.475C178.079 523.025 178.729 525.925 179.109 529.175C179.489 532.425 179.679 535.716 179.679 539.066C179.729 542.636 179.509 546.656 179.039 551.136C178.569 555.616 178.029 560.216 177.419 564.936C177.009 568.086 176.529 571.366 175.979 574.776C175.429 578.196 174.909 581.656 174.419 585.146C173.929 588.646 173.439 592.105 172.969 595.535C172.489 598.965 172.079 602.216 171.759 605.306C171.749 606.546 171.659 607.316 171.519 607.616C171.369 607.926 170.819 608.416 169.859 609.086C168.569 610.076 167.029 610.335 165.239 609.845C163.449 609.355 161.949 608.715 160.749 607.905C159.949 607.365 159.409 606.156 159.149 604.266C158.879 602.376 158.779 600.126 158.819 597.516C158.869 594.906 159.049 592.096 159.369 589.086C159.689 586.076 160.029 583.136 160.399 580.276C160.769 577.416 161.109 574.786 161.419 572.396C161.729 570.006 161.969 568.156 162.139 566.876C159.189 566.636 156.219 566.436 153.219 566.266C150.219 566.096 147.359 565.875 144.639 565.595C144.439 566.585 144.219 568.035 143.969 569.925C143.719 571.815 143.439 573.906 143.099 576.196C142.769 578.476 142.429 580.795 142.089 583.155C141.749 585.505 141.419 587.646 141.099 589.566C140.859 590.846 140.669 591.926 140.519 592.816C140.369 593.706 140.179 594.466 139.949 595.086C139.719 595.706 139.409 596.195 138.999 596.545C138.569 596.875 137.989 597.105 137.249 597.235ZM163.159 559.706C163.549 558.376 163.989 556.085 164.479 552.845C164.969 549.605 165.359 546.076 165.629 542.256C165.799 539.806 165.909 537.316 165.939 534.776C165.979 532.236 165.889 529.936 165.689 527.876C165.479 525.816 165.099 524.116 164.549 522.766C163.999 521.426 163.249 520.686 162.329 520.566C161.319 520.506 160.239 521.096 159.099 522.326C157.959 523.556 156.839 525.215 155.729 527.285C154.619 529.355 153.549 531.746 152.509 534.446C151.469 537.146 150.529 539.936 149.679 542.806C148.829 545.676 148.069 548.505 147.379 551.285C146.689 554.065 146.209 556.565 145.919 558.785C146.059 558.805 146.919 558.876 148.509 559.016C150.089 559.146 151.859 559.266 153.809 559.376C155.759 559.486 157.639 559.575 159.439 559.665C161.259 559.745 162.489 559.766 163.159 559.706Z" fill="#243645"/>
<path d="M184.459 615.776C184.099 615.216 183.859 614.116 183.739 612.466C183.629 610.816 183.619 608.766 183.719 606.306C183.819 603.846 183.979 601.086 184.189 598.026C184.399 594.966 184.619 591.736 184.839 588.356C185.039 585.116 185.279 581.766 185.539 578.306C185.809 574.856 186.059 571.486 186.299 568.206C186.539 564.926 186.789 561.766 187.039 558.706C187.289 555.646 187.509 552.856 187.689 550.336C187.769 549.186 187.859 547.576 187.989 545.526C188.109 543.466 188.239 541.216 188.379 538.766C188.519 536.316 188.699 533.796 188.919 531.206C189.149 528.616 189.449 526.256 189.839 524.126C190.219 521.996 190.659 520.196 191.139 518.736C191.619 517.276 192.239 516.406 192.999 516.146C194.289 515.736 195.719 515.606 197.299 515.776C198.879 515.946 200.469 516.276 202.079 516.776C209.569 518.986 214.789 522.316 217.739 526.766C220.689 531.216 221.889 536.386 221.349 542.276C220.949 545.926 219.939 549.216 218.329 552.136C216.719 555.056 214.839 557.646 212.689 559.906C210.539 562.176 208.319 564.066 206.009 565.586C203.699 567.106 201.729 568.306 200.089 569.176C200.019 569.676 199.959 570.176 199.899 570.676C199.829 571.176 199.789 572.076 199.769 573.386C199.719 573.746 199.619 575.096 199.459 577.436C199.299 579.776 199.079 582.586 198.809 585.856C198.529 589.126 198.229 592.616 197.889 596.316C197.559 600.016 197.219 603.446 196.889 606.596C196.549 609.756 196.259 612.406 196.019 614.556C195.779 616.706 195.609 617.846 195.519 617.976C194.929 618.626 194.099 619.006 193.029 619.126C191.959 619.246 190.859 619.176 189.729 618.916C188.599 618.656 187.539 618.266 186.559 617.746C185.569 617.216 184.829 616.636 184.329 615.986L184.459 615.776ZM203.929 558.006C206.169 555.896 207.969 553.336 209.339 550.316C210.709 547.296 211.629 544.256 212.099 541.186C212.409 539.336 212.479 537.516 212.319 535.706C212.149 533.906 211.699 532.206 210.959 530.626C210.219 529.036 209.149 527.646 207.739 526.446C206.329 525.246 204.549 524.286 202.389 523.576C202.349 523.866 202.309 524.786 202.249 526.336C202.189 527.896 202.129 529.806 202.049 532.086C201.969 534.366 201.879 536.876 201.779 539.626C201.679 542.376 201.569 545.046 201.449 547.656C201.329 550.256 201.219 552.656 201.119 554.866C201.009 557.066 200.919 558.786 200.839 560.006C201.229 559.766 201.759 559.456 202.429 559.066C203.099 558.676 203.599 558.326 203.929 558.006Z" fill="#243645"/>
<path d="M223.059 620.776C222.699 620.216 222.459 619.116 222.339 617.466C222.229 615.816 222.219 613.766 222.319 611.306C222.419 608.846 222.579 606.086 222.789 603.026C222.999 599.966 223.219 596.736 223.439 593.356C223.639 590.116 223.869 586.766 224.139 583.306C224.399 579.856 224.659 576.486 224.899 573.206C225.139 569.926 225.389 566.766 225.639 563.706C225.889 560.646 226.109 557.866 226.289 555.336C226.369 554.186 226.459 552.576 226.589 550.526C226.709 548.466 226.839 546.216 226.979 543.766C227.119 541.316 227.299 538.796 227.519 536.206C227.749 533.616 228.049 531.256 228.439 529.126C228.829 526.996 229.259 525.196 229.739 523.736C230.219 522.276 230.839 521.406 231.599 521.146C232.889 520.736 234.319 520.606 235.899 520.776C237.479 520.946 239.069 521.276 240.679 521.776C248.169 523.986 253.389 527.316 256.339 531.766C259.289 536.216 260.489 541.386 259.949 547.276C259.549 550.926 258.539 554.216 256.929 557.136C255.319 560.056 253.439 562.646 251.289 564.906C249.139 567.176 246.919 569.066 244.609 570.586C242.299 572.106 240.329 573.306 238.689 574.176C238.619 574.676 238.559 575.176 238.499 575.676C238.429 576.176 238.389 577.076 238.369 578.386C238.319 578.746 238.219 580.096 238.059 582.436C237.899 584.776 237.679 587.586 237.399 590.856C237.119 594.126 236.819 597.616 236.479 601.316C236.149 605.016 235.809 608.446 235.479 611.596C235.139 614.756 234.849 617.406 234.609 619.556C234.369 621.706 234.199 622.846 234.109 622.976C233.519 623.626 232.689 624.006 231.619 624.126C230.549 624.246 229.449 624.176 228.319 623.916C227.189 623.656 226.129 623.266 225.149 622.746C224.159 622.216 223.419 621.626 222.919 620.986L223.059 620.776ZM242.539 563.006C244.779 560.896 246.579 558.336 247.949 555.316C249.319 552.296 250.239 549.256 250.709 546.186C251.019 544.336 251.089 542.506 250.929 540.706C250.759 538.906 250.309 537.206 249.569 535.626C248.829 534.036 247.759 532.646 246.349 531.446C244.939 530.246 243.159 529.286 240.999 528.576C240.959 528.866 240.919 529.786 240.859 531.336C240.799 532.896 240.739 534.806 240.659 537.086C240.579 539.366 240.489 541.886 240.389 544.626C240.289 547.376 240.179 550.046 240.059 552.656C239.939 555.256 239.829 557.656 239.729 559.866C239.629 562.066 239.529 563.786 239.449 565.006C239.839 564.766 240.369 564.456 241.039 564.066C241.699 563.676 242.199 563.326 242.539 563.006Z" fill="#243645"/>
<path d="M277.239 565.536C278.169 563.476 279.249 561.076 280.479 558.326C281.719 555.576 283.049 552.806 284.469 550.016C285.899 547.226 287.329 544.466 288.779 541.746C290.229 539.026 291.629 536.666 292.979 534.656C294.539 532.746 296.279 531.926 298.209 532.176C299.709 532.366 300.899 533.286 301.779 534.926C302.179 535.776 302.499 536.616 302.759 537.456C303.009 538.286 303.079 539.206 302.949 540.206C302.889 540.636 302.789 541.036 302.629 541.416C302.469 541.796 302.289 542.226 302.079 542.706C300.689 545.576 299.089 548.696 297.269 552.056C295.449 555.416 293.709 558.776 292.039 562.116C291.059 564.096 290.229 565.806 289.579 567.246C288.919 568.686 288.089 570.216 287.079 571.826C286.169 573.236 285.439 575.066 284.899 577.326C284.349 579.586 283.899 582.066 283.549 584.786C283.239 587.146 282.999 589.606 282.809 592.156C282.619 594.716 282.469 597.196 282.329 599.616C282.199 602.036 282.059 604.346 281.919 606.546C281.779 608.746 281.609 610.636 281.409 612.206L281.329 612.846C280.989 614.906 280.429 616.676 279.659 618.136C278.889 619.596 277.599 620.216 275.799 619.976C275.439 619.926 274.909 619.786 274.209 619.556C272.449 618.966 271.119 618.176 270.229 617.186C269.329 616.196 268.709 615.066 268.359 613.786C268.259 613.406 268.269 612.336 268.389 610.576C268.509 608.806 268.669 606.686 268.879 604.206C269.089 601.726 269.359 599.056 269.699 596.186C270.029 593.326 270.349 590.566 270.659 587.916C270.959 585.266 271.239 582.906 271.469 580.826C271.699 578.746 271.879 577.276 271.989 576.426C271.579 575.646 271.159 574.846 270.719 574.026C270.279 573.206 269.949 572.276 269.719 571.226C269.549 570.256 269.339 568.946 269.089 567.276C268.829 565.606 268.539 563.766 268.219 561.766C267.899 559.766 267.569 557.686 267.229 555.536C266.889 553.386 266.559 551.306 266.239 549.306C265.919 547.306 265.629 545.466 265.369 543.796C265.109 542.126 264.909 540.776 264.749 539.736C264.599 538.626 264.409 537.716 264.179 536.986C263.949 536.266 263.869 535.616 263.939 535.046C264.039 534.256 264.579 533.496 265.549 532.746C266.459 532.426 267.279 532.316 267.989 532.406C268.919 532.526 269.719 532.926 270.399 533.586C271.079 534.256 271.629 535.056 272.049 535.976C272.479 536.906 272.819 537.896 273.079 538.946C273.339 539.996 273.559 540.976 273.739 541.866C273.999 543.206 274.259 544.606 274.509 546.056C274.759 547.506 274.959 548.876 275.119 550.166C275.279 551.456 275.419 552.626 275.549 553.656C275.669 554.686 275.779 555.436 275.869 555.876C276.029 556.916 276.159 557.986 276.279 559.086C276.389 560.196 276.499 561.226 276.589 562.176C276.689 563.136 276.789 563.906 276.889 564.506C276.979 565.106 277.099 565.446 277.239 565.536Z" fill="#243645"/>
<path d="M224.979 504.985C213.329 504.985 201.269 503.945 189.109 501.875C151.189 495.425 100.479 477.625 74.259 429.405C55.049 394.075 60.269 356.535 68.779 321.225C74.369 298.045 81.579 280.705 91.469 266.655C100.379 253.995 111.309 244.265 124.879 236.895C145.289 225.815 170.729 220.205 200.469 220.205C205.029 220.205 209.579 220.335 214.079 220.575C273.369 223.665 372.499 253.585 367.899 346.145C366.129 381.675 356.169 446.365 309.299 480.375C287.099 496.475 257.939 504.985 224.979 504.985Z" fill="#FBD0CF"/>
<path d="M200.469 221.715C204.999 221.715 209.529 221.845 214.009 222.075C279.189 225.465 370.749 258.655 366.399 346.065C363.999 394.325 349.529 449.315 308.419 479.145C284.249 496.685 254.589 503.475 224.979 503.475C212.969 503.475 200.969 502.355 189.359 500.385C142.959 492.505 98.859 471.485 75.589 428.685C56.899 394.315 61.389 358.345 70.249 321.575C75.059 301.635 81.749 283.075 92.709 267.515C100.939 255.825 111.569 245.835 125.609 238.215C148.389 225.855 174.669 221.715 200.469 221.715ZM200.469 218.705C170.469 218.705 144.789 224.385 124.159 235.575C110.379 243.055 99.289 252.935 90.239 265.795C80.229 280.005 72.949 297.515 67.319 320.885C58.739 356.485 53.479 394.355 72.939 430.135C99.449 478.885 150.609 496.865 188.859 503.365C201.099 505.445 213.259 506.495 224.989 506.495C258.279 506.495 287.739 497.885 310.199 481.595C357.579 447.225 367.639 382.025 369.419 346.225C374.079 252.485 274.029 222.195 214.179 219.075C209.509 218.825 204.899 218.705 200.469 218.705Z" fill="#243645"/>
<path d="M130.949 353.935C130.339 358.665 126.009 361.995 121.279 361.385C116.549 360.775 113.219 356.445 113.829 351.715C114.439 346.985 118.769 343.655 123.499 344.265C128.229 344.885 131.559 349.205 130.949 353.935Z" fill="#243645"/>
<path d="M320.539 378.495C319.929 383.225 315.599 386.555 310.869 385.945C306.139 385.335 302.809 381.005 303.419 376.275C304.029 371.545 308.359 368.215 313.089 368.825C317.819 369.435 321.149 373.765 320.539 378.495Z" fill="#243645"/>
<path d="M215.349 383.936C211.769 406.966 208.819 430.096 206.499 453.286" stroke="#243645" stroke-width="3.0137" stroke-miterlimit="10" stroke-linecap="round" stroke-linejoin="round"/>
<path d="M202.599 370.925C202.479 370.255 202.759 369.485 203.389 369.265C203.689 369.165 204.019 369.195 204.329 369.225C212.359 370.095 220.399 370.955 228.429 371.825C229.349 371.925 230.299 372.035 231.079 372.525C235.559 375.305 218.899 384.295 216.319 385.175C211.159 386.935 203.799 375.145 202.639 371.095C202.619 371.035 202.609 370.985 202.599 370.925Z" fill="#243645"/>
<path d="M191.829 441.735C194.639 456.515 217.619 459.725 222.519 445.715" stroke="#243645" stroke-width="3.0137" stroke-miterlimit="10" stroke-linecap="round" stroke-linejoin="round"/>
<path d="M216.739 340.865C216.639 337.385 216.539 333.905 216.439 330.425" stroke="#F7ABB2" stroke-width="3.0137" stroke-miterlimit="10" stroke-linecap="round" stroke-linejoin="round"/>
<path d="M223.349 354.735C223.949 352.625 224.309 350.435 224.419 348.245" stroke="#F7ABB2" stroke-width="3.0137" stroke-miterlimit="10" stroke-linecap="round" stroke-linejoin="round"/>
<path d="M236.949 344.615C238.419 342.105 239.229 339.205 239.279 336.295" stroke="#F7ABB2" stroke-width="3.0137" stroke-miterlimit="10" stroke-linecap="round" stroke-linejoin="round"/>
<path d="M230.229 325.505C230.889 322.735 231.319 319.905 231.519 317.055" stroke="#F7ABB2" stroke-width="3.0137" stroke-miterlimit="10" stroke-linecap="round" stroke-linejoin="round"/>
<path d="M205.209 342.775C205.239 344.875 205.279 346.985 205.309 349.085" stroke="#F7ABB2" stroke-width="3.0137" stroke-miterlimit="10" stroke-linecap="round" stroke-linejoin="round"/>
<path d="M201.859 311.885C202.139 314.015 202.409 316.145 202.689 318.285" stroke="#F7ABB2" stroke-width="3.0137" stroke-miterlimit="10" stroke-linecap="round" stroke-linejoin="round"/>
<path d="M220.709 304.396C220.249 306.656 220.049 308.966 220.119 311.276" stroke="#F7ABB2" stroke-width="3.0137" stroke-miterlimit="10" stroke-linecap="round" stroke-linejoin="round"/>
<path d="M247.509 308.206C246.639 310.126 246.039 312.176 245.729 314.266" stroke="#F7ABB2" stroke-width="3.0137" stroke-miterlimit="10" stroke-linecap="round" stroke-linejoin="round"/>
<path d="M209.019 287.985C209.209 289.885 209.389 291.785 209.579 293.695" stroke="#F7ABB2" stroke-width="3.0137" stroke-miterlimit="10" stroke-linecap="round" stroke-linejoin="round"/>
<path d="M238.259 287.635C237.919 290.815 237.169 293.955 236.059 296.945" stroke="#F7ABB2" stroke-width="3.0137" stroke-miterlimit="10" stroke-linecap="round" stroke-linejoin="round"/>
<path d="M259.769 289.936C258.879 293.346 257.979 296.766 257.089 300.176" stroke="#F7ABB2" stroke-width="3.0137" stroke-miterlimit="10" stroke-linecap="round" stroke-linejoin="round"/>
<path d="M195.849 279.005C195.759 281.305 196.139 283.615 196.959 285.765" stroke="#F7ABB2" stroke-width="3.0137" stroke-miterlimit="10" stroke-linecap="round" stroke-linejoin="round"/>
<path d="M211.439 265.465C211.059 267.445 211.139 269.505 211.669 271.455" stroke="#F7ABB2" stroke-width="3.0137" stroke-miterlimit="10" stroke-linecap="round" stroke-linejoin="round"/>
<path d="M255.449 271.505C254.789 273.945 254.429 276.455 254.379 278.985" stroke="#F7ABB2" stroke-width="3.0137" stroke-miterlimit="10" stroke-linecap="round" stroke-linejoin="round"/>
<path d="M234.349 268.105C233.909 270.255 233.729 272.465 233.799 274.655" stroke="#F7ABB2" stroke-width="3.0137" stroke-miterlimit="10" stroke-linecap="round" stroke-linejoin="round"/>
<path d="M195.099 256.885C196.389 259.045 196.829 261.685 196.319 264.145" stroke="#F7ABB2" stroke-width="3.0137" stroke-miterlimit="10" stroke-linecap="round" stroke-linejoin="round"/>
<path d="M223.099 255.936C223.169 258.266 223.059 260.586 222.789 262.896" stroke="#F7ABB2" stroke-width="3.0137" stroke-miterlimit="10" stroke-linecap="round" stroke-linejoin="round"/>
<path d="M248.269 260.575C247.869 262.395 247.459 264.215 247.059 266.025" stroke="#F7ABB2" stroke-width="3.0137" stroke-miterlimit="10" stroke-linecap="round" stroke-linejoin="round"/>
<path d="M272.279 266.965C270.999 269.445 269.719 271.915 268.439 274.395" stroke="#F7ABB2" stroke-width="3.0137" stroke-miterlimit="10" stroke-linecap="round" stroke-linejoin="round"/>
<path d="M266.989 250.375C266.669 252.545 266.059 254.675 265.189 256.685" stroke="#F7ABB2" stroke-width="3.0137" stroke-miterlimit="10" stroke-linecap="round" stroke-linejoin="round"/>
<path d="M284.479 248.906C283.259 250.806 282.339 252.906 281.759 255.096" stroke="#F7ABB2" stroke-width="3.0137" stroke-miterlimit="10" stroke-linecap="round" stroke-linejoin="round"/>
<path d="M254.189 236.545C253.439 238.795 252.699 241.035 251.949 243.285" stroke="#F7ABB2" stroke-width="3.0137" stroke-miterlimit="10" stroke-linecap="round" stroke-linejoin="round"/>
<path d="M233.229 233.355C233.279 236.025 233.319 238.695 233.369 241.365" stroke="#F7ABB2" stroke-width="3.0137" stroke-miterlimit="10" stroke-linecap="round" stroke-linejoin="round"/>
<path d="M208.359 234.345C208.259 237.145 208.169 239.945 208.069 242.745" stroke="#F7ABB2" stroke-width="3.0137" stroke-miterlimit="10" stroke-linecap="round" stroke-linejoin="round"/>
<path d="M186.149 231.465C186.839 234.125 187.259 236.855 187.389 239.595" stroke="#F7ABB2" stroke-width="3.0137" stroke-miterlimit="10" stroke-linecap="round" stroke-linejoin="round"/>
<path d="M213.249 357.585C213.189 359.295 213.119 360.995 213.059 362.705" stroke="#F7ABB2" stroke-width="3.0137" stroke-miterlimit="10" stroke-linecap="round" stroke-linejoin="round"/>
<path d="M329.309 397.485C323.329 396.415 317.199 396.125 311.149 396.635C307.369 396.955 302.609 398.675 302.659 402.465C302.699 405.155 305.289 407.045 307.729 408.195C316.219 412.225 326.229 412.915 335.189 410.105C336.519 409.685 337.909 409.135 338.719 407.995C339.969 406.245 339.339 403.685 337.889 402.105C336.439 400.525 334.359 399.695 332.369 398.915" fill="#F7ABB2"/>
<path d="M116.959 369.985C110.979 368.915 104.849 368.625 98.7989 369.135C95.0189 369.455 90.2589 371.175 90.3089 374.965C90.3489 377.655 92.9389 379.545 95.3789 380.695C103.869 384.725 113.879 385.415 122.839 382.605C124.169 382.185 125.559 381.635 126.369 380.495C127.619 378.745 126.989 376.185 125.539 374.605C124.089 373.025 122.009 372.195 120.019 371.415" fill="#F7ABB2"/>
<path d="M80.8789 235.265C80.7289 235.265 80.5689 235.245 80.4189 235.195C66.6689 230.785 59.3689 224.525 50.1189 216.595L48.7589 215.435C39.7789 207.755 28.9889 197.145 25.1989 183.225C23.9889 178.785 22.6889 170.475 27.6089 164.715C30.2989 161.565 34.4189 159.835 39.2189 159.835C42.2689 159.835 45.3289 160.535 48.0789 161.865C52.8889 164.175 55.8689 167.125 59.4989 171.285C58.1989 163.035 59.0889 155.235 62.0589 150.035C64.1389 146.395 67.0989 144.045 70.8589 143.045C71.9589 142.755 73.0689 142.605 74.1689 142.605C85.5789 142.605 94.0289 158.645 94.4889 173.045C95.1389 193.675 90.9089 214.885 82.2589 234.385C82.0089 234.925 81.4589 235.265 80.8789 235.265Z" fill="#F37C89"/>
<path d="M74.169 144.085C84.769 144.085 92.559 159.705 92.979 173.065C93.619 193.415 89.389 214.575 80.879 233.745C66.779 229.225 59.829 222.895 49.749 214.275C39.869 205.815 30.179 195.695 26.659 182.815C25.079 177.035 24.8689 170.235 28.7589 165.675C31.3289 162.665 35.219 161.315 39.219 161.315C42.039 161.315 44.9089 161.975 47.4289 163.195C53.5089 166.135 56.599 170.225 62.249 176.765C58.389 163.015 60.299 147.385 71.249 144.465C72.239 144.215 73.219 144.085 74.169 144.085ZM74.169 141.075C72.939 141.075 71.699 141.245 70.469 141.565C66.359 142.655 62.999 145.325 60.749 149.265C58.139 153.835 57.029 160.025 57.469 166.845C54.929 164.285 52.289 162.195 48.729 160.485C45.779 159.065 42.489 158.305 39.219 158.305C33.969 158.305 29.4389 160.225 26.4589 163.715C22.4789 168.375 21.519 175.435 23.739 183.605C27.649 197.935 38.639 208.745 47.779 216.565L49.139 217.735C58.509 225.775 65.919 232.125 79.949 236.625C80.249 236.725 80.5589 236.765 80.8689 236.765C82.0289 236.765 83.1289 236.085 83.6189 234.975C92.3689 215.275 96.639 193.835 95.979 172.975C95.509 157.575 86.619 141.075 74.169 141.075Z" fill="#243645"/>
<path d="M92.979 173.076C92.519 158.516 83.309 141.265 71.249 144.485C71.199 144.495 71.169 144.516 71.119 144.536C74.809 150.086 77.779 156.135 79.699 162.525C83.949 176.675 82.989 192.015 74.669 204.525C71.189 209.765 66.839 214.715 61.069 217.465C59.249 218.335 57.369 218.866 55.469 219.186C62.869 225.376 69.579 230.155 80.869 233.775C89.389 214.585 93.629 193.426 92.979 173.076Z" fill="#EBCBD1"/>
<path d="M366.399 346.065C367.689 320.165 360.559 299.035 348.189 282.025C352.309 304.045 352.849 326.735 349.759 348.915C345.649 378.415 334.959 407.195 317.249 431.255C299.229 455.745 273.699 475.735 244.179 483.965C213.689 492.455 180.909 489.205 151.209 479.135C125.219 470.325 100.719 456.085 80.699 437.205C104.959 474.305 146.159 493.035 189.369 500.375C229.619 507.215 274.459 503.785 308.429 479.135C349.529 449.325 363.999 394.335 366.399 346.065Z" fill="#ECD3D5"/>
</svg>
