<svg width="296" height="453" viewBox="0 0 296 453" fill="none" xmlns="http://www.w3.org/2000/svg">
<path d="M287.142 56.7119C286.472 51.3619 283.762 46.5919 279.502 43.2819C277.022 41.3519 274.192 40.0519 271.202 39.4319C273.702 33.5219 273.352 26.5119 269.642 20.6919C264.512 12.6419 254.592 9.46187 245.922 12.4919C245.232 12.1219 244.522 11.7819 243.812 11.4619C243.102 9.99187 242.202 8.59186 241.132 7.30186C237.682 3.15186 232.822 0.581863 227.402 0.0818626C219.392 -0.638137 212.022 3.45187 208.182 9.96187C207.202 10.0319 206.222 10.1719 205.242 10.3819C200.102 11.4819 195.522 14.6219 192.622 19.0519C189.712 23.5019 188.682 28.9719 189.732 34.1419C188.332 34.6819 186.962 35.3819 185.662 36.2519C185.002 36.7019 184.372 37.1819 183.782 37.6919C182.482 34.4819 180.342 31.5719 177.412 29.3119C172.722 25.7019 166.942 24.4619 161.522 25.4319C159.342 20.9119 155.622 17.4119 150.982 15.5319C145.972 13.4819 140.472 13.5119 135.492 15.6219C135.192 15.7519 134.892 15.8819 134.602 16.0219C132.702 13.2119 130.112 10.8719 127.062 9.31187C122.312 6.87187 116.702 6.42186 111.642 8.05186C103.632 10.6319 98.3223 17.7819 97.6923 25.7119C96.3323 26.4419 94.9923 27.2219 93.6823 28.0619C90.8023 26.9519 87.6823 26.5119 84.5223 26.8019C79.1623 27.3119 74.3124 29.8619 70.8624 34.0119C65.4324 40.5519 64.8423 49.5319 68.6723 56.5819C68.6423 56.6319 68.6223 56.6919 68.5923 56.7419C63.1123 57.3819 57.9123 60.2419 54.4623 65.0819C49.3823 72.2219 49.6124 81.5819 54.3724 88.3919C51.5024 91.0219 49.3523 94.5119 48.3823 98.5819C46.6223 105.982 49.2023 113.422 54.4623 118.222C53.5923 119.322 52.8223 120.532 52.1823 121.832C50.9623 124.302 50.3023 126.912 50.1423 129.512C46.2623 127.782 41.8923 127.412 37.7523 128.502L36.3923 128.862C36.0223 128.952 35.6523 129.072 35.2923 129.182L33.9523 129.622C26.7223 131.992 21.8524 138.362 21.1024 145.542C17.3724 145.532 13.7123 146.562 10.4623 148.582C5.87234 151.432 2.66232 155.892 1.44232 161.132C0.202324 166.392 1.09231 171.812 3.93231 176.402C4.31231 177.022 4.72229 177.612 5.16229 178.172C3.15229 180.412 1.66231 183.092 0.802309 186.062C-0.697691 191.242 -0.0777202 196.702 2.52228 201.422C4.25228 204.552 6.70233 207.072 9.57233 208.852C9.16233 210.082 8.86232 211.352 8.69232 212.662C7.98232 218.012 9.39229 223.332 12.6623 227.602C14.7423 230.322 17.4024 232.402 20.3624 233.752C19.4624 240.402 21.8823 247.352 27.3923 251.962C30.9223 254.922 35.3123 256.552 39.8123 256.682C41.5823 262.092 45.6023 266.732 51.2623 269.092C54.4623 270.422 57.9823 270.902 61.4023 270.492C62.0023 271.872 62.7623 273.192 63.6723 274.432C66.8523 278.762 71.5224 281.592 76.8524 282.422C71.4024 289.612 67.8024 301.382 74.4824 319.892L75.1024 321.662C78.3024 330.792 84.1724 347.512 99.3724 352.172C100.872 355.832 102.372 359.432 103.872 362.922C111.832 381.472 120.722 399.882 130.292 417.682C130.792 418.602 131.302 419.552 131.842 420.522C132.422 421.562 133.022 422.622 133.652 423.662C134.462 425.062 135.342 426.482 136.352 428.012C136.402 428.082 136.442 428.152 136.492 428.222C137.272 429.382 138.052 430.462 138.832 431.502C142.942 436.982 147.342 441.222 152.282 444.472C152.292 444.472 152.292 444.482 152.302 444.482C152.342 444.512 152.382 444.532 152.412 444.552C153.432 445.212 154.492 445.842 155.652 446.482C168.772 453.592 183.112 452.912 194.142 451.532C203.932 450.302 213.942 448.312 223.902 445.612C233.872 442.902 244.242 439.352 254.742 435.052C261.012 432.472 280.092 424.642 287.302 403.962C288.082 401.682 288.712 399.282 289.182 396.692C289.862 392.872 290.382 388.992 290.752 385.122C290.992 382.512 291.172 379.772 291.292 376.892C291.382 374.442 291.422 371.942 291.412 369.432C291.392 363.302 291.062 356.802 290.412 349.592C289.292 337.042 287.632 324.452 285.482 312.162C284.762 308.032 283.982 303.892 283.142 299.752C284.062 298.812 284.942 297.752 285.782 296.542C290.832 289.232 290.432 281.202 290.302 278.572C289.782 267.952 286.922 257.342 282.022 247.882C280.382 244.722 277.952 240.662 273.682 237.222C265.832 230.912 256.932 231.022 254.012 231.052C252.432 231.072 250.832 231.132 249.192 231.242C246.872 226.922 243.072 223.652 238.602 221.942C240.682 217.332 241.042 211.932 239.202 206.802C238.182 203.982 236.592 201.522 234.602 199.502C234.842 199.092 235.062 198.662 235.272 198.232C237.622 193.372 237.932 187.892 236.162 182.802C235.332 180.432 234.072 178.242 232.462 176.352C234.422 176.462 236.412 176.282 238.372 175.802C238.552 175.762 238.732 175.712 238.902 175.662C246.392 173.632 251.722 167.752 253.322 160.722C255.692 160.942 258.112 160.732 260.462 160.102C265.122 158.832 269.172 155.942 271.902 151.922C274.492 148.092 275.582 143.672 275.322 139.372C278.142 138.272 280.692 136.542 282.752 134.322C286.432 130.372 288.352 125.222 288.152 119.822C288.012 115.962 286.802 112.302 284.672 109.182C290.582 105.882 294.552 99.7619 294.982 92.7719C295.532 83.7819 290.082 75.7919 282.112 72.7019C285.902 68.4419 287.882 62.6619 287.142 56.7119Z" fill="white"/>
<path d="M259.572 286.862C261.902 296.372 263.892 305.982 265.572 315.612C267.642 327.472 269.212 339.392 270.282 351.372C270.832 357.412 271.192 363.452 271.202 369.462C271.202 371.702 271.172 373.932 271.092 376.152C270.992 378.512 270.842 380.892 270.622 383.252C270.312 386.552 269.862 389.842 269.282 393.142C269.002 394.642 268.632 396.062 268.182 397.392C264.882 406.842 256.872 412.312 247.062 416.332C229.242 423.632 210.752 429.062 191.632 431.452C182.722 432.572 173.172 432.962 165.272 428.682C164.632 428.332 164.002 427.952 163.392 427.562C159.292 424.862 156.052 421.062 153.252 416.902C152.482 415.732 151.722 414.512 151.022 413.302C149.992 411.572 149.022 409.792 148.072 408.042C148.042 407.992 148.022 407.942 147.992 407.892C138.702 390.632 130.182 372.942 122.442 354.912C119.142 347.202 115.972 339.412 112.952 331.592L184.352 302.242L259.572 286.862Z" fill="#F7CE6D" stroke="#243645" stroke-width="2.819" stroke-miterlimit="10" stroke-linecap="round" stroke-linejoin="round"/>
<path d="M259.572 286.862C261.902 296.372 263.892 305.982 265.572 315.612C262.402 317.992 258.392 319.232 254.602 318.302C249.202 316.982 245.682 311.922 242.692 307.222C240.812 312.292 238.902 317.422 235.552 321.642C232.202 325.862 227.112 329.072 221.742 328.782C214.552 328.422 209.102 322.202 205.642 315.922C205.202 324.322 200.402 332.842 192.542 335.882C184.702 338.912 174.292 334.662 172.322 326.482C170.782 331.222 169.062 335.992 166.022 339.932C163.002 343.882 158.462 346.952 153.482 347.102C146.692 347.272 141.052 342.222 136.172 337.492C137.602 344.602 132.842 352.422 125.872 354.432C124.752 354.752 123.602 354.912 122.442 354.912C119.142 347.202 115.972 339.412 112.952 331.592L184.352 302.242L259.572 286.862Z" fill="#F37C89" stroke="#243645" stroke-width="2.819" stroke-miterlimit="10" stroke-linecap="round" stroke-linejoin="round"/>
<path d="M137.792 351.592C135.042 353.092 135.822 357.412 138.642 358.462C141.172 359.402 144.312 357.032 144.012 354.352C143.712 351.662 140.262 350.382 137.932 351.522C137.882 351.542 137.842 351.572 137.792 351.592Z" fill="#4DBCE7" stroke="#243645" stroke-width="2.819" stroke-miterlimit="10" stroke-linecap="round" stroke-linejoin="round"/>
<path d="M177.123 340.912C180.253 340.812 181.763 344.932 179.863 347.262C178.153 349.352 174.252 348.902 173.152 346.442C172.052 343.962 174.383 341.122 176.963 340.922C177.023 340.912 177.073 340.912 177.123 340.912Z" fill="#4DBCE7" stroke="#243645" stroke-width="2.819" stroke-miterlimit="10" stroke-linecap="round" stroke-linejoin="round"/>
<path d="M212.782 335.252C213.812 338.212 210.342 340.882 207.542 339.772C205.032 338.772 204.292 334.912 206.312 333.122C208.342 331.322 211.762 332.692 212.722 335.102C212.742 335.152 212.762 335.202 212.782 335.252Z" fill="#4DBCE7" stroke="#243645" stroke-width="2.819" stroke-miterlimit="10" stroke-linecap="round" stroke-linejoin="round"/>
<path d="M243.212 326.962C243.812 330.032 248.172 330.582 250.012 328.212C251.672 326.082 250.352 322.372 247.712 321.852C245.052 321.332 242.792 324.242 243.182 326.802C243.192 326.862 243.202 326.912 243.212 326.962Z" fill="#4DBCE7" stroke="#243645" stroke-width="2.819" stroke-miterlimit="10" stroke-linecap="round" stroke-linejoin="round"/>
<path d="M270.632 383.252C270.322 386.552 269.872 389.842 269.292 393.142C269.012 394.642 268.642 396.062 268.192 397.392C250.702 406.492 232.292 413.652 213.312 418.812C197.012 423.242 180.292 426.172 163.402 427.562C159.302 424.862 156.062 421.062 153.262 416.902C194.432 415.002 234.772 403.422 270.632 383.252Z" fill="#4DBCE7" stroke="#243645" stroke-width="2.819" stroke-miterlimit="10" stroke-linecap="round" stroke-linejoin="round"/>
<path d="M271.212 369.472C271.212 371.712 271.182 373.942 271.102 376.162C254.652 386.062 235.512 394.192 214.012 400.422C212.262 400.932 210.522 401.412 208.762 401.892C189.342 407.172 169.782 410.612 151.022 413.312C149.992 411.582 149.022 409.802 148.072 408.052C168.952 405.062 190.862 401.252 212.432 395.002C234.812 388.512 254.522 379.942 271.212 369.472Z" fill="#F37C89" stroke="#243645" stroke-width="2.819" stroke-miterlimit="10" stroke-linecap="round" stroke-linejoin="round"/>
<path d="M241.833 290.492C246.123 307.432 250.983 324.382 251.453 341.952C251.813 355.312 249.262 368.432 242.772 380.202C237.122 390.432 228.902 399.042 219.382 405.752C201.832 418.092 179.813 424.032 158.373 423.312C159.903 424.902 161.552 426.362 163.402 427.582C164.012 427.982 164.642 428.352 165.282 428.702C173.182 432.982 182.732 432.592 191.642 431.472C210.762 429.082 229.243 423.652 247.073 416.352C256.883 412.322 264.902 406.852 268.192 397.412C268.652 396.082 269.022 394.652 269.292 393.162C269.872 389.872 270.323 386.572 270.633 383.272C270.853 380.912 271.003 378.532 271.103 376.172C271.183 373.952 271.212 371.722 271.212 369.482C271.192 363.472 270.842 357.432 270.292 351.392C269.222 339.412 267.653 327.492 265.583 315.632C263.903 306.002 261.913 296.392 259.583 286.882L241.833 290.492Z" fill="#EED8BD"/>
<path d="M118.452 244.542C98.9125 253.782 74.0525 253.332 57.0625 239.982C47.0825 232.142 40.7124 220.782 36.5224 208.982C32.6224 198.022 28.9024 184.152 30.1624 172.452C30.7424 167.042 33.3725 161.562 38.1225 158.932C41.0225 157.322 44.4225 156.912 47.7225 156.582C51.2825 156.222 55.0224 155.952 58.3024 157.372C61.2324 158.642 63.4625 161.112 65.4625 163.602C69.3825 168.492 72.8325 173.762 75.7425 179.312C79.1925 185.892 82.0424 193.062 87.5124 198.092C91.6524 201.902 96.4625 202.982 101.873 202.852C107.853 202.712 108.212 203.672 111.032 209.582C116.252 220.522 119.422 232.422 121.652 244.302L118.452 244.542Z" fill="#67C8C7" stroke="#243645" stroke-width="2.819" stroke-miterlimit="10" stroke-linecap="round" stroke-linejoin="round"/>
<path d="M40.7623 157.812C36.2023 183.252 42.0523 210.602 59.3923 229.762C62.9023 233.642 66.8524 237.252 71.5524 239.552C83.8424 245.582 98.4624 241.722 111.572 237.762" stroke="#243645" stroke-width="2.819" stroke-miterlimit="10" stroke-linecap="round" stroke-linejoin="round"/>
<path d="M43.9224 157.362C48.2524 170.062 53.3223 182.492 58.3823 194.912C60.7023 200.602 63.0224 206.302 65.7124 211.832C66.8424 214.152 68.0624 216.492 69.9224 218.282C72.7024 220.962 76.5824 222.132 80.3724 222.872C89.7724 224.712 99.5824 224.442 108.872 222.092" stroke="#243645" stroke-width="2.819" stroke-miterlimit="10" stroke-linecap="round" stroke-linejoin="round"/>
<path d="M50.1323 156.212C60.2423 166.762 66.9323 180.122 72.4023 193.682C74.4123 198.672 76.5723 204.092 81.1523 206.912C86.9023 210.452 94.2823 208.672 101.012 209.222" stroke="#243645" stroke-width="2.819" stroke-miterlimit="10" stroke-linecap="round" stroke-linejoin="round"/>
<path d="M187.682 104.012C182.392 86.4919 175.382 68.8719 162.582 55.8019C149.782 42.7319 129.982 35.1219 112.682 41.1119C100.592 45.2919 91.2622 55.5419 86.0022 67.2019C80.7422 78.8619 79.1623 91.8619 78.9723 104.642C78.3023 150.292 94.4323 194.332 110.582 237.042C117.322 254.882 124.132 272.762 132.902 289.702L224.262 264.772C206.882 212.592 203.592 156.652 187.682 104.012Z" fill="#67C8C7" stroke="#243645" stroke-width="2.819" stroke-miterlimit="10" stroke-linecap="round" stroke-linejoin="round"/>
<path d="M187.682 104.012C182.392 86.4919 175.382 68.8719 162.582 55.8019C157.952 51.0819 152.412 47.0819 146.402 44.1719C156.072 54.4319 163.612 66.9819 169.432 79.4119C179.382 100.682 183.632 123.472 185.802 146.722C187.562 165.592 188.112 184.202 183.632 202.772C179.712 219.012 172.302 234.552 160.962 246.932C150.852 257.972 137.922 265.792 123.782 270.352C126.612 276.892 129.612 283.362 132.892 289.692L224.252 264.762C206.882 212.592 203.592 156.652 187.682 104.012Z" fill="#B9D2E3"/>
<path d="M147.292 285.002C141.552 268.092 136.052 252.072 130.312 235.162C123.032 213.732 115.752 192.272 110.242 170.312C103.612 143.902 99.5723 116.762 99.4623 89.5318C99.3923 73.5318 100.872 56.8718 109.032 43.1118" stroke="#243645" stroke-width="2.819" stroke-miterlimit="10" stroke-linecap="round" stroke-linejoin="round"/>
<path d="M117.583 40.792C122.433 66.362 126.872 90.372 133.292 115.592C147.202 170.182 168.253 221.872 178.323 277.302" stroke="#243645" stroke-width="2.819" stroke-miterlimit="10" stroke-linecap="round" stroke-linejoin="round"/>
<path d="M208.272 268.432C200.702 219.272 187.633 172.192 174.843 124.212C171.693 112.382 168.523 100.542 165.353 88.7118C162.463 77.9318 158.763 70.0418 154.103 59.8618C151.013 53.1018 142.872 43.3218 136.042 40.3718" stroke="#243645" stroke-width="2.819" stroke-miterlimit="10" stroke-linecap="round" stroke-linejoin="round"/>
<path d="M183.372 164.762C185.192 165.222 187.112 165.212 189.112 164.612C196.212 162.492 203.322 160.452 210.262 157.832C222.702 153.152 234.892 146.932 244.212 137.252C248.262 133.042 251.692 128.262 254.392 123.082C260.222 111.872 262.702 94.9419 260.932 82.4319C258.532 65.5219 253.832 48.3219 242.432 35.1619C231.412 22.4519 215.892 29.6219 209.072 41.4519C199.652 57.8119 209.262 75.7319 206.082 93.1219C202.722 111.532 179.332 106.862 169.602 119.212C161.512 129.502 169.402 161.202 183.372 164.762Z" fill="#67C8C7" stroke="#243645" stroke-width="2.819" stroke-miterlimit="10" stroke-linecap="round" stroke-linejoin="round"/>
<path d="M220.453 31.1719C208.883 53.7119 226.143 83.4019 214.113 105.692C209.693 113.902 201.773 119.782 193.223 123.502C184.673 127.222 175.432 128.992 166.272 130.732" stroke="#243645" stroke-width="2.819" stroke-miterlimit="10" stroke-linecap="round" stroke-linejoin="round"/>
<path d="M223.862 30.2419C225.942 42.3319 228.342 57.3119 229.522 69.5119C230.512 79.7119 231.182 90.032 229.712 100.172C228.242 110.312 224.482 120.352 217.552 127.902C205.652 140.872 186.892 144.382 169.512 147.182" stroke="#243645" stroke-width="2.819" stroke-miterlimit="10" stroke-linecap="round" stroke-linejoin="round"/>
<path d="M225.232 29.3818C231.612 26.9218 235.292 41.3118 236.722 44.9218C247.162 71.2818 257.172 103.142 238.472 128.122C224.362 146.972 200.002 156.762 177.392 160.362" stroke="#243645" stroke-width="2.819" stroke-miterlimit="10" stroke-linecap="round" stroke-linejoin="round"/>
<path d="M240.343 252.612C244.973 251.842 249.623 251.302 254.253 251.242C256.563 251.212 259.053 251.372 261.023 252.952C262.343 254.012 263.273 255.582 264.093 257.172C267.653 264.042 269.753 271.812 270.123 279.532C270.213 281.482 270.163 283.582 269.153 285.042C268.373 286.172 267.142 286.742 265.952 287.232C260.842 289.342 255.473 290.712 250.123 292.072C226.923 297.982 203.283 302.552 180.453 309.562C157.073 316.742 134.293 325.872 110.723 332.432C109.103 332.882 107.413 333.322 105.723 332.922C99.4226 331.422 95.7125 319.152 93.5325 313.102C91.2925 306.872 89.0526 298.102 93.9926 293.432C97.9726 289.682 105.893 288.852 110.823 287.062C134.263 278.522 158.033 270.952 182.193 264.832C194.613 261.692 207.123 258.932 219.733 256.632C226.493 255.412 233.403 253.762 240.343 252.612Z" fill="#4DBCE7" stroke="#243645" stroke-width="2.819" stroke-miterlimit="10" stroke-linecap="round" stroke-linejoin="round"/>
<path d="M264.092 257.172C263.272 255.592 262.342 254.012 261.022 252.952C259.052 251.362 256.562 251.212 254.252 251.242C252.452 251.262 250.652 251.382 248.852 251.532C246.892 261.312 242.392 270.162 235.152 277.302C228.212 284.152 219.642 289.102 210.902 293.302C199.542 298.762 187.792 303.482 175.732 307.162C150.382 314.902 124.072 318.802 98.4424 325.432C100.372 329.132 102.752 332.232 105.712 332.932C107.402 333.332 109.092 332.892 110.712 332.442C134.282 325.882 157.062 316.762 180.442 309.572C203.272 302.552 226.912 297.982 250.112 292.082C255.462 290.722 260.822 289.352 265.942 287.242C267.132 286.752 268.362 286.172 269.142 285.052C270.152 283.592 270.212 281.492 270.112 279.542C269.742 271.812 267.652 264.042 264.092 257.172Z" fill="#CDE0E9"/>
<path d="M159.042 52.242C161.182 50.042 163.203 47.722 165.073 45.292" stroke="#243645" stroke-width="2.819" stroke-miterlimit="10" stroke-linecap="round" stroke-linejoin="round"/>
<path d="M178.873 78.072C181.533 76.242 184.332 74.632 187.252 73.262" stroke="#243645" stroke-width="2.819" stroke-miterlimit="10" stroke-linecap="round" stroke-linejoin="round"/>
<path d="M203.782 172.322C205.632 171.462 207.472 170.602 209.322 169.742" stroke="#243645" stroke-width="2.819" stroke-miterlimit="10" stroke-linecap="round" stroke-linejoin="round"/>
<path d="M207.262 192.842C210.542 191.702 213.812 190.562 217.092 189.422" stroke="#243645" stroke-width="2.819" stroke-miterlimit="10" stroke-linecap="round" stroke-linejoin="round"/>
<path d="M212.292 216.462C214.922 215.512 217.563 214.572 220.203 213.622" stroke="#243645" stroke-width="2.819" stroke-miterlimit="10" stroke-linecap="round" stroke-linejoin="round"/>
<path d="M218.822 244.352C222.952 242.962 227.152 241.772 231.402 240.792" stroke="#243645" stroke-width="2.819" stroke-miterlimit="10" stroke-linecap="round" stroke-linejoin="round"/>
<path d="M122.862 269.242C120.012 270.502 117.282 272.042 114.722 273.832" stroke="#243645" stroke-width="2.819" stroke-miterlimit="10" stroke-linecap="round" stroke-linejoin="round"/>
<path d="M115.842 253.682C112.462 255.252 109.082 256.812 105.702 258.382" stroke="#243645" stroke-width="2.819" stroke-miterlimit="10" stroke-linecap="round" stroke-linejoin="round"/>
<path d="M89.4324 178.152C86.2624 178.992 82.8924 179.062 79.6924 178.352" stroke="#243645" stroke-width="2.819" stroke-miterlimit="10" stroke-linecap="round" stroke-linejoin="round"/>
<path d="M84.9022 157.712C81.7022 157.422 78.5022 157.122 75.3022 156.832" stroke="#243645" stroke-width="2.819" stroke-miterlimit="10" stroke-linecap="round" stroke-linejoin="round"/>
<path d="M79.6125 133.182C76.3925 133.002 73.2125 132.172 70.3125 130.742" stroke="#243645" stroke-width="2.819" stroke-miterlimit="10" stroke-linecap="round" stroke-linejoin="round"/>
<path d="M78.6226 103.952C75.0926 104.312 71.5025 104.072 68.0425 103.242" stroke="#243645" stroke-width="2.819" stroke-miterlimit="10" stroke-linecap="round" stroke-linejoin="round"/>
<path d="M81.4624 79.922C77.7324 80.072 73.9624 78.952 70.9324 76.782" stroke="#243645" stroke-width="2.819" stroke-miterlimit="10" stroke-linecap="round" stroke-linejoin="round"/>
<path d="M93.5223 54.0119C91.3723 51.4319 88.9924 49.0519 86.4124 46.9119" stroke="#243645" stroke-width="2.819" stroke-miterlimit="10" stroke-linecap="round" stroke-linejoin="round"/>
<path d="M141.853 41.5619C141.893 39.0519 142.403 36.5519 143.343 34.2219" stroke="#243645" stroke-width="2.819" stroke-miterlimit="10" stroke-linecap="round" stroke-linejoin="round"/>
<path d="M120.483 38.342C119.843 34.592 118.963 30.892 117.833 27.262" stroke="#243645" stroke-width="2.819" stroke-miterlimit="10" stroke-linecap="round" stroke-linejoin="round"/>
<path d="M200.642 102.942C198.972 100.752 197.293 98.5618 195.623 96.3718" stroke="#243645" stroke-width="2.819" stroke-miterlimit="10" stroke-linecap="round" stroke-linejoin="round"/>
<path d="M204.093 57.2919C201.253 56.9519 198.602 55.3319 197.002 52.9619" stroke="#243645" stroke-width="2.819" stroke-miterlimit="10" stroke-linecap="round" stroke-linejoin="round"/>
<path d="M212.142 36.6718C210.962 34.6318 210.082 32.4118 209.532 30.1218" stroke="#243645" stroke-width="2.819" stroke-miterlimit="10" stroke-linecap="round" stroke-linejoin="round"/>
<path d="M226.562 27.5719C225.702 25.2219 225.362 22.6819 225.602 20.2019" stroke="#243645" stroke-width="2.819" stroke-miterlimit="10" stroke-linecap="round" stroke-linejoin="round"/>
<path d="M244.652 36.602C247.302 34.912 249.952 33.222 252.612 31.542" stroke="#243645" stroke-width="2.819" stroke-miterlimit="10" stroke-linecap="round" stroke-linejoin="round"/>
<path d="M256.732 62.0119C260.032 60.6119 263.532 59.6619 267.092 59.2219" stroke="#243645" stroke-width="2.819" stroke-miterlimit="10" stroke-linecap="round" stroke-linejoin="round"/>
<path d="M261.482 91.042C265.442 91.082 270.872 91.282 274.822 91.522" stroke="#243645" stroke-width="2.819" stroke-miterlimit="10" stroke-linecap="round" stroke-linejoin="round"/>
<path d="M258.362 114.972C261.932 116.082 265.242 118.002 267.982 120.542" stroke="#243645" stroke-width="2.819" stroke-miterlimit="10" stroke-linecap="round" stroke-linejoin="round"/>
<path d="M248.092 133.472C249.972 136.272 252.392 138.702 255.182 140.602" stroke="#243645" stroke-width="2.819" stroke-miterlimit="10" stroke-linecap="round" stroke-linejoin="round"/>
<path d="M230.252 149.012C231.842 151.132 232.993 153.582 233.613 156.152" stroke="#243645" stroke-width="2.819" stroke-miterlimit="10" stroke-linecap="round" stroke-linejoin="round"/>
<path d="M212.812 158.342C213.452 160.712 214.103 163.082 214.743 165.452" stroke="#243645" stroke-width="2.819" stroke-miterlimit="10" stroke-linecap="round" stroke-linejoin="round"/>
<path d="M43.4324 155.772C42.6724 152.852 41.9123 149.942 41.1423 147.022" stroke="#243645" stroke-width="2.819" stroke-miterlimit="10" stroke-linecap="round" stroke-linejoin="round"/>
<path d="M56.9724 155.872C59.0824 153.442 61.1924 151.002 63.3024 148.572" stroke="#243645" stroke-width="2.819" stroke-miterlimit="10" stroke-linecap="round" stroke-linejoin="round"/>
<path d="M30.4523 167.932C27.3423 167.202 24.2223 166.472 21.1123 165.742" stroke="#243645" stroke-width="2.819" stroke-miterlimit="10" stroke-linecap="round" stroke-linejoin="round"/>
<path d="M30.3324 187.982C26.7924 188.652 23.3724 189.892 20.2224 191.632" stroke="#243645" stroke-width="2.819" stroke-miterlimit="10" stroke-linecap="round" stroke-linejoin="round"/>
<path d="M36.1724 210.812C33.5324 212.032 31.0324 213.542 28.7224 215.302" stroke="#243645" stroke-width="2.819" stroke-miterlimit="10" stroke-linecap="round" stroke-linejoin="round"/>
<path d="M46.6824 230.462C44.3624 232.212 42.2523 234.232 40.3823 236.452" stroke="#243645" stroke-width="2.819" stroke-miterlimit="10" stroke-linecap="round" stroke-linejoin="round"/>
<path d="M61.7725 243.782C60.8525 245.992 59.9325 248.192 59.0225 250.402" stroke="#243645" stroke-width="2.819" stroke-miterlimit="10" stroke-linecap="round" stroke-linejoin="round"/>
<path d="M80.4624 251.222C80.6824 254.962 80.5124 258.722 79.9424 262.432" stroke="#243645" stroke-width="2.819" stroke-miterlimit="10" stroke-linecap="round" stroke-linejoin="round"/>
<path d="M125.072 79.9419C127.742 78.3519 130.412 76.7619 133.082 75.1819" stroke="#243645" stroke-width="2.819" stroke-miterlimit="10" stroke-linecap="round" stroke-linejoin="round"/>
<path d="M135.132 120.272C139.072 118.882 143.012 117.492 146.952 116.102" stroke="#243645" stroke-width="2.819" stroke-miterlimit="10" stroke-linecap="round" stroke-linejoin="round"/>
<path d="M152.822 178.502C155.732 176.752 158.642 175.002 161.552 173.252" stroke="#243645" stroke-width="2.819" stroke-miterlimit="10" stroke-linecap="round" stroke-linejoin="round"/>
<path d="M164.442 217.912C167.502 216.872 170.382 215.302 172.912 213.282" stroke="#243645" stroke-width="2.819" stroke-miterlimit="10" stroke-linecap="round" stroke-linejoin="round"/>
<path d="M138.212 255.962C140.772 254.632 143.142 252.932 145.212 250.932" stroke="#243645" stroke-width="2.819" stroke-miterlimit="10" stroke-linecap="round" stroke-linejoin="round"/>
<path d="M125.472 215.662C129.312 212.982 132.812 209.822 135.872 206.282" stroke="#243645" stroke-width="2.819" stroke-miterlimit="10" stroke-linecap="round" stroke-linejoin="round"/>
<path d="M106.742 157.182C109.752 154.672 113.062 152.532 116.592 150.822" stroke="#243645" stroke-width="2.819" stroke-miterlimit="10" stroke-linecap="round" stroke-linejoin="round"/>
<path d="M101.632 107.412C104.422 105.322 107.212 103.242 110.002 101.152" stroke="#243645" stroke-width="2.819" stroke-miterlimit="10" stroke-linecap="round" stroke-linejoin="round"/>
<path d="M153.312 86.432C157.693 86.412 162.082 86.742 166.412 87.402" stroke="#243645" stroke-width="2.819" stroke-miterlimit="10" stroke-linecap="round" stroke-linejoin="round"/>
<path d="M183.032 189.202C186.062 190.682 189.452 191.422 192.822 191.342" stroke="#243645" stroke-width="2.819" stroke-miterlimit="10" stroke-linecap="round" stroke-linejoin="round"/>
<path d="M192.402 236.912C195.682 237.792 198.962 238.682 202.242 239.562" stroke="#243645" stroke-width="2.819" stroke-miterlimit="10" stroke-linecap="round" stroke-linejoin="round"/>
</svg>
