<svg width="508" height="598" viewBox="0 0 508 598" fill="none" xmlns="http://www.w3.org/2000/svg">
<path d="M480.659 369.254L481.779 368.564C487.149 365.254 490.909 360.054 492.369 353.924C493.829 347.794 492.809 341.464 489.509 336.104C486.199 330.734 480.999 326.974 474.869 325.514C471.589 324.734 468.189 324.664 464.929 325.294C463.579 320.344 462.109 315.354 460.539 310.444C447.129 268.474 422.299 210.974 380.149 175.444C366.699 164.104 348.419 148.694 324.889 140.784C334.409 124.984 339.619 106.614 340.369 86.144C341.689 49.964 321.669 20.674 286.829 7.78404C251.799 -5.16596 215.879 0.454019 182.089 7.32402C170.409 9.70402 157.979 13.234 145.129 17.844C104.199 32.524 60.3092 58.034 33.3092 82.834C9.7592 104.464 -2.80083 135.824 0.529168 164.664C3.48917 190.314 18.369 211.904 42.409 225.444C51.2891 230.444 60.5491 233.244 69.7191 234.564C68.0291 234.854 66.3591 235.294 64.7191 235.884C40.9591 244.424 38.4292 277.434 39.0892 308.604C39.7092 338.024 44.3491 370.854 51.1991 394.284C58.4991 419.264 67.889 444.024 78.399 465.964C73.089 471.194 70.5492 478.584 71.5592 485.984C72.4192 492.224 75.6591 497.764 80.6791 501.574C85.7091 505.384 91.909 507.014 98.149 506.154L99.4591 505.974C89.0491 512.214 84.9891 525.554 90.4491 536.624C95.7591 547.394 108.279 552.464 119.579 548.404C120.419 548.104 121.249 547.754 122.039 547.364C124.689 546.054 127.409 544.744 130.199 543.424C130.539 543.774 130.879 544.124 131.229 544.474C129.789 546.024 128.459 547.494 127.209 548.884C118.549 558.584 119.399 573.534 129.109 582.204C135.569 587.964 144.639 589.724 152.779 586.804C156.479 585.474 159.809 583.234 162.419 580.304C164.199 578.314 166.189 576.144 168.489 573.724C208.859 597.504 256.249 603.204 309.369 590.674C320.159 588.124 330.889 584.954 341.259 581.234C390.169 563.694 429.159 534.744 451.049 499.714C457.669 489.114 463.069 477.444 467.109 465.014C471.869 465.574 475.879 466.104 479.339 466.644C483.219 467.244 487.229 466.864 490.929 465.534C499.069 462.614 504.959 455.484 506.289 446.924C508.279 434.064 499.429 421.984 486.579 420.004C483.709 419.564 480.469 419.114 476.919 418.664C481.149 417.574 485.389 416.534 489.569 415.544C490.439 415.344 491.309 415.084 492.149 414.784C503.449 410.734 509.899 398.864 507.149 387.174C505.709 381.034 501.959 375.834 496.599 372.514C491.759 369.564 486.179 368.424 480.659 369.254Z" fill="white"/>
<path d="M256.719 573.544C221.799 573.544 190.499 562.944 163.709 542.034C111.339 501.164 83.3994 420.474 73.8194 387.684C61.2794 344.744 58.7393 274.804 69.2093 260.844C70.7393 258.804 72.5394 257.764 74.5794 257.764C74.6594 257.764 75.2694 257.804 75.3394 257.814C104.469 261.594 132.579 277.754 147.439 299.154C164.899 291.874 189.759 282.164 213.829 272.754C245.589 260.334 281.459 246.314 286.129 243.194C286.269 213.714 297.189 173.684 306.169 161.294C306.499 160.834 307.029 160.574 307.589 160.574C307.699 160.574 307.819 160.584 307.939 160.614C331.579 165.384 350.079 180.974 364.949 193.504C402.799 225.404 425.599 278.614 438.069 317.634C450.569 356.754 466.269 430.814 431.019 487.244C397.609 540.724 331.009 561.354 303.939 567.744C287.559 571.584 271.679 573.544 256.719 573.544Z" fill="#B1B9C3"/>
<path d="M307.579 162.314C329.939 166.824 347.019 180.674 363.809 194.824C400.489 225.754 423.499 277.814 436.389 318.154C453.419 371.464 460.199 437.194 429.519 486.304C403.039 528.684 351.459 554.714 303.519 566.034C287.629 569.784 271.979 571.804 256.729 571.804C223.729 571.804 192.599 562.364 164.789 540.664C120.919 506.424 91.4789 441.874 75.4989 387.194C61.6889 339.924 59.899 259.524 74.579 259.514C74.759 259.514 74.9391 259.524 75.1191 259.554C102.259 263.074 131.649 278.534 146.799 301.324C191.229 282.724 287.879 246.854 287.879 243.914C287.839 214.914 298.869 174.334 307.579 162.314ZM307.579 158.814C306.469 158.814 305.409 159.344 304.749 160.264C295.719 172.724 284.769 212.494 284.389 242.184C277.529 245.974 243.419 259.304 213.109 271.154C189.649 280.324 165.439 289.784 148.059 296.994C132.729 275.784 104.629 259.844 75.569 256.074C75.239 256.034 74.909 256.014 74.579 256.014C72.779 256.014 70.149 256.674 67.809 259.784C55.969 275.584 60.3491 347.794 72.1391 388.164C81.7691 421.124 109.859 502.224 162.629 543.404C189.729 564.554 221.389 575.284 256.719 575.284C271.819 575.284 287.829 573.314 304.309 569.424C331.599 562.984 398.719 542.174 432.479 488.144C468.109 431.114 452.309 356.494 439.719 317.084C427.189 277.844 404.229 224.324 366.059 192.144C351.039 179.484 332.359 163.734 308.269 158.874C308.039 158.834 307.809 158.814 307.579 158.814Z" fill="#243645"/>
<path d="M316.819 178.004C337.089 183.224 355.189 196.494 366.239 214.274C367.829 216.834 355.419 215.174 354.979 215.284C351.749 216.064 350.449 219.804 347.409 221.174C344.089 222.674 340.179 220.724 336.839 222.194C333.929 223.474 332.219 227.064 329.119 227.144C328.149 227.174 327.279 226.814 326.319 226.734C320.749 226.314 317.719 234.904 312.029 235.104C310.969 235.144 310.099 211.024 310.119 208.814C310.219 199.024 311.279 189.244 313.309 179.674C313.459 178.954 313.689 178.154 314.339 177.814C314.869 177.534 315.509 177.674 316.089 177.814C316.329 177.884 316.579 177.944 316.819 178.004Z" fill="#FBD0CF"/>
<path d="M311.879 234.204C308.649 215.564 309.339 196.134 313.899 177.294" stroke="#243645" stroke-width="3.4957" stroke-miterlimit="10" stroke-linecap="round" stroke-linejoin="round"/>
<path d="M77.4592 327.924C79.9592 333.964 85.1794 326.854 89.8794 326.724C91.6694 326.674 93.5093 327.064 95.2393 326.584C99.1393 325.484 100.749 320.534 104.449 318.874C106.359 318.014 108.539 318.164 110.619 318.014C114.609 317.734 118.509 316.274 121.729 313.904C122.489 313.344 125.229 311.634 125.349 310.734C125.509 309.504 122.879 306.504 122.179 305.504C117.379 298.594 111.089 292.824 104.259 287.964C97.8193 283.394 89.5893 280.204 82.5493 276.644C73.7793 272.214 76.0194 275.074 74.3494 283.404C72.5294 292.474 73.1392 302.364 74.1692 311.484C74.7592 316.754 75.5392 322.194 77.2092 327.244C77.2892 327.494 77.3692 327.714 77.4592 327.924Z" fill="#FBD0CF"/>
<path d="M126.769 311.304C114.349 294.354 96.6688 281.324 76.7988 274.474" stroke="#243645" stroke-width="3.4957" stroke-miterlimit="10" stroke-linecap="round" stroke-linejoin="round"/>
<path d="M171.089 428.484C173.249 434.504 170.119 441.144 164.099 443.304C158.079 445.464 151.439 442.334 149.279 436.314C147.119 430.294 150.249 423.654 156.269 421.494C162.299 419.324 168.929 422.454 171.089 428.484Z" fill="#243645"/>
<path d="M397.449 347.304C399.609 353.324 396.479 359.964 390.459 362.124C384.439 364.284 377.8 361.154 375.64 355.124C373.48 349.104 376.61 342.464 382.63 340.304C388.65 338.144 395.289 341.274 397.449 347.304Z" fill="#243645"/>
<path d="M282.679 415.434C292.489 445.144 303.109 474.594 314.529 503.734" stroke="#243645" stroke-width="3.4957" stroke-miterlimit="10" stroke-linecap="round" stroke-linejoin="round"/>
<path d="M259.489 407.684C258.939 406.964 258.799 405.864 259.419 405.224C259.709 404.914 260.129 404.754 260.519 404.604C270.649 400.724 280.779 396.844 290.909 392.964C292.069 392.524 293.269 392.074 294.499 392.174C301.559 392.754 287.139 413.694 284.599 416.324C279.519 421.584 263.499 411.994 259.629 407.864C259.589 407.804 259.539 407.744 259.489 407.684Z" fill="#243645"/>
<path d="M397.669 392.664C419.349 379.304 447.729 361.824 469.419 348.464" stroke="#243645" stroke-width="3.4957" stroke-miterlimit="10" stroke-linecap="round" stroke-linejoin="round"/>
<path d="M403.759 417.014C429.989 407.174 456.859 399.014 484.129 392.594" stroke="#243645" stroke-width="3.4957" stroke-miterlimit="10" stroke-linecap="round" stroke-linejoin="round"/>
<path d="M412.349 435.824C439.459 438.664 464.909 440.554 482.919 443.344" stroke="#243645" stroke-width="3.4957" stroke-miterlimit="10" stroke-linecap="round" stroke-linejoin="round"/>
<path d="M178.389 471.304C153.159 474.774 120.139 479.304 94.9092 482.774" stroke="#243645" stroke-width="3.4957" stroke-miterlimit="10" stroke-linecap="round" stroke-linejoin="round"/>
<path d="M189.159 493.974C162.649 503.054 136.719 513.824 111.589 526.204" stroke="#243645" stroke-width="3.4957" stroke-miterlimit="10" stroke-linecap="round" stroke-linejoin="round"/>
<path d="M194.489 513.964C175.359 533.384 156.909 551.014 144.779 564.614" stroke="#243645" stroke-width="3.4957" stroke-miterlimit="10" stroke-linecap="round" stroke-linejoin="round"/>
<path d="M261.969 374.704C259.849 370.844 257.729 366.984 255.609 363.124" stroke="#A0AAB1" stroke-width="3.4957" stroke-miterlimit="10" stroke-linecap="round" stroke-linejoin="round"/>
<path d="M277.419 386.514C276.879 383.784 276.019 381.124 274.879 378.584" stroke="#A0AAB1" stroke-width="3.4957" stroke-miterlimit="10" stroke-linecap="round" stroke-linejoin="round"/>
<path d="M286.899 367.274C287.099 363.594 286.349 359.874 284.729 356.564" stroke="#A0AAB1" stroke-width="3.4957" stroke-miterlimit="10" stroke-linecap="round" stroke-linejoin="round"/>
<path d="M268.319 349.624C267.459 346.114 266.319 342.684 264.899 339.364" stroke="#A0AAB1" stroke-width="3.4957" stroke-miterlimit="10" stroke-linecap="round" stroke-linejoin="round"/>
<path d="M250.089 383.494C251.339 385.844 252.589 388.194 253.849 390.544" stroke="#A0AAB1" stroke-width="3.4957" stroke-miterlimit="10" stroke-linecap="round" stroke-linejoin="round"/>
<path d="M228.499 350.644C230.039 352.884 231.579 355.124 233.119 357.374" stroke="#A0AAB1" stroke-width="3.4957" stroke-miterlimit="10" stroke-linecap="round" stroke-linejoin="round"/>
<path d="M245.419 331.344C246.209 334.154 247.319 336.874 248.719 339.434" stroke="#A0AAB1" stroke-width="3.4957" stroke-miterlimit="10" stroke-linecap="round" stroke-linejoin="round"/>
<path d="M277.799 320.164C277.929 322.834 278.429 325.484 279.289 328.014" stroke="#A0AAB1" stroke-width="3.4957" stroke-miterlimit="10" stroke-linecap="round" stroke-linejoin="round"/>
<path d="M222.779 319.594C224.089 321.624 225.389 323.664 226.699 325.694" stroke="#A0AAB1" stroke-width="3.4957" stroke-miterlimit="10" stroke-linecap="round" stroke-linejoin="round"/>
<path d="M255.519 302.344C256.969 306.124 257.939 310.084 258.409 314.104" stroke="#A0AAB1" stroke-width="3.4957" stroke-miterlimit="10" stroke-linecap="round" stroke-linejoin="round"/>
<path d="M281.069 292.524C282.029 296.884 282.989 301.244 283.949 305.604" stroke="#A0AAB1" stroke-width="3.4957" stroke-miterlimit="10" stroke-linecap="round" stroke-linejoin="round"/>
<path d="M202.769 317.074C203.989 319.714 205.759 322.104 207.919 324.054" stroke="#A0AAB1" stroke-width="3.4957" stroke-miterlimit="10" stroke-linecap="round" stroke-linejoin="round"/>
<path d="M212.529 292.834C213.239 295.284 214.519 297.564 216.239 299.444" stroke="#A0AAB1" stroke-width="3.4957" stroke-miterlimit="10" stroke-linecap="round" stroke-linejoin="round"/>
<path d="M265.569 274.254C266.229 277.374 267.279 280.424 268.669 283.294" stroke="#A0AAB1" stroke-width="3.4957" stroke-miterlimit="10" stroke-linecap="round" stroke-linejoin="round"/>
<path d="M239.849 282.594C240.599 285.274 241.659 287.864 243.009 290.284" stroke="#A0AAB1" stroke-width="3.4957" stroke-miterlimit="10" stroke-linecap="round" stroke-linejoin="round"/>
<path d="M83.5589 211.934C72.2189 211.934 62.2688 209.564 53.9588 204.884C31.8088 192.414 25.4088 174.654 23.9388 161.954C21.4588 140.484 31.1488 116.824 49.2388 100.214C83.1088 69.1139 140.949 39.7639 186.759 30.4539C203.879 26.9739 222.119 23.564 240.309 23.564C254.539 23.564 267.069 25.6439 278.619 29.9139C303.809 39.2339 317.709 59.4139 316.769 85.2839C315.589 117.784 301.009 142.584 274.619 157.004C257.039 166.604 239.379 170.724 220.689 175.084C215.989 176.174 211.259 177.284 206.479 178.484C206.019 188.914 203.599 199.594 201.039 209.614C200.899 210.154 200.509 210.604 199.989 210.804C199.779 210.884 199.569 210.934 199.349 210.934C199.019 210.934 198.699 210.844 198.409 210.654L173.469 194.774C170.789 193.074 167.539 192.244 163.519 192.244C153.889 192.244 141.959 197.114 131.429 201.404C125.519 203.814 119.929 206.094 115.329 207.274C102.919 210.454 92.8189 211.934 83.5589 211.934Z" fill="#4DBCE7"/>
<path d="M240.319 25.314C253.079 25.314 265.749 27.014 278.029 31.554C301.739 40.324 315.969 59.5739 315.039 85.2139C313.929 115.574 300.629 140.794 273.799 155.464C251.579 167.604 228.779 170.984 204.799 177.114C204.509 187.794 202.019 198.824 199.359 209.184C197.969 208.294 196.579 207.414 195.199 206.534C188.269 202.124 181.349 197.714 174.419 193.304C171.289 191.314 167.589 190.494 163.529 190.494C148.059 190.494 127.549 202.334 114.899 205.574C104.949 208.124 94.169 210.184 83.559 210.184C73.539 210.184 63.679 208.354 54.829 203.364C12.319 179.424 20.1489 129.324 50.4389 101.504C81.7589 72.734 139.239 41.9039 187.129 32.1639C204.499 28.6239 222.499 25.314 240.319 25.314ZM240.319 21.814C221.979 21.814 203.639 25.2339 186.429 28.7339C140.339 38.1039 82.159 67.624 48.069 98.924C29.579 115.904 19.6689 140.134 22.2189 162.154C23.7289 175.254 30.319 193.564 53.119 206.404C61.689 211.234 71.929 213.674 83.569 213.674C92.989 213.674 103.219 212.174 115.779 208.954C120.509 207.744 126.149 205.444 132.119 203.004C142.499 198.774 154.249 193.974 163.539 193.974C167.219 193.974 170.159 194.714 172.549 196.234L192.479 208.924L193.329 209.464L196.849 211.714L197.489 212.124C198.059 212.484 198.709 212.674 199.369 212.674C199.799 212.674 200.239 212.594 200.649 212.434C201.689 212.024 202.469 211.134 202.749 210.054C205.229 200.354 207.579 190.034 208.179 179.864C212.519 178.784 216.819 177.784 221.089 176.784C239.899 172.394 257.679 168.254 275.479 158.524C302.439 143.794 317.329 118.484 318.539 85.3339C319.509 58.6539 305.189 37.8539 279.249 28.2639C267.489 23.9339 254.759 21.814 240.319 21.814Z" fill="#243645"/>
<path d="M278.019 31.5539C273.609 29.9239 269.139 28.6939 264.639 27.7439C266.689 29.5939 268.749 31.4439 270.849 33.2439C271.309 33.6339 271.549 34.0939 271.639 34.5639C272.239 35.1839 272.849 35.7939 273.429 36.4339C290.279 55.0339 298.309 82.0839 294.189 106.854C292.229 118.594 287.659 129.964 278.779 138.154C270.159 146.094 259.039 150.784 247.949 154.154C235.919 157.804 223.519 160.024 211.209 162.514C199.149 164.954 187.589 167.924 176.319 172.944C161.779 179.414 147.969 187.514 132.989 192.954C119.519 197.844 104.899 200.714 90.5491 201.004C70.6191 201.394 50.6489 196.364 34.3989 185.164C39.1489 192.084 45.8491 198.304 54.8191 203.354C73.0491 213.624 95.5492 210.524 114.889 205.564C130.859 201.474 159.329 183.684 174.399 193.284C181.329 197.694 188.249 202.104 195.179 206.514C196.569 207.394 197.959 208.284 199.339 209.164C201.989 198.804 204.479 187.774 204.779 177.094C228.759 170.964 251.559 167.584 273.779 155.444C300.619 140.784 313.909 115.554 315.019 85.2039C315.969 59.5739 301.729 40.3239 278.019 31.5539Z" fill="#CDE0E9"/>
<path d="M103.449 130.114C104.019 126.254 104.469 122.434 104.789 118.654C105.109 114.884 105.539 111.014 106.079 107.064C106.149 106.684 106.119 106.234 105.989 105.744C105.859 105.244 105.789 104.744 105.759 104.244C105.729 103.734 105.839 103.234 106.069 102.744C106.299 102.244 106.789 101.814 107.539 101.444C108.629 100.894 109.689 100.844 110.719 101.264C111.749 101.694 112.729 102.414 113.659 103.414C114.779 104.664 115.979 106.484 117.279 108.874C118.579 111.274 119.899 114.004 121.259 117.074C122.619 120.144 123.989 123.384 125.369 126.804C126.749 130.224 128.079 133.564 129.349 136.814C130.519 139.794 131.619 142.574 132.639 145.144C133.659 147.714 134.569 149.884 135.369 151.664C135.559 152.054 135.759 152.514 135.979 153.034C136.189 153.554 136.319 154.074 136.379 154.594C136.439 155.114 136.409 155.614 136.299 156.094C136.189 156.574 135.909 156.994 135.479 157.354C135.239 157.544 134.849 157.744 134.309 157.964C133.769 158.184 133.189 158.354 132.559 158.474C131.929 158.594 131.319 158.664 130.729 158.664C130.139 158.674 129.649 158.564 129.259 158.344C127.929 157.634 126.819 156.674 125.939 155.434C125.059 154.204 124.319 152.864 123.719 151.404C123.119 149.944 122.579 148.444 122.109 146.914C121.639 145.384 121.159 143.954 120.689 142.634C119.819 140.214 118.929 137.754 117.999 135.254C117.079 132.754 116.169 130.344 115.289 128.034C114.409 125.724 113.549 123.574 112.699 121.584C111.859 119.594 111.079 117.904 110.379 116.504C110.339 117.554 110.269 118.704 110.159 119.984C110.049 121.264 109.939 122.494 109.829 123.694C109.719 124.894 109.619 125.994 109.549 127.004C109.469 128.014 109.439 128.744 109.449 129.204C109.479 129.714 109.469 130.224 109.429 130.754C109.389 131.284 109.379 131.814 109.419 132.344C109.449 132.874 109.569 133.414 109.769 133.954C109.969 134.504 110.289 135.054 110.749 135.614C111.329 136.384 111.599 137.064 111.559 137.644C111.509 138.224 111.269 138.744 110.839 139.184C110.399 139.624 109.839 139.944 109.139 140.144C108.439 140.344 107.729 140.444 107.009 140.444C105.969 140.404 104.849 140.124 103.649 139.604C102.459 139.084 101.229 138.424 99.9689 137.644C98.0189 136.384 96.119 134.964 94.269 133.384C92.419 131.804 90.7889 130.524 89.4089 129.524C89.6889 130.304 90.069 131.324 90.549 132.594C91.029 133.864 91.5591 135.264 92.1291 136.784C92.6991 138.304 93.2888 139.914 93.8988 141.604C94.5088 143.294 95.0989 144.964 95.6889 146.604C95.9689 147.384 96.359 148.384 96.849 149.624C97.349 150.864 97.8889 152.194 98.4689 153.604C99.0489 155.014 99.6389 156.474 100.219 157.964C100.809 159.454 101.309 160.844 101.719 162.144C101.979 162.874 102.209 163.514 102.409 164.064C102.609 164.614 102.689 165.114 102.669 165.554C102.649 166.004 102.469 166.374 102.139 166.674C101.809 166.974 101.239 167.214 100.429 167.404C99.9089 167.544 99.289 167.144 98.569 166.214C97.849 165.284 97.099 164.084 96.309 162.614C95.609 161.374 94.8989 160.024 94.2089 158.574C93.5089 157.124 92.869 155.734 92.289 154.394C91.709 153.054 91.1889 151.864 90.7389 150.814C90.2889 149.764 89.9489 149.024 89.7489 148.584C87.9589 144.744 86.0389 140.564 83.9789 136.044C81.9189 131.524 80.0889 127.164 78.4689 122.944L77.049 118.974C76.479 118.094 76.229 117.334 76.309 116.694C76.389 116.044 76.6989 115.474 77.2389 114.974C77.8789 114.334 78.759 113.854 79.849 113.534C80.949 113.214 81.8289 113.194 82.4989 113.474C83.0989 113.724 83.9888 114.244 85.1488 115.034C86.3088 115.834 87.5889 116.764 88.9789 117.834C90.3689 118.904 91.819 120.074 93.329 121.334C94.839 122.594 96.269 123.814 97.609 124.974C98.959 126.144 100.159 127.194 101.209 128.124C102.239 129.034 102.999 129.704 103.449 130.114Z" fill="white"/>
<path d="M139.139 123.574C139.979 125.904 140.859 128.344 141.799 130.894C142.739 133.444 143.689 135.924 144.659 138.334C145.629 140.744 146.559 142.984 147.459 145.064C148.359 147.134 149.199 148.834 149.979 150.154C150.109 150.364 150.219 150.564 150.299 150.734C150.389 150.914 150.469 151.084 150.529 151.274C150.859 152.184 150.889 152.954 150.619 153.564C150.349 154.174 149.909 154.644 149.309 154.964C149.139 155.074 148.839 155.214 148.379 155.374C147.249 155.784 146.049 155.874 144.799 155.654C143.549 155.434 142.559 154.814 141.829 153.784C141.439 153.254 140.859 152.074 140.099 150.234C139.339 148.394 138.479 146.264 137.539 143.844C136.599 141.424 135.619 138.854 134.619 136.124C133.619 133.394 132.689 130.844 131.839 128.464C131.069 126.314 130.409 124.444 129.859 122.834C129.309 121.224 128.919 120.104 128.689 119.464C126.859 114.354 125.049 109.094 123.269 103.704L122.559 101.714C122.229 100.804 122.059 99.9239 122.039 99.0839C122.019 98.2439 122.529 97.6339 123.569 97.2639C124.379 96.9739 125.449 96.8739 126.759 96.9739C127.639 97.0139 128.379 97.334 128.979 97.924C129.569 98.514 130.179 99.3139 130.799 100.324C131.229 101.094 131.769 102.394 132.429 104.224C133.049 105.964 133.729 107.944 134.449 110.184C135.179 112.424 135.889 114.524 136.589 116.484L139.139 123.574Z" fill="white"/>
<path d="M170.879 154.544C170.709 154.654 170.449 154.774 170.079 154.904C169.299 155.184 168.619 155.224 168.029 155.014C167.439 154.814 167.029 154.394 166.799 153.754L166.749 153.614C166.649 153.184 166.679 152.814 166.849 152.494C167.019 152.174 167.279 151.864 167.629 151.554C167.979 151.244 168.409 150.924 168.909 150.594C169.409 150.264 169.889 149.884 170.359 149.454C170.629 149.204 170.889 148.854 171.139 148.404C171.389 147.954 171.599 147.464 171.769 146.944C171.939 146.414 172.039 145.874 172.079 145.324C172.109 144.774 172.069 144.254 171.949 143.784C171.859 143.404 171.769 143.034 171.669 142.684C171.569 142.334 171.459 141.974 171.319 141.614C170.649 139.744 169.779 138.164 168.729 136.864C167.669 135.574 166.649 134.404 165.659 133.364L165.189 132.914C163.959 131.654 162.679 130.554 161.339 129.614C159.999 128.674 158.609 127.774 157.159 126.904C155.709 126.034 154.229 125.134 152.719 124.204C151.199 123.284 149.609 122.214 147.939 121.014C146.689 120.124 145.489 119.074 144.339 117.864C143.179 116.654 142.099 115.334 141.099 113.884C140.089 112.444 139.169 110.934 138.319 109.354C137.469 107.774 136.759 106.194 136.189 104.594C136.009 104.094 135.829 103.594 135.649 103.084C135.469 102.584 135.339 102.064 135.249 101.524C134.879 99.9039 134.709 98.3139 134.739 96.7639C134.769 95.2039 135.039 93.7739 135.549 92.4539C136.059 91.1339 136.839 89.9739 137.889 88.9439C138.939 87.9239 140.289 87.1139 141.929 86.5239C143.019 86.1339 144.279 85.8339 145.709 85.6339C147.929 85.3539 149.669 85.4639 150.929 85.9639C152.189 86.4639 152.939 87.054 153.189 87.744C153.519 88.654 153.069 89.3339 151.829 89.7739C151.009 90.0639 149.979 90.1539 148.749 90.0239C148.099 89.9439 147.509 89.944 146.969 90.004C146.429 90.074 145.949 90.1739 145.539 90.3239C143.899 90.9139 142.949 92.114 142.699 93.934C142.449 95.754 142.599 97.794 143.159 100.064C143.199 100.314 143.259 100.564 143.359 100.844C143.459 101.114 143.559 101.394 143.649 101.664C144.089 102.894 144.649 104.084 145.319 105.244C145.989 106.394 146.709 107.494 147.469 108.534C148.229 109.574 148.999 110.514 149.789 111.334C150.579 112.164 151.319 112.834 152.019 113.354C153.799 114.724 155.619 115.994 157.479 117.154C159.339 118.314 161.179 119.464 162.999 120.584C164.819 121.714 166.569 122.884 168.249 124.114C169.929 125.344 171.489 126.674 172.929 128.114C174.939 130.124 176.489 132.664 177.589 135.714C178.289 137.674 178.699 139.674 178.809 141.694C178.899 143.514 178.689 145.264 178.179 146.944C177.669 148.624 176.769 150.104 175.479 151.394C174.899 152.064 174.229 152.714 173.479 153.354C172.729 153.984 171.899 154.544 170.989 155.024L170.879 154.544Z" fill="white"/>
<path d="M199.029 144.454C198.859 144.564 198.599 144.684 198.229 144.814C197.449 145.094 196.769 145.134 196.179 144.924C195.589 144.724 195.179 144.304 194.949 143.664L194.899 143.524C194.799 143.094 194.829 142.724 194.999 142.404C195.169 142.084 195.429 141.774 195.779 141.464C196.129 141.154 196.559 140.834 197.059 140.504C197.559 140.174 198.039 139.794 198.509 139.364C198.779 139.114 199.039 138.764 199.289 138.314C199.539 137.864 199.749 137.374 199.919 136.854C200.089 136.324 200.189 135.784 200.229 135.234C200.259 134.684 200.219 134.164 200.099 133.694C200.009 133.314 199.919 132.944 199.819 132.594C199.719 132.244 199.609 131.884 199.469 131.524C198.799 129.654 197.929 128.074 196.879 126.774C195.819 125.484 194.799 124.314 193.809 123.274L193.339 122.824C192.119 121.564 190.829 120.464 189.489 119.524C188.149 118.584 186.759 117.684 185.309 116.814C183.859 115.944 182.379 115.044 180.869 114.114C179.349 113.194 177.759 112.124 176.089 110.924C174.839 110.034 173.639 108.984 172.489 107.774C171.329 106.564 170.249 105.244 169.249 103.794C168.239 102.354 167.319 100.844 166.469 99.2638C165.619 97.6838 164.909 96.1039 164.339 94.5039C164.159 94.0039 163.979 93.5038 163.799 92.9938C163.619 92.4938 163.489 91.9738 163.399 91.4338C163.029 89.8138 162.859 88.2238 162.889 86.6738C162.919 85.1138 163.189 83.6838 163.699 82.3638C164.209 81.0438 164.989 79.8838 166.039 78.8538C167.089 77.8338 168.439 77.0238 170.079 76.4338C171.169 76.0438 172.429 75.7438 173.859 75.5438C176.079 75.2638 177.819 75.3738 179.079 75.8738C180.339 76.3738 181.089 76.9638 181.339 77.6538C181.669 78.5638 181.219 79.2438 179.979 79.6838C179.159 79.9738 178.129 80.0638 176.899 79.9338C176.249 79.8538 175.659 79.8538 175.119 79.9138C174.579 79.9838 174.099 80.0838 173.689 80.2338C172.049 80.8238 171.099 82.0238 170.849 83.8438C170.599 85.6638 170.749 87.7038 171.309 89.9738C171.349 90.2238 171.409 90.4739 171.509 90.7539C171.609 91.0239 171.709 91.3038 171.799 91.5738C172.239 92.8038 172.799 93.9938 173.469 95.1538C174.139 96.3038 174.859 97.4038 175.619 98.4438C176.379 99.4838 177.149 100.424 177.939 101.244C178.729 102.074 179.469 102.744 180.169 103.264C181.949 104.634 183.769 105.904 185.629 107.064C187.489 108.224 189.329 109.374 191.149 110.494C192.969 111.624 194.719 112.794 196.399 114.024C198.079 115.254 199.639 116.584 201.079 118.024C203.089 120.034 204.639 122.574 205.739 125.624C206.439 127.584 206.849 129.584 206.959 131.604C207.049 133.424 206.839 135.174 206.329 136.854C205.819 138.534 204.919 140.014 203.629 141.304C203.049 141.974 202.379 142.624 201.629 143.264C200.879 143.894 200.049 144.454 199.139 144.934L199.029 144.454Z" fill="white"/>
<path d="M210.979 67.434C210.749 66.644 210.839 65.974 211.269 65.434C211.699 64.894 212.309 64.624 213.099 64.624C213.899 64.624 214.799 64.954 215.819 65.624C216.829 66.294 217.809 67.434 218.749 69.054C220.169 71.434 221.579 74.354 222.979 77.814C224.379 81.284 225.759 84.8539 227.139 88.5339C227.829 90.4539 228.599 92.5739 229.459 94.8939C230.319 97.2139 231.249 99.564 232.249 101.934C233.249 104.304 234.359 106.584 235.559 108.784C236.759 110.984 238.079 112.874 239.529 114.474C239.989 115.034 240.449 115.484 240.909 115.834C241.369 116.184 241.829 116.384 242.279 116.424C242.729 116.464 243.149 116.344 243.539 116.054C243.919 115.764 244.269 115.254 244.579 114.524C244.799 113.984 244.899 113.254 244.879 112.334C244.859 111.414 244.769 110.364 244.599 109.184C244.259 107.094 243.719 104.724 242.979 102.074C242.239 99.4339 241.459 96.864 240.639 94.374C239.819 91.884 239.059 89.6239 238.359 87.5839C237.649 85.5439 237.169 84.0839 236.899 83.1939C236.109 80.8439 235.319 78.5439 234.529 76.2739C233.739 74.0039 233.009 71.8839 232.329 69.9139C231.649 67.9439 231.029 66.1739 230.459 64.5939C229.899 63.0239 229.439 61.7539 229.099 60.7939C229.209 60.2439 229.439 59.6139 229.779 58.9239C230.119 58.2339 230.539 57.6039 231.039 57.0439C231.529 56.4839 232.069 56.0439 232.659 55.7339C233.239 55.4239 233.829 55.364 234.419 55.564C235.049 55.754 235.729 56.4639 236.459 57.6939C237.189 58.9339 237.909 60.4239 238.639 62.1639C239.419 63.8939 240.159 65.7639 240.879 67.7739C241.599 69.7839 242.269 71.714 242.879 73.554C243.489 75.394 244.019 77.0539 244.459 78.5139C244.909 79.9739 245.249 81.0239 245.479 81.6639C246.169 83.8839 246.859 86.104 247.549 88.304C248.239 90.504 248.849 92.7339 249.399 94.9839C249.949 97.2339 250.409 99.5039 250.799 101.784C251.179 104.074 251.409 106.384 251.479 108.734C251.519 110.424 251.429 112.034 251.209 113.584C250.989 115.134 250.539 116.524 249.839 117.744C249.149 118.974 248.159 119.984 246.869 120.784C245.579 121.584 243.919 122.004 241.879 122.074C240.299 122.124 238.809 121.784 237.419 121.044C236.019 120.304 234.659 119.304 233.319 118.034C231.579 116.344 229.979 114.284 228.519 111.874C227.059 109.464 225.739 107.014 224.569 104.514C223.389 102.024 222.369 99.664 221.489 97.424C220.609 95.184 219.919 93.3639 219.409 91.9439C218.509 89.5839 217.629 87.184 216.749 84.744C215.869 82.304 215.069 79.984 214.339 77.804C213.609 75.624 212.939 73.6239 212.349 71.8339C211.729 70.0239 211.279 68.554 210.979 67.434Z" fill="white"/>
<g opacity="0.3">
<path d="M183.369 544.144C161.409 526.594 143.539 504.544 128.719 480.754C113.119 455.704 100.589 428.684 90.8189 400.854C82.4189 376.934 76.039 352.174 72.389 327.074C70.599 314.744 69.5288 302.224 70.1788 289.764C70.7088 279.544 72.3789 269.114 76.7589 259.794C76.2089 259.714 75.659 259.604 75.109 259.534C59.849 257.554 61.5189 339.334 75.4889 387.174C91.4589 441.854 120.909 506.404 164.779 540.644C182.909 554.794 202.449 563.714 222.999 568.224C208.849 561.984 195.529 553.864 183.369 544.144Z" fill="#BCBEC0"/>
</g>
<path d="M363.809 194.824C363.019 194.154 362.219 193.484 361.419 192.814C370.389 205.984 377.899 220.114 383.949 234.864C391.589 253.514 396.979 272.994 401.449 292.614C409.069 326.044 415.209 360.384 413.979 394.804C413.369 411.764 410.959 428.674 405.889 444.904C400.539 462.024 392.289 477.944 381.859 492.514C370.879 507.854 357.449 521.444 342.319 532.714C329.609 542.174 315.649 549.924 301.249 556.494C287.069 562.964 272.289 568.354 257.069 571.784C272.209 571.754 287.739 569.744 303.519 566.024C351.459 554.714 403.039 528.684 429.519 486.304C460.199 437.194 453.419 371.474 436.389 318.154C423.499 277.814 400.489 225.754 363.809 194.824Z" fill="#D5D9DB"/>
</svg>
