<svg width="379" height="363" viewBox="0 0 379 363" fill="none" xmlns="http://www.w3.org/2000/svg">
<path d="M376.068 161.88C371.238 129.48 359.228 98.95 341.328 73.58C322.078 46.3 296.428 25.76 267.138 14.18C243.678 4.89999 216.658 0 189.008 0C155.108 0 122.758 7.17999 95.4677 20.76C70.2077 33.33 48.0877 54.67 31.4877 82.48C17.0477 106.67 7.03765 135 2.53765 164.4C-2.26235 195.71 -0.242317 224.26 8.50768 249.26C18.2777 277.15 37.3977 302.16 63.7877 321.6C87.6377 339.16 116.398 351.61 146.968 357.6C161.918 360.53 177.098 362.01 192.088 362.01C222.028 362.01 250.198 356.26 275.808 344.91C318.368 326.05 351.748 291.87 367.368 251.12C377.738 224.1 380.748 193.23 376.068 161.88Z" fill="white"/>
<path d="M192.088 346.22C178.118 346.22 163.958 344.84 150.008 342.1C102.138 332.73 43.7376 302.05 23.4176 244.04C15.5276 221.52 13.7476 195.53 18.1476 166.8C25.3576 119.74 51.3076 60.3801 102.508 34.9001C127.618 22.4001 157.538 15.8 189.008 15.8C214.688 15.8 239.698 20.3201 261.328 28.8801C313.078 49.34 351.058 101.2 360.448 164.22C364.718 192.88 362.008 220.98 352.618 245.49C338.488 282.35 308.158 313.32 269.408 330.49C245.828 340.92 219.808 346.22 192.088 346.22ZM189.078 125.18C178.528 125.18 168.098 127.48 159.708 131.66C142.468 140.24 133.698 160.36 131.258 176.33C129.768 186.05 130.358 194.83 133.018 202.41C139.858 221.93 159.618 232.27 175.828 235.45C180.578 236.38 185.408 236.85 190.158 236.85C199.578 236.85 208.408 235.05 216.398 231.51C229.488 225.72 239.718 215.27 244.478 202.86C247.648 194.6 248.558 185.11 247.108 175.42C243.928 154.07 231.108 136.52 213.648 129.61C206.308 126.71 197.818 125.18 189.078 125.18Z" fill="#E5956A"/>
<path d="M189.008 17.11C214.128 17.11 239.058 21.48 260.848 30.09C315.848 51.84 350.428 105.84 359.148 164.4C363.168 191.39 361.158 219.52 351.388 245C336.948 282.67 305.768 312.93 268.868 329.27C244.778 339.94 218.468 344.9 192.078 344.9C178.048 344.9 163.998 343.5 150.248 340.81C95.8577 330.16 42.9777 295.91 24.6477 243.61C16.0977 219.21 15.5277 192.56 19.4377 167C27.3077 115.64 54.9777 60.02 103.078 36.08C128.658 23.36 158.978 17.11 189.008 17.11ZM190.148 238.16C199.348 238.16 208.528 236.43 216.928 232.71C229.788 227.01 240.668 216.46 245.698 203.32C249.108 194.43 249.808 184.63 248.398 175.21C245.358 154.79 233.298 135.96 214.118 128.38C206.518 125.38 197.828 123.85 189.068 123.85C178.598 123.85 168.018 126.03 159.108 130.46C142.338 138.81 132.688 158.2 129.938 176.11C128.578 185.02 128.768 194.32 131.758 202.82C138.148 221.06 156.588 233 175.558 236.72C180.358 237.67 185.258 238.16 190.148 238.16ZM189.018 14.48C157.338 14.48 127.228 21.13 101.928 33.72C50.2777 59.42 24.1177 119.21 16.8577 166.6C12.4277 195.54 14.2177 221.74 22.1877 244.48C42.6977 303 101.538 333.95 149.768 343.4C163.808 346.15 178.048 347.54 192.098 347.54C220.008 347.54 246.208 342.21 269.958 331.68C309.028 314.37 339.608 283.12 353.868 245.94C363.348 221.23 366.078 192.9 361.768 164.01C352.308 100.53 314.018 48.28 261.828 27.65C240.028 19.04 214.858 14.48 189.018 14.48ZM190.148 235.53C185.478 235.53 180.738 235.07 176.068 234.15C160.218 231.04 140.908 220.96 134.248 201.97C131.668 194.6 131.088 186.04 132.548 176.53C134.938 160.89 143.488 141.19 160.288 132.83C168.498 128.74 178.728 126.49 189.078 126.49C197.648 126.49 205.978 127.99 213.158 130.83C230.178 137.56 242.688 154.72 245.798 175.6C247.208 185.07 246.328 194.33 243.238 202.38C238.608 214.47 228.628 224.65 215.858 230.3C208.038 233.77 199.388 235.53 190.148 235.53Z" fill="#243645"/>
<g opacity="0.3">
<path d="M26.7477 235.39C24.0077 213.1 20.2176 191.48 25.4876 169.5C30.9676 146.66 38.6877 124.2 50.4477 103.79C65.4977 77.66 87.6277 54.91 115.338 42.99C128.238 37.44 142.038 34.33 155.828 31.7C183.038 26.51 217.208 23.12 244.038 30.91C271.528 38.89 286.418 47.12 315.548 68.66C300.628 52.01 282.308 38.6 260.848 30.12C213.018 11.21 150.028 12.75 103.098 36.1C54.9976 60.03 27.3177 115.66 19.4577 167.02C15.5477 192.58 16.1176 219.23 24.6676 243.63C26.9376 250.1 29.7377 256.29 32.9977 262.19C29.9777 253.52 27.8677 244.56 26.7477 235.39Z" fill="#BCBEC0"/>
</g>
<path d="M332.008 142.96C330.588 138.21 328.528 133.64 326.488 129.11C324.428 124.55 322.358 119.95 319.458 115.87C315.548 110.37 310.288 106 305.838 100.92C298.328 92.34 298.848 78.94 289.278 72.13C286.328 70.03 282.708 69.14 279.268 68.01C270.878 65.26 264.468 60 256.788 56.16C248.698 52.11 238.828 50.23 229.868 49.62C223.428 49.18 216.908 49.49 210.568 48.29C203.298 46.91 196.288 43.56 188.898 43.91C182.258 44.23 176.138 47.53 169.618 48.85C162.438 50.3 155.018 49.31 147.688 49.13C132.878 48.76 118.018 51.82 104.498 57.86C92.8577 63.07 80.4277 68.58 75.3077 80.97C71.5377 90.09 69.8277 99.94 65.9777 109.05C61.7977 118.92 55.6577 127.78 50.3477 137.05C43.4677 149.05 37.7577 162.76 40.1577 176.38C41.3077 182.93 44.2777 189 46.0777 195.4C49.0977 206.19 47.6977 215.79 45.5477 226.49C43.6177 236.1 51.3177 244.37 58.8677 249.58C68.5477 256.25 80.6477 260.45 86.4077 271.15C91.4577 280.52 93.4777 292.33 102.318 299.18C110.118 305.22 120.828 305.16 130.688 305.66C137.868 306.02 145.698 307.05 151.768 311.21C158.338 315.72 164.128 321.03 171.828 323.9C183.608 328.29 196.298 325.56 208.398 324.41C218.318 323.47 227.778 325.65 237.538 325.24C246.718 324.86 251.958 318.99 257.688 312.38C265.268 303.62 272.248 298.32 283.418 294.95C293.828 291.81 305.728 290.21 313.468 281.77C326.938 267.07 322.438 247.03 328.008 229.62C330.118 223.02 334.018 217.12 336.378 210.6C338.688 204.19 339.458 197.23 338.598 190.48C337.848 184.64 335.918 179 335.048 173.18C333.798 164.78 334.778 156.15 333.198 147.8C332.888 146.17 332.488 144.56 332.008 142.96ZM250.248 217.06C250.038 217.33 249.818 217.59 249.598 217.86C241.058 228.09 229.748 235.55 218.848 243.21C217.498 244.16 216.138 245.12 214.618 245.77C211.678 247.03 208.388 247.04 205.188 247.04C184.328 247 162.628 246.77 143.888 237.6C136.108 233.79 128.728 228.09 125.568 220.02C122.258 211.57 124.088 202.03 122.628 193.07C121.348 185.25 117.538 177.8 117.758 169.88C118.118 157.19 127.938 147.25 136.638 139.25C150.358 126.64 164.408 115.16 183.908 114.8C197.898 114.54 211.708 118.03 225.688 118.52C233.298 118.79 241.858 118.51 247.328 123.81C252.338 128.67 252.508 135.66 254.108 141.96C255.678 148.13 257.048 154.24 258.388 160.53C262.688 180.68 263.808 200.18 250.248 217.06Z" fill="#F6ADC8" stroke="#243645" stroke-width="2.632" stroke-miterlimit="10" stroke-linecap="round" stroke-linejoin="round"/>
<path d="M99.9775 95.0101C100.208 92.7001 101.718 90.56 103.808 89.55C105.418 88.78 107.268 88.6701 108.908 87.9501C110.538 87.2301 112.008 85.49 111.448 83.8" stroke="#F9D55E" stroke-width="6.5801" stroke-miterlimit="10" stroke-linecap="round" stroke-linejoin="round"/>
<path d="M241.038 106.22C241.268 103.91 242.778 101.77 244.868 100.76C246.478 99.99 248.328 99.88 249.968 99.16C251.598 98.44 253.068 96.7 252.508 95.01" stroke="#F9D55E" stroke-width="6.5801" stroke-miterlimit="10" stroke-linecap="round" stroke-linejoin="round"/>
<path d="M85.1978 166.03C85.4278 163.72 86.9378 161.58 89.0278 160.57C90.6378 159.8 92.4877 159.69 94.1277 158.97C95.7577 158.25 97.2277 156.51 96.6677 154.82" stroke="#F9D55E" stroke-width="6.5801" stroke-miterlimit="10" stroke-linecap="round" stroke-linejoin="round"/>
<path d="M302.678 177.24C302.908 174.93 304.418 172.79 306.508 171.78C308.118 171.01 309.968 170.9 311.608 170.18C313.238 169.46 314.708 167.72 314.148 166.03" stroke="#F9D55E" stroke-width="6.5801" stroke-miterlimit="10" stroke-linecap="round" stroke-linejoin="round"/>
<path d="M264.948 273.49C262.808 274.4 260.208 274.12 258.318 272.77C256.868 271.73 255.868 270.16 254.458 269.08C253.038 268 250.808 267.55 249.598 268.86" stroke="#F9D55E" stroke-width="6.5801" stroke-miterlimit="10" stroke-linecap="round" stroke-linejoin="round"/>
<path d="M199.408 290.88C197.268 291.79 194.668 291.51 192.778 290.16C191.328 289.12 190.338 287.55 188.918 286.47C187.498 285.39 185.268 284.94 184.058 286.25" stroke="#F9D55E" stroke-width="6.5801" stroke-miterlimit="10" stroke-linecap="round" stroke-linejoin="round"/>
<path d="M107.658 249.49C105.518 250.4 102.918 250.12 101.028 248.77C99.5776 247.73 98.5776 246.16 97.1676 245.08C95.7476 244 93.5176 243.55 92.3076 244.86" stroke="#F9D55E" stroke-width="6.5801" stroke-miterlimit="10" stroke-linecap="round" stroke-linejoin="round"/>
<path d="M135.158 114.78C134.048 113.49 134.148 111.53 134.778 109.95C135.408 108.37 136.478 107.01 137.228 105.49C138.628 102.62 138.778 99.1699 137.638 96.1899" stroke="#F37C89" stroke-width="6.5801" stroke-miterlimit="10" stroke-linecap="round" stroke-linejoin="round"/>
<path d="M104.578 219.84C103.468 218.55 103.568 216.59 104.208 215.01C104.838 213.43 105.908 212.07 106.658 210.55C108.058 207.68 108.208 204.23 107.058 201.25" stroke="#F37C89" stroke-width="6.5801" stroke-miterlimit="10" stroke-linecap="round" stroke-linejoin="round"/>
<path d="M293.298 146.49C291.828 147.34 289.918 146.88 288.478 145.97C287.048 145.06 285.908 143.76 284.538 142.74C281.978 140.84 278.608 140.06 275.468 140.63" stroke="#F37C89" stroke-width="6.5801" stroke-miterlimit="10" stroke-linecap="round" stroke-linejoin="round"/>
<path d="M279.248 235.65C278.478 237.16 276.618 237.81 274.928 237.83C273.228 237.84 271.568 237.37 269.868 237.26C266.678 237.06 263.438 238.23 261.108 240.41" stroke="#F37C89" stroke-width="6.5801" stroke-miterlimit="10" stroke-linecap="round" stroke-linejoin="round"/>
<path d="M189.518 265.67C188.748 267.18 186.888 267.83 185.198 267.85C183.498 267.86 181.838 267.39 180.138 267.28C176.958 267.08 173.708 268.25 171.378 270.43" stroke="#F37C89" stroke-width="6.5801" stroke-miterlimit="10" stroke-linecap="round" stroke-linejoin="round"/>
<path d="M168.118 75.4699C171.688 75.0299 174.548 78.1299 177.418 80.2899C180.288 82.4499 185.308 83.3099 186.758 80.0199" stroke="#4DBCE7" stroke-width="6.5801" stroke-miterlimit="10" stroke-linecap="round" stroke-linejoin="round"/>
<path d="M62.7178 187.76C66.2878 187.32 69.1478 190.42 72.0178 192.58C74.8878 194.74 79.9077 195.6 81.3577 192.31" stroke="#4DBCE7" stroke-width="6.5801" stroke-miterlimit="10" stroke-linecap="round" stroke-linejoin="round"/>
<path d="M278.238 124.23C277.658 120.68 280.638 117.7 282.688 114.75C284.738 111.8 285.388 106.74 282.048 105.43" stroke="#4DBCE7" stroke-width="6.5801" stroke-miterlimit="10" stroke-linecap="round" stroke-linejoin="round"/>
<path d="M305.438 238.65C304.858 235.1 307.838 232.12 309.888 229.17C311.938 226.22 312.588 221.16 309.238 219.85" stroke="#4DBCE7" stroke-width="6.5801" stroke-miterlimit="10" stroke-linecap="round" stroke-linejoin="round"/>
<path d="M214.928 262.23C217.848 264.32 217.858 268.54 218.508 272.07C219.158 275.6 222.278 279.64 225.568 278.19" stroke="#4DBCE7" stroke-width="6.5801" stroke-miterlimit="10" stroke-linecap="round" stroke-linejoin="round"/>
<path d="M216.478 65.8301C218.658 64.2301 221.868 65.8801 223.298 68.1701C224.728 70.4601 225.148 73.2601 226.508 75.6001C227.868 77.9401 230.908 79.7801 233.228 78.4001" stroke="#67C8C7" stroke-width="6.5801" stroke-miterlimit="10" stroke-linecap="round" stroke-linejoin="round"/>
<path d="M278.678 180.97C281.378 181.09 282.848 184.38 282.528 187.07C282.208 189.75 280.788 192.2 280.378 194.87C279.978 197.54 281.188 200.88 283.868 201.26" stroke="#67C8C7" stroke-width="6.5801" stroke-miterlimit="10" stroke-linecap="round" stroke-linejoin="round"/>
<path d="M91.6077 124.86C93.7877 123.26 96.9977 124.91 98.4277 127.2C99.8577 129.49 100.278 132.29 101.638 134.63C102.998 136.97 106.038 138.81 108.358 137.43" stroke="#67C8C7" stroke-width="6.5801" stroke-miterlimit="10" stroke-linecap="round" stroke-linejoin="round"/>
<path d="M138.438 245.81C140.488 247.57 139.628 251.07 137.718 252.99C135.818 254.91 133.188 255.96 131.218 257.81C129.258 259.67 128.158 263.04 130.028 264.99" stroke="#67C8C7" stroke-width="6.5801" stroke-miterlimit="10" stroke-linecap="round" stroke-linejoin="round"/>
<path d="M303.968 117.93C303.648 117.43 303.068 117.09 302.238 117.09C300.308 117.08 298.738 120.43 300.658 121.5C301.638 122.04 302.958 121.61 303.658 120.73C304.358 119.85 304.468 118.7 303.968 117.93Z" fill="white"/>
<path d="M290.608 218.36C290.288 217.86 289.708 217.52 288.878 217.52C286.948 217.51 285.378 220.86 287.298 221.93C288.278 222.47 289.598 222.04 290.298 221.16C291.008 220.28 291.108 219.13 290.608 218.36Z" fill="white"/>
<path d="M301.718 196.23C301.398 195.73 300.818 195.39 299.988 195.39C298.058 195.38 296.488 198.73 298.408 199.8C299.388 200.34 300.708 199.91 301.408 199.03C302.108 198.15 302.218 197 301.718 196.23Z" fill="white"/>
<path d="M150.378 289.93C150.058 289.43 149.478 289.09 148.648 289.09C146.718 289.08 145.148 292.43 147.068 293.5C148.048 294.04 149.368 293.61 150.068 292.73C150.778 291.85 150.878 290.7 150.378 289.93Z" fill="white"/>
<path d="M292.858 281.64C292.538 281.14 291.958 280.8 291.128 280.8C289.198 280.79 287.628 284.14 289.548 285.21C290.528 285.75 291.848 285.32 292.548 284.44C293.258 283.56 293.358 282.41 292.858 281.64Z" fill="white"/>
<path d="M269.588 313.48C269.268 312.98 268.688 312.64 267.858 312.64C265.928 312.63 264.358 315.98 266.278 317.05C267.258 317.59 268.578 317.16 269.278 316.28C269.978 315.4 270.088 314.25 269.588 313.48Z" fill="white"/>
<path d="M245.978 283.97C245.658 283.47 245.078 283.13 244.248 283.13C242.318 283.12 240.748 286.47 242.668 287.54C243.648 288.08 244.968 287.65 245.668 286.77C246.378 285.88 246.478 284.74 245.978 283.97Z" fill="white"/>
<path d="M154.878 256.25C154.558 255.75 153.978 255.41 153.148 255.41C151.218 255.4 149.648 258.75 151.568 259.82C152.548 260.36 153.868 259.93 154.568 259.05C155.278 258.16 155.378 257.01 154.878 256.25Z" fill="white"/>
<path d="M54.8277 256.25C54.5077 255.75 53.9277 255.41 53.0977 255.41C51.1677 255.4 49.5977 258.75 51.5177 259.82C52.4977 260.36 53.8177 259.93 54.5177 259.05C55.2277 258.16 55.3277 257.01 54.8277 256.25Z" fill="white"/>
<path d="M87.1377 256.25C86.8177 255.75 86.2378 255.41 85.4078 255.41C83.4778 255.4 81.9077 258.75 83.8277 259.82C84.8077 260.36 86.1277 259.93 86.8277 259.05C87.5277 258.16 87.6377 257.01 87.1377 256.25Z" fill="white"/>
<path d="M214.618 308.25C214.298 307.75 213.718 307.41 212.888 307.41C210.958 307.4 209.388 310.75 211.308 311.82C212.288 312.36 213.608 311.93 214.308 311.05C215.018 310.17 215.118 309.02 214.618 308.25Z" fill="white"/>
<path d="M260.978 111.02C260.658 110.52 260.078 110.18 259.248 110.18C257.318 110.17 255.748 113.52 257.668 114.59C258.648 115.13 259.968 114.7 260.668 113.82C261.378 112.94 261.478 111.79 260.978 111.02Z" fill="white"/>
<path d="M282.358 80.7299C282.038 80.2299 281.458 79.8899 280.628 79.8899C278.698 79.8799 277.128 83.2299 279.048 84.2999C280.028 84.8399 281.348 84.4099 282.048 83.5299C282.748 82.6499 282.858 81.4999 282.358 80.7299Z" fill="white"/>
<path d="M240.728 87.7599C240.408 87.2599 239.828 86.9199 238.998 86.9199C237.068 86.9099 235.498 90.2599 237.418 91.3299C238.398 91.8699 239.718 91.4399 240.418 90.5599C241.118 89.6799 241.228 88.5299 240.728 87.7599Z" fill="white"/>
<path d="M193.668 63.7099C193.348 63.2099 192.768 62.8699 191.938 62.8699C190.008 62.8599 188.438 66.2099 190.358 67.2799C191.338 67.8199 192.658 67.3899 193.358 66.5099C194.068 65.6299 194.168 64.4799 193.668 63.7099Z" fill="white"/>
<path d="M182.388 95.85C182.068 95.35 181.488 95.01 180.658 95.01C178.728 95 177.158 98.35 179.078 99.42C180.058 99.96 181.378 99.53 182.078 98.65C182.788 97.77 182.888 96.62 182.388 95.85Z" fill="white"/>
<path d="M64.6478 136.43C64.3278 135.93 63.7477 135.59 62.9177 135.59C60.9877 135.58 59.4178 138.93 61.3378 140C62.3178 140.54 63.6378 140.11 64.3378 139.23C65.0478 138.34 65.1578 137.2 64.6478 136.43Z" fill="white"/>
<path d="M64.6478 155.66C64.3278 155.16 63.7477 154.82 62.9177 154.82C60.9877 154.81 59.4178 158.16 61.3378 159.23C62.3178 159.77 63.6378 159.34 64.3378 158.46C65.0478 157.58 65.1578 156.43 64.6478 155.66Z" fill="white"/>
<path d="M126.238 68.3601C125.918 67.8601 125.338 67.52 124.508 67.52C122.578 67.51 121.008 70.86 122.928 71.93C123.908 72.47 125.228 72.04 125.928 71.16C126.638 70.27 126.738 69.1301 126.238 68.3601Z" fill="white"/>
<path d="M214.618 34.6701C214.298 34.1701 213.718 33.8301 212.888 33.8301C210.958 33.8201 209.388 37.1701 211.308 38.2401C212.288 38.7801 213.608 38.3501 214.308 37.4701C215.018 36.5901 215.118 35.4401 214.618 34.6701Z" fill="white"/>
<path d="M310.208 129.11C308.078 126.42 304.398 128.35 304.598 131.68C304.668 132.8 305.368 133.94 306.458 134.2C307.788 134.52 309.038 133.5 309.968 132.5C310.478 131.95 311.008 131.28 310.938 130.53C310.888 129.99 310.548 129.53 310.208 129.11Z" fill="white"/>
<path d="M281.688 301.37C279.558 298.68 275.878 300.61 276.078 303.94C276.148 305.06 276.848 306.2 277.938 306.46C279.268 306.78 280.518 305.76 281.448 304.76C281.958 304.21 282.488 303.54 282.418 302.79C282.368 302.25 282.028 301.79 281.688 301.37Z" fill="white"/>
<path d="M227.298 307.79C225.168 305.1 221.488 307.03 221.688 310.36C221.758 311.48 222.458 312.62 223.548 312.88C224.878 313.2 226.128 312.18 227.058 311.18C227.568 310.63 228.098 309.96 228.028 309.21C227.978 308.67 227.628 308.21 227.298 307.79Z" fill="white"/>
<path d="M80.4077 272.55C78.2777 269.86 74.5976 271.79 74.7976 275.12C74.8676 276.24 75.5677 277.38 76.6577 277.64C77.9877 277.96 79.2376 276.94 80.1676 275.94C80.6776 275.39 81.2076 274.72 81.1376 273.97C81.0876 273.44 80.7377 272.98 80.4077 272.55Z" fill="white"/>
<path d="M322.198 192.56C320.068 189.87 316.388 191.8 316.588 195.13C316.658 196.25 317.358 197.39 318.448 197.65C319.778 197.97 321.028 196.95 321.958 195.95C322.468 195.4 322.998 194.73 322.928 193.98C322.888 193.44 322.538 192.98 322.198 192.56Z" fill="white"/>
<path d="M264.658 76.6999C262.528 74.0099 258.848 75.9399 259.048 79.2699C259.118 80.3899 259.818 81.5299 260.908 81.7899C262.238 82.1099 263.488 81.0899 264.418 80.0899C264.928 79.5399 265.458 78.8699 265.388 78.1199C265.348 77.5799 264.998 77.1199 264.658 76.6999Z" fill="white"/>
<path d="M241.228 41.9499C239.098 39.2599 235.418 41.1899 235.618 44.5199C235.688 45.6399 236.388 46.7799 237.478 47.0399C238.808 47.3599 240.058 46.3399 240.988 45.3399C241.498 44.7899 242.028 44.1199 241.958 43.3699C241.908 42.8399 241.568 42.3799 241.228 41.9499Z" fill="white"/>
<path d="M147.708 73.4899C145.578 70.7999 141.898 72.7299 142.098 76.0599C142.168 77.1799 142.868 78.3199 143.958 78.5799C145.288 78.8999 146.538 77.8799 147.468 76.8799C147.978 76.3299 148.508 75.6599 148.438 74.9099C148.388 74.3699 148.038 73.9099 147.708 73.4899Z" fill="white"/>
<path d="M205.028 87.3C202.898 84.61 199.218 86.54 199.418 89.87C199.488 90.99 200.188 92.13 201.278 92.39C202.608 92.71 203.858 91.69 204.788 90.69C205.298 90.14 205.828 89.47 205.758 88.72C205.718 88.18 205.368 87.73 205.028 87.3Z" fill="white"/>
<path d="M42.0475 145C39.9075 142.31 36.2375 144.24 36.4375 147.57C36.5075 148.69 37.2075 149.83 38.2975 150.09C39.6275 150.41 40.8775 149.39 41.8075 148.39C42.3175 147.84 42.8476 147.17 42.7776 146.42C42.7276 145.88 42.3775 145.42 42.0475 145Z" fill="white"/>
<path d="M99.2277 179.95C97.0977 177.26 93.4177 179.19 93.6177 182.52C93.6877 183.64 94.3877 184.78 95.4777 185.04C96.8077 185.36 98.0577 184.34 98.9877 183.34C99.4977 182.79 100.028 182.12 99.9577 181.37C99.9177 180.84 99.5677 180.38 99.2277 179.95Z" fill="white"/>
<path d="M338.598 190.5C337.848 184.66 335.918 179.02 335.048 173.2C333.798 164.8 334.778 156.17 333.198 147.82C332.888 146.18 332.478 144.56 332.008 142.96C330.588 138.21 328.528 133.64 326.488 129.11C325.088 126.01 323.668 122.9 321.998 119.94C321.818 120.05 321.608 120.14 321.398 120.19C322.128 121.98 322.828 123.77 323.478 125.58C333.668 153.78 337.468 187.64 324.578 215.62C323.048 218.95 321.138 222.01 319.298 225.16C317.658 227.98 316.418 231 315.328 234.06C312.968 240.67 311.248 247.5 308.728 254.05C306.498 259.86 303.658 265.52 298.708 269.48C292.918 274.12 286.768 278.33 280.428 282.18C273.788 286.21 266.888 289.92 259.638 292.72C251.518 295.86 242.738 296.48 234.278 298.25C229.698 299.2 225.128 300.45 220.898 302.48C217.068 304.32 213.348 306.38 209.548 308.27C201.938 312.05 194.068 314.76 185.468 314.57C177.178 314.39 170.288 310.83 163.018 307.24C154.658 303.1 146.138 298.95 136.778 297.85C128.148 296.83 118.878 297.04 110.898 293.15C105.148 290.35 100.898 285.5 97.5476 280.16C94.2276 274.86 91.6476 269.12 88.0076 264.02C84.1376 258.6 78.9476 255.12 73.0676 252.16C63.5376 247.36 52.9476 243.5 46.3176 235.21C48.5076 241.06 53.7176 246.04 58.8676 249.59C68.5476 256.26 80.6477 260.46 86.4077 271.16C91.4577 280.53 93.4776 292.34 102.318 299.19C110.118 305.23 120.828 305.17 130.688 305.67C137.868 306.03 145.698 307.06 151.768 311.22C158.338 315.73 164.128 321.04 171.828 323.91C183.608 328.3 196.298 325.57 208.398 324.42C218.318 323.48 227.778 325.66 237.538 325.25C246.718 324.87 251.958 319 257.688 312.39C265.268 303.63 272.248 298.33 283.418 294.96C293.828 291.82 305.738 290.22 313.468 281.78C326.938 267.08 322.438 247.04 328.008 229.63C330.118 223.03 334.018 217.13 336.378 210.61C338.688 204.21 339.458 197.25 338.598 190.5Z" fill="#ECD3D5"/>
</svg>
