<svg width="216" height="200" viewBox="0 0 216 200" fill="none" xmlns="http://www.w3.org/2000/svg">
<path d="M196.696 50.7247C191.803 45.4973 185.907 41.2486 179.2 38.0979C175.452 36.3315 171.466 34.9232 167.337 33.9207L167.003 33.849L166.883 33.8253C165.761 33.5627 164.639 33.3239 163.565 33.1091C163.374 33.0613 163.159 33.0375 162.968 33.0136C161.823 32.8227 160.796 32.6556 159.77 32.5123C159.507 32.4885 159.245 32.4408 158.982 32.4169C158.171 32.3214 157.144 32.2021 155.975 32.1305C155.641 32.1066 155.282 32.0827 154.948 32.0827C154.113 32.035 153.206 31.9873 152.18 31.9634C151.774 31.9634 151.344 31.9634 150.938 31.9634H150.891H150.747C149.96 31.9634 149.172 31.9634 148.384 31.9873C147.883 32.0111 147.406 32.0349 146.904 32.0588H146.761L146.475 32.0827C145.854 32.1066 145.21 32.1543 144.589 32.202C143.968 32.2498 143.348 32.3214 142.727 32.4169L142.465 32.4408L142.322 32.4647C141.82 32.5124 141.295 32.5839 140.794 32.6555C139.529 32.8465 138.264 33.0614 137.022 33.3001C135.208 33.6581 133.323 34.1356 131.27 34.7084C131.007 34.78 130.745 34.8516 130.458 34.9232C128.763 35.4244 126.997 36.0213 125.231 36.6657C125.016 36.7374 124.801 36.8328 124.586 36.9044C124.443 36.4986 124.3 36.1167 124.157 35.7109C123.894 35.0426 123.632 34.3981 123.345 33.7536L123.25 33.515L123.226 33.4433C123.011 32.9182 122.772 32.3692 122.534 31.8441C122.128 30.9609 121.746 30.2448 121.507 29.7674L121.412 29.6003L121.388 29.5525C121.125 29.0274 120.863 28.5024 120.577 27.9772C120.028 26.9986 119.526 26.187 119.168 25.5903L119.144 25.5664C118.953 25.2322 118.643 24.7309 118.261 24.158C117.402 22.8691 116.495 21.6279 115.564 20.4344C110.527 14.0612 104.178 9.04866 96.6593 5.51598C95.1316 4.7999 93.5563 4.13154 91.9332 3.55867C90.8591 3.17676 89.737 2.79492 88.4958 2.43687C86.0134 1.69692 83.4117 1.12412 80.786 0.718342C80.3325 0.646734 79.8552 0.575085 79.4017 0.527346C76.1077 0.0976956 72.718 -0.069443 69.3047 0.0260348C67.6577 0.0737738 65.963 0.193156 64.316 0.360242C62.6452 0.527328 61.1176 0.7422 59.6377 1.00476C58.6829 1.17185 57.728 1.36278 56.7732 1.57761C51.9755 2.62786 47.3211 4.20318 42.9052 6.27982C41.115 7.11525 39.3249 8.04622 37.6302 9.02487C35.0045 10.5525 32.4743 12.2711 30.1351 14.133C29.3235 14.7774 28.5359 15.4457 27.7721 16.114C27.056 16.7585 26.3399 17.403 25.6476 18.0474C15.527 27.5952 8.29452 38.9572 4.14123 51.8228L3.95009 52.3956C0.274191 64.1155 -0.847417 77.1721 0.632489 91.1596C4.06969 123.622 20.9452 156.395 33.238 180.312L34.4792 182.723C35.0282 183.797 35.5773 184.847 36.1025 185.898L36.1739 186.017L36.1978 186.089C38.704 191.006 42.7141 194.872 47.8222 197.259C51.0684 198.787 54.6011 199.646 58.6112 199.909C59.2557 199.957 59.9003 199.981 60.5926 199.981C61.4041 199.981 62.2155 199.981 63.0748 199.933C67.3235 199.742 72.5511 198.978 79.0675 197.57C80.4281 197.283 81.8124 196.949 83.1969 196.639C83.8891 196.472 84.5574 196.305 85.2257 196.138C86.276 195.875 87.3025 195.612 88.3289 195.35C88.9256 195.207 89.5223 195.04 90.0952 194.896C95.6806 193.44 100.741 191.96 103.748 191.101C104.751 190.815 105.491 190.6 105.897 190.481C113.845 188.356 120.839 186.256 127.26 184.06C129.742 183.2 132.32 182.269 134.946 181.267C141.748 178.665 148.313 175.729 154.423 172.555C155.76 171.862 157.001 171.17 158.051 170.597L158.481 170.358C159.865 169.595 161.417 168.735 163.064 167.757L163.112 167.733L163.16 167.709C164.067 167.16 164.998 166.587 165.905 165.99C166.143 165.847 166.382 165.68 166.621 165.537L166.812 165.418C167.48 164.988 168.148 164.534 168.817 164.105L168.864 164.057C169.175 163.866 169.461 163.651 169.771 163.46C170.511 162.959 171.275 162.434 172.015 161.909L172.111 161.861C172.302 161.742 172.469 161.598 172.66 161.479C173.567 160.835 174.45 160.166 175.357 159.498C175.619 159.307 175.882 159.092 176.144 158.901L176.383 158.734C176.956 158.281 177.529 157.851 178.102 157.397C178.484 157.087 178.89 156.777 179.295 156.443C179.82 156.013 180.369 155.583 180.894 155.13L181.133 154.939C181.444 154.676 181.754 154.414 182.064 154.151C182.876 153.459 183.663 152.767 184.451 152.075C184.833 151.74 185.191 151.382 185.573 151.048L185.812 150.833C186.217 150.475 186.599 150.093 186.981 149.735C187.482 149.258 187.96 148.804 188.461 148.327C188.795 147.993 189.106 147.682 189.44 147.372C189.965 146.847 190.49 146.322 191.015 145.797L191.158 145.654L191.206 145.606C192.376 144.389 193.617 143.028 194.858 141.62L194.93 141.548C195.073 141.405 195.192 141.238 195.336 141.095C195.908 140.426 196.457 139.758 197.03 139.09L197.484 138.517C200.109 135.27 202.472 131.929 204.525 128.563L204.645 128.372C220.852 101.662 217.964 73.3769 196.696 50.7247Z" fill="white"/>
<path d="M61.1656 178.093C59.3037 178.093 56.7259 177.878 55.8188 176.112L52.8351 170.311C41.3062 147.922 25.5522 117.273 22.5208 88.8687C20.0145 65.3335 26.6981 46.381 42.3564 32.5367C49.9946 25.7817 60.521 21.9148 71.1906 21.9148C82.4093 21.9148 92.339 26.3546 98.4258 34.0405C106.971 44.8534 107.424 59.724 107.544 73.1148C118.643 63.2567 130.029 57.0984 141.391 54.807C144.518 54.1864 147.74 53.8521 150.939 53.8521C162.778 53.8521 173.638 58.1965 180.728 65.7392C190.323 75.9554 194.333 87.1262 192.71 98.9416C189.154 124.697 160.51 143.792 151.822 149.044C134.373 159.546 115.134 165.418 100.335 169.356L97.7096 170.12C90.1668 172.269 70.1166 178.093 61.1656 178.093Z" fill="#F37C89"/>
<path d="M71.2144 23.2752C81.3112 23.2752 91.0976 26.9511 97.3752 34.8996C106.279 46.166 106.112 61.8245 106.207 76.1939C116.256 66.7893 128.191 58.8646 141.653 56.1435C144.685 55.5229 147.812 55.2125 150.938 55.2125C161.68 55.2125 172.421 58.8884 179.725 66.6698C208.679 97.5092 179.534 130.735 151.129 147.85C135.256 157.422 117.807 163.27 100.001 168.02C96.6352 168.903 71.3577 176.732 61.1655 176.732C58.9695 176.732 57.4893 176.374 57.0358 175.515C45.0533 152.051 27.1276 119.326 23.8814 88.7491C21.7093 68.2691 26.1012 48.7439 43.2634 33.5868C50.83 26.9033 61.1654 23.2752 71.2144 23.2752ZM71.2144 20.5303C60.2106 20.5303 49.374 24.5403 41.4732 31.5102C25.4568 45.6648 18.6301 64.9991 21.1841 89.0118C24.2394 117.655 40.0649 148.47 51.6416 170.956L54.6014 176.756C55.8426 179.191 58.9456 179.477 61.1655 179.477C69.2811 179.477 85.1781 175.157 98.1153 171.409L100.717 170.669C115.635 166.707 134.994 160.787 152.561 150.189C161.393 144.866 190.442 125.484 194.094 99.1085C195.789 86.8635 191.636 75.3106 181.754 64.7842C174.402 56.955 163.184 52.4676 150.986 52.4676C147.668 52.4676 144.374 52.8017 141.152 53.4462C130.315 55.6422 119.502 61.2515 108.928 70.1548C108.737 57.3369 107.759 43.5882 99.5474 33.205C93.1504 25.1609 82.8388 20.5303 71.2144 20.5303Z" fill="#243645"/>
<path d="M191.278 88.6777C185.597 100.612 177.433 111.378 167.814 120.448C156.834 130.783 144.111 139.162 130.196 144.986C117.879 150.142 104.894 152.481 91.551 152.29C73.7444 152.051 54.0519 147.993 38.6084 138.04C44.6712 151.765 51.474 164.63 57.0356 175.491C59.5418 180.384 95.9189 169.07 100.001 167.996C117.831 163.246 135.28 157.398 151.129 147.826C172.85 134.77 194.93 112.308 191.278 88.6777Z" fill="#EBCBD1"/>
<g opacity="0.3">
<path d="M28.9657 73.3533C32.9519 62.8746 38.5134 53.088 46.7006 45.3305C54.1001 38.3128 63.3138 32.2262 73.6493 30.985C84.5099 29.6722 95.1317 35.4008 100.98 44.519C102.889 47.5027 104.131 50.7011 105.038 54.019C103.94 47.0252 101.744 40.4135 97.3754 34.8758C84.8678 19.0264 58.4207 20.1722 43.2874 33.5391C26.1253 48.6962 21.7333 68.2214 23.9054 88.7014C23.977 89.4413 24.0964 90.1574 24.1919 90.8973C25.1705 84.9538 26.8175 79.0343 28.9657 73.3533Z" fill="#BCBEC0"/>
</g>
<g opacity="0.3">
<path d="M179.08 66.0019C169.628 56.5018 154.829 53.4704 141.653 56.1199C129.838 58.5068 119.216 64.8801 110.026 72.757C130.053 59.6288 157.049 56.5018 179.08 66.0019Z" fill="#BCBEC0"/>
</g>
</svg>
