<svg width="350" height="500" viewBox="0 0 350 500" fill="none" xmlns="http://www.w3.org/2000/svg">
<path d="M286.134 273.298C285.864 272.988 285.594 272.678 285.314 272.378C272.614 258.458 252.144 254.178 234.154 256.828C233.034 255.208 232.224 254.118 232.064 253.928C226.534 247.198 219.914 242.058 212.374 238.658C204.594 235.148 196.364 233.618 188.274 233.268C191.824 222.878 194.884 213.918 196.334 208.318C196.864 206.258 197.454 204.118 198.074 201.868C202.954 184.128 209.024 162.058 197.394 143.828C192.864 136.738 183.624 127.538 165.304 123.988C160.994 123.158 155.344 122.618 149.014 123.398C155.444 113.998 162.204 102.638 166.954 89.7879C171.464 77.6079 180.304 46.7179 165.194 22.9979C156.954 10.0679 143.424 2.21794 126.094 0.297941C120.004 -0.372059 113.804 0.0879463 107.654 1.67795C96.0939 4.66795 85.3639 11.518 77.4639 20.948C75.9339 22.778 74.4939 24.7079 73.1539 26.7179C69.5739 24.9979 65.6739 23.6379 61.3939 22.7979C54.5639 21.4579 47.5839 21.6879 40.6639 23.4879C20.7439 28.6479 4.41392 46.368 0.963919 66.578C-2.85608 88.948 4.7239 109.778 22.8839 126.828C29.4339 132.978 36.9839 138.288 44.8739 142.958C30.9739 149.998 21.9839 164.848 20.7939 182.778C19.8339 197.328 23.3339 212.488 31.2139 227.848C37.5739 240.258 45.6739 250.848 53.5239 261.098L65.1439 276.288C59.8439 294.608 55.3739 313.538 51.8339 332.688C51.3139 335.488 50.7639 338.328 50.1939 341.268C46.3639 361.068 42.0139 383.498 45.6639 405.518C50.1139 432.358 64.8639 454.408 88.3239 469.268C130.214 495.818 184.004 506.028 228.704 495.918C230.154 495.588 231.594 495.238 233.024 494.868C264.994 486.588 290.834 468.078 307.734 441.338C319.584 422.578 329.164 401.968 336.194 380.098L337.384 376.408C342.484 360.638 348.264 342.768 348.874 323.968L348.924 322.468C349.064 318.528 349.224 314.058 348.534 309.208C347.654 303.018 345.484 297.338 342.084 292.318C330.624 275.428 307.824 268.088 286.134 273.298Z" fill="white"/>
<path d="M88.4143 171.038C83.9943 166.588 78.9943 162.518 73.0443 160.218C67.0943 157.928 60.0743 157.598 54.2843 160.458C45.7843 164.658 41.9242 174.548 41.3242 183.688C40.5142 195.868 44.1242 207.938 49.6842 218.778C55.2442 229.618 62.7143 239.398 70.1543 249.118C78.2043 259.648 86.2542 270.168 94.3042 280.698L119.164 218.598C110.614 201.718 101.854 184.568 88.4143 171.038Z" fill="#FBD0CF" stroke="#243645" stroke-width="2.8226" stroke-miterlimit="10" stroke-linecap="round" stroke-linejoin="round"/>
<path d="M88.4139 171.038C83.9939 166.588 78.9939 162.518 73.0439 160.218C67.0939 157.928 60.0739 157.598 54.2839 160.458C54.0039 160.598 53.7539 160.748 53.4839 160.898C58.6839 165.668 63.4839 170.818 67.7639 176.398C77.1039 188.568 83.5939 202.848 85.2339 218.098C86.7439 232.138 83.7439 246.108 77.6439 258.928C83.1939 266.188 88.7439 273.438 94.2939 280.698L119.154 218.598C110.614 201.718 101.854 184.568 88.4139 171.038Z" fill="#ECD3D5"/>
<path d="M328.114 312.318C327.684 309.288 326.724 306.338 324.754 303.428C316.614 291.398 298.904 288.458 284.494 294.658C283.254 295.198 278.654 298.518 277.734 298.278C276.614 297.988 276.034 294.818 275.514 293.898C273.864 290.988 272.024 288.178 269.744 285.678C259.414 274.358 237.384 273.288 223.974 280.568C224.994 280.018 216.764 267.588 215.834 266.458C212.464 262.358 208.304 258.918 203.364 256.688C190.214 250.758 173.384 253.248 159.614 256.138C161.714 246.188 173.594 214.608 176.364 203.868C182.224 181.118 194.554 149.978 160.884 143.468C132.694 138.018 119.444 170.938 112.964 191.588C104.794 217.608 96.6238 243.618 88.4438 269.638C81.6138 291.388 76.2038 313.498 72.0838 335.818C68.1438 357.138 62.4138 380.488 65.9838 402.018C69.5038 423.218 81.3338 440.878 99.8438 452.608C156.664 488.618 249.244 496.048 290.194 431.248C301.414 413.498 310.174 394.338 316.524 374.548C321.844 357.988 327.714 341.108 328.274 323.708C328.404 319.718 328.634 315.948 328.114 312.318Z" fill="#FBD0CF" stroke="#243645" stroke-width="2.8226" stroke-miterlimit="10" stroke-linecap="round" stroke-linejoin="round"/>
<path d="M102.634 147.208C102.454 147.208 101.854 147.098 101.684 147.028L96.9438 145.108C78.6238 137.728 53.5338 127.618 37.4138 112.478C23.9838 99.8779 18.5638 85.388 21.2838 69.408C23.8338 54.448 37.9738 41.818 52.1538 41.818C53.7338 41.818 55.3138 41.9679 56.8638 42.2679C67.4138 44.3279 75.0738 52.518 81.7838 60.178C83.7238 49.148 87.6238 40.0879 93.3838 33.2279C100.294 24.9779 110.584 19.8579 120.234 19.8579C121.264 19.8579 122.284 19.918 123.304 20.028C134.584 21.278 142.824 25.9779 147.774 33.9979C154.854 45.4579 154.764 63.9579 147.544 83.4879C142.064 98.2979 133.164 111.268 126.014 120.918L124.794 122.618C112.464 140.088 106.044 147.208 102.634 147.208Z" fill="#F37C89"/>
<path d="M120.234 21.278C121.204 21.278 122.184 21.328 123.154 21.438C156.404 25.118 155.124 58.9379 146.224 82.9979C141.254 96.4279 133.464 108.488 124.884 120.078C122.984 122.638 107.254 145.798 102.634 145.798C102.484 145.798 102.344 145.778 102.214 145.718C83.104 137.948 55.694 127.708 38.384 111.458C26.794 100.578 19.7239 86.9979 22.6839 69.6479C25.0439 55.8079 38.114 43.2279 52.154 43.2279C53.634 43.2279 55.114 43.368 56.594 43.658C67.714 45.828 75.444 55.0679 82.704 63.3979C84.164 52.9379 87.534 42.4079 94.454 34.1379C100.774 26.6179 110.404 21.278 120.234 21.278ZM120.234 18.458C110.034 18.458 99.594 23.648 92.314 32.328C86.904 38.788 83.094 47.1079 80.964 57.1079C74.554 49.9479 67.164 42.8479 57.154 40.8879C55.524 40.5679 53.844 40.408 52.174 40.408C37.354 40.408 22.574 53.588 19.914 69.178C17.104 85.648 22.674 100.568 36.464 113.518C52.774 128.828 78.004 138.998 96.424 146.418L101.164 148.338C101.624 148.528 102.124 148.618 102.644 148.618C106.054 148.618 111.144 144.408 125.954 123.458C126.524 122.648 126.944 122.058 127.164 121.758C134.364 112.028 143.344 98.9379 148.884 83.9779C156.254 64.0479 156.294 45.0879 148.994 33.2579C143.804 24.8479 135.214 19.9279 123.474 18.6279C122.384 18.5079 121.304 18.458 120.234 18.458Z" fill="#243645"/>
<path d="M141.284 28.5979C143.764 38.3879 144.144 48.7079 142.764 58.7579C141.194 70.2179 137.564 81.428 131.914 91.708C126.914 100.808 120.104 108.598 111.814 115.108C100.744 123.788 86.5938 131.158 72.1338 132.978C82.7238 137.988 93.3538 142.128 102.214 145.738C106.194 147.358 122.914 122.748 124.874 120.098C133.454 108.508 141.244 96.4479 146.214 83.0179C153.014 64.6279 155.344 40.5879 141.284 28.5979Z" fill="#EBCBD1"/>
<g opacity="0.3">
<path d="M33.8138 99.9779C31.0038 91.8879 29.5238 83.4179 30.6738 74.8379C31.7138 67.0779 34.3238 58.9779 40.0638 53.1279C46.0838 46.9879 55.4838 45.0779 63.6438 47.5179C66.3138 48.3179 68.6838 49.568 70.9038 51.058C66.7238 47.518 62.0738 44.738 56.6038 43.668C40.9738 40.618 25.2938 54.3679 22.6838 69.6579C19.7238 87.0079 26.7938 100.588 38.3838 111.468C38.7938 111.858 39.2438 112.228 39.6638 112.608C37.2738 108.618 35.3338 104.358 33.8138 99.9779Z" fill="#BCBEC0"/>
</g>
<g opacity="0.3">
<path d="M122.424 21.3879C111.854 20.5179 101.244 26.0679 94.474 34.1479C88.404 41.3879 85.074 50.3679 83.354 59.5179C89.084 41.9179 104.124 26.7379 122.424 21.3879Z" fill="#BCBEC0"/>
</g>
<path d="M223.974 280.578C222.384 296.698 219.734 319.558 212.104 330.138" stroke="#243645" stroke-width="2.8226" stroke-miterlimit="10" stroke-linecap="round" stroke-linejoin="round"/>
<path d="M277.734 298.278C276.914 312.148 273.984 333.188 265.764 344.908" stroke="#243645" stroke-width="2.8226" stroke-miterlimit="10" stroke-linecap="round" stroke-linejoin="round"/>
<path d="M159.764 257.228C156.334 276.418 150.524 301.418 144.624 324.368" stroke="#243645" stroke-width="2.8226" stroke-miterlimit="10" stroke-linecap="round" stroke-linejoin="round"/>
<path d="M324.754 303.428C318.964 294.868 308.324 290.938 297.474 291.598C297.634 293.598 297.814 295.588 297.924 297.598C299.234 321.678 296.534 346.528 287.084 369.208C277.454 392.328 261.134 411.488 239.894 425.658C222.244 437.428 201.224 444.238 180.274 447.368C157.844 450.718 134.534 450.128 112.814 444.098C98.1239 440.018 84.3239 433.268 73.0439 423.608C78.9939 435.258 88.0539 445.138 99.8339 452.598C156.654 488.608 249.234 496.038 290.184 431.238C301.404 413.488 310.164 394.328 316.514 374.538C321.834 357.978 327.704 341.098 328.264 323.698C328.394 319.698 328.624 315.938 328.104 312.308C327.684 309.288 326.724 306.348 324.754 303.428Z" fill="#ECD3D5"/>
</svg>
