<svg width="206" height="198" viewBox="0 0 206 198" fill="none" xmlns="http://www.w3.org/2000/svg">
<path d="M187.612 36.5555C180.866 31.1729 171.734 30.0247 165.095 29.1993L163.714 29.0199C161.4 28.7149 158.69 28.5175 155.64 29.1634C154.187 29.289 152.787 29.5582 151.442 29.935C144.588 31.8547 137.734 33.7745 131.293 35.5866C127.184 31.3165 123.237 26.9566 119.685 23.0273C118.698 21.9329 117.711 20.8564 116.706 19.7799C114.517 17.3936 112.239 14.9356 110.337 12.5673C109.799 11.9034 109.243 11.2575 108.668 10.6834C104.542 6.41322 98.98 3.77578 91.6776 2.64544L90.6548 2.48397C86.3847 1.82013 81.9531 1.12038 76.7679 0.761548C74.884 0.635955 73.0361 0.923031 71.2239 1.49717C70.7216 1.60482 70.2192 1.74836 69.7169 1.89189C60.7998 4.56522 54.3407 11.9572 52.9054 21.1793C50.5012 36.5914 47.3434 52.3084 45.4236 61.387C33.4026 67.3436 22.5119 73.0671 12.2133 78.8802C3.90621 83.563 -0.83041 92.7133 0.120506 102.187C1.07142 111.66 7.53056 119.662 16.5732 122.604L17.273 122.838C29.7246 126.875 42.5708 131.037 54.5559 133.154C56.4219 144.493 59.1492 160.246 62.3249 175.73C63.8499 183.194 68.8197 189.456 75.6555 192.649C76.3732 193.026 77.1627 193.403 78.006 193.762C85.8466 197.063 97.7778 199.36 107.771 195.951C114.069 193.798 118.895 189.689 121.766 184.037C126.844 174.008 131.616 164.212 135.832 155.528C136.335 154.505 136.819 153.5 137.304 152.513C138.416 152.926 139.546 153.339 140.695 153.751C146.705 155.958 152.913 158.237 159.085 160.426C160.664 160.982 162.296 161.377 163.965 161.592C165.185 161.897 166.208 162.041 166.8 162.13C167.572 162.238 168.666 162.453 169.832 162.686C176.417 163.996 186.356 165.988 195.166 159.905C205.626 152.693 208.694 138.555 202.145 127.7L198.575 121.797C192.152 111.14 185.531 100.141 179.897 91.7266C183.163 85.2855 186.572 79.1493 189.891 73.2106L189.999 73.0312C191.129 71.0038 192.259 68.9584 193.39 66.913C199.023 56.7221 196.53 43.6784 187.612 36.5555Z" fill="white"/>
<path d="M181.117 60.113C183.306 56.1479 182.517 50.4603 178.839 47.5358C174.82 44.3242 166.872 43.6066 161.884 42.9427C160.574 42.7633 159.228 42.6377 157.99 43.0504C156.986 43.3733 156.106 44.0371 155.299 44.701C152.805 46.7464 150.58 49.0968 148.643 51.6624C144.839 52.7389 141.179 53.7616 137.752 54.7305C134.343 55.6993 130.683 54.7663 128.135 52.2904C121.568 45.939 115.396 39.1749 109.278 32.3929C105.977 28.7328 102.496 25.1624 99.4103 21.3228C99.1412 20.9819 98.8722 20.6769 98.603 20.4078C96.4321 18.1651 93.1307 17.0527 89.5423 16.4965C85.003 15.7967 80.7867 15.097 75.8347 14.7561C75.7271 19.6901 76.122 26.1492 77.7906 30.7961C79.1541 34.5998 79.3694 37.3807 78.6697 41.4356C77.1088 50.5141 75.2249 59.5389 73.3051 68.5457C72.6771 71.524 70.7213 74.0359 67.9942 75.3815C57.3367 80.6205 45.6746 86.631 33.6894 93.3951C26.1359 97.6473 27.2483 108.843 35.4836 111.516C48.635 115.786 62.2708 120.236 74.1124 121.994C78.4184 122.64 81.8275 125.942 82.5272 130.23C83.0296 133.334 83.9624 136.204 84.6263 139.218C85.326 142.394 84.3393 146.072 83.819 149.23C82.581 156.784 80.7688 164.229 79.4411 171.765C79.0464 174.026 78.7413 176.555 80.087 178.403C80.9123 179.534 82.2221 180.216 83.5139 180.754C90.6547 183.75 104.972 186.154 109.278 177.632C116.168 164.05 122.537 150.719 127.561 140.456C129.768 135.935 134.989 133.8 139.743 135.451C146.597 137.837 153.702 140.456 160.897 143.094C162.135 144.17 163.373 145.229 164.629 146.306C165.167 146.772 165.723 147.256 166.369 147.561C167.123 147.92 167.984 148.064 168.809 148.171C174.335 148.943 182.248 151.742 187.254 148.297C191.578 145.319 192.887 139.434 190.16 134.93C182.104 121.6 173.654 107.336 167.015 97.6293C164.988 94.669 164.683 90.8473 166.279 87.6357C171.106 77.8216 176.13 69.1377 181.117 60.113Z" fill="#F37C89" stroke="#243645" stroke-width="2.16235" stroke-miterlimit="10" stroke-linecap="round" stroke-linejoin="round"/>
<path d="M83.9803 18.2012C94.0995 29.3789 104.111 40.8976 113.566 50.03C116.114 52.488 119.774 53.421 123.183 52.4701C132.656 49.7967 143.906 46.6031 155.191 43.4633C163.66 41.0949 170.801 50.1197 166.567 57.8167C161.597 66.8415 156.573 75.5253 151.711 85.3574C150.114 88.569 150.419 92.3906 152.446 95.351C159.085 105.058 167.535 119.321 175.591 132.652C180.418 140.636 172.577 150.253 163.767 147.149C150.652 142.52 137.537 137.478 125.157 133.19C120.42 131.54 115.181 133.693 112.974 138.196C107.951 148.459 101.581 161.79 94.6915 175.371C90.4393 183.768 77.9877 182.118 76.1038 172.896C72.9281 157.43 70.1114 141.246 67.9584 127.951C67.2587 123.663 63.8496 120.362 59.5436 119.716C47.684 117.958 34.0482 113.508 20.9148 109.238C12.6795 106.565 11.5671 95.3869 19.1206 91.1167C31.1237 84.3527 42.7679 78.3422 53.4253 73.1032C56.1525 71.7575 58.1083 69.2457 58.7363 66.2673C60.4766 58.0859 64.1008 40.4849 66.7742 23.3326C68.0839 15.0793 78.3825 12.0113 83.9803 18.2012Z" fill="#F7CE6D" stroke="#243645" stroke-width="2.16235" stroke-miterlimit="10" stroke-linecap="round" stroke-linejoin="round"/>
</svg>
